<svg width="44" height="44" viewBox="0 0 44 44" fill="none" xmlns="http://www.w3.org/2000/svg">
<rect x="0.65" y="0.65" width="42.7" height="42.7" rx="8.73" stroke="#E0E0E0" stroke-width="1.3"/>
<g clip-path="url(#clip0_1525_260)">
<path opacity="0.998" fill-rule="evenodd" clip-rule="evenodd" d="M14.4414 11.9805C19.4675 11.9805 24.4935 11.9805 29.5195 11.9805C30.8477 12.293 31.668 13.1133 31.9805 14.4414C31.9805 19.4675 31.9805 24.4935 31.9805 29.5195C31.668 30.8477 30.8477 31.668 29.5195 31.9805C27.7878 31.9805 26.056 31.9805 24.3242 31.9805C24.3242 29.6237 24.3242 27.2669 24.3242 24.9102C25.3138 24.9102 26.3034 24.9102 27.293 24.9102C27.4753 23.7383 27.6575 22.5664 27.8398 21.3945C26.668 21.3945 25.4961 21.3945 24.3242 21.3945C24.3242 20.6003 24.3242 19.806 24.3242 19.0117C25.5091 19.0117 26.694 19.0117 27.8789 19.0117C27.8789 17.8398 27.8789 16.668 27.8789 15.4961C26.5369 15.48 25.1958 15.4995 23.8555 15.5547C22.2813 15.8398 21.2982 16.7577 20.9062 18.3086C20.8673 18.5414 20.8413 18.7758 20.8281 19.0117C20.8086 19.8059 20.8021 20.6002 20.8086 21.3945C20.0273 21.3945 19.2461 21.3945 18.4648 21.3945C18.4648 22.5664 18.4648 23.7383 18.4648 24.9102C19.2461 24.9102 20.0273 24.9102 20.8086 24.9102C20.8086 27.2669 20.8086 29.6237 20.8086 31.9805C18.6862 31.9805 16.5638 31.9805 14.4414 31.9805C13.1133 31.668 12.293 30.8477 11.9805 29.5195C11.9805 24.4935 11.9805 19.4675 11.9805 14.4414C12.293 13.1133 13.1133 12.293 14.4414 11.9805Z" fill="white"/>
</g>
<defs>
<clipPath id="clip0_1525_260">
<rect width="20" height="20" fill="white" transform="translate(12 12)"/>
</clipPath>
</defs>
</svg>
