<svg width="1200" height="1109" viewBox="0 0 1200 1109" fill="none" xmlns="http://www.w3.org/2000/svg">
<g clip-path="url(#clip0_1452_177)">
<path d="M-502.568 -233.714H-555.088V-181.194M-502.568 -233.714V-181.194M-502.568 -233.714H-450.048M-555.088 -181.194H-502.568M-555.088 -181.194V-128.674M-502.568 -181.194V-128.674M-502.568 -181.194H-450.048M-450.048 -233.714V-181.194M-450.048 -233.714H-397.528M-502.568 -128.674H-555.088M-502.568 -128.674V-76.1542M-502.568 -128.674H-450.048M-450.048 -181.194V-128.674M-450.048 -181.194H-397.528M-555.088 -128.674V-76.1542M-502.568 -76.1542H-555.088M-502.568 -76.1542V-23.6341M-502.568 -76.1542H-450.048M-450.048 -128.674V-76.1542M-450.048 -128.674H-397.528M-555.088 -76.1542V-23.6341M-502.568 -23.6341H-555.088M-502.568 -23.6341V28.8859M-502.568 -23.6341H-450.048M-450.048 -76.1542V-23.6341M-450.048 -76.1542H-397.528M-555.088 -23.6341V28.8859M-502.568 28.8859H-555.088M-502.568 28.8859V81.406M-502.568 28.8859H-450.048M-450.048 -23.6341V28.8859M-450.048 -23.6341H-397.528M-555.088 28.8859V81.406M-502.568 81.406H-555.088M-502.568 81.406V133.926M-502.568 81.406H-450.048M-450.048 28.8859V81.406M-450.048 28.8859H-397.528M-555.088 81.406V133.926M-502.568 133.926H-555.088M-502.568 133.926V186.446M-502.568 133.926H-450.048M-450.048 81.406V133.926M-450.048 81.406H-397.528M-555.088 133.926V186.446M-502.568 186.446H-555.088M-502.568 186.446V238.966M-502.568 186.446H-450.048M-450.048 133.926V186.446M-450.048 133.926H-397.528M-555.088 186.446V238.966M-502.568 238.966H-555.088M-502.568 238.966V291.486M-502.568 238.966H-450.048M-450.048 186.446V238.966M-450.048 186.446H-397.528M-555.088 238.966V291.486M-502.568 291.486H-555.088M-502.568 291.486V344.006M-502.568 291.486H-450.048M-450.048 238.966V291.486M-450.048 238.966H-397.528M-555.088 291.486V344.006M-502.568 344.006H-555.088M-502.568 344.006V396.526M-502.568 344.006H-450.048M-450.048 291.486V344.006M-450.048 291.486H-397.528M-555.088 344.006V396.526M-502.568 396.526H-555.088M-502.568 396.526V449.046M-502.568 396.526H-450.048M-450.048 344.006V396.526M-450.048 344.006H-397.528M-555.088 396.526V449.046M-502.568 449.046H-555.088M-502.568 449.046V501.566M-502.568 449.046H-450.048M-450.048 396.526V449.046M-450.048 396.526H-397.528M-555.088 449.046V501.566M-502.568 501.566H-555.088M-502.568 501.566V554.087M-502.568 501.566H-450.048M-450.048 449.046V501.566M-450.048 449.046H-397.528M-555.088 501.566V554.087M-502.568 554.087H-555.088M-502.568 554.087V606.607M-502.568 554.087H-450.048M-450.048 501.566V554.087M-450.048 501.566H-397.528M-555.088 554.087V606.607M-502.568 606.607H-555.088M-502.568 606.607V659.127M-502.568 606.607H-450.048M-450.048 554.087V606.607M-450.048 554.087H-397.528M-555.088 606.607V659.127M-502.568 659.127H-555.088M-502.568 659.127V711.647M-502.568 659.127H-450.048M-450.048 606.607V659.127M-450.048 606.607H-397.528M-555.088 659.127V711.647M-502.568 711.647H-555.088M-502.568 711.647V764.167M-502.568 711.647H-450.048M-450.048 659.127V711.647M-450.048 659.127H-397.528M-555.088 711.647V764.167M-502.568 764.167H-555.088M-502.568 764.167V816.687M-502.568 764.167H-450.048M-450.048 711.647V764.167M-450.048 711.647H-397.528M-555.088 764.167V816.687H-502.568M-502.568 816.687H-450.048M-450.048 764.167V816.687M-450.048 764.167H-397.528M-450.048 816.687H-397.528M-397.528 -233.714V-181.194M-397.528 -233.714H-345.008M-397.528 -181.194V-128.674M-397.528 -181.194H-345.008M-397.528 -128.674V-76.1542M-397.528 -128.674H-345.008M-397.528 -76.1542V-23.6341M-397.528 -76.1542H-345.008M-397.528 -23.6341V28.8859M-397.528 -23.6341H-345.008M-397.528 28.8859V81.406M-397.528 28.8859H-345.008M-397.528 81.406V133.926M-397.528 81.406H-345.008M-397.528 133.926V186.446M-397.528 133.926H-345.008M-397.528 186.446V238.966M-397.528 186.446H-345.008M-397.528 238.966V291.486M-397.528 238.966H-345.008M-397.528 291.486V344.006M-397.528 291.486H-345.008M-397.528 344.006V396.526M-397.528 344.006H-345.008M-397.528 396.526V449.046M-397.528 396.526H-345.008M-397.528 449.046V501.566M-397.528 449.046H-345.008M-397.528 501.566V554.087M-397.528 501.566H-345.008M-397.528 554.087V606.607M-397.528 554.087H-345.008M-397.528 606.607V659.127M-397.528 606.607H-345.008M-397.528 659.127V711.647M-397.528 659.127H-345.008M-397.528 711.647V764.167M-397.528 711.647H-345.008M-397.528 764.167V816.687M-397.528 764.167H-345.008M-397.528 816.687H-345.008M-345.008 -233.714V-181.194M-345.008 -233.714H-292.488M-345.008 -181.194V-128.674M-345.008 -181.194H-292.488M-345.008 -128.674V-76.1542M-345.008 -128.674H-292.488M-345.008 -76.1542V-23.6341M-345.008 -76.1542H-292.488M-345.008 -23.6341V28.8859M-345.008 -23.6341H-292.488M-345.008 28.8859V81.406M-345.008 28.8859H-292.488M-345.008 81.406V133.926M-345.008 81.406H-292.488M-345.008 133.926V186.446M-345.008 133.926H-292.488M-345.008 186.446V238.966M-345.008 186.446H-292.488M-345.008 238.966V291.486M-345.008 238.966H-292.488M-345.008 291.486V344.006M-345.008 291.486H-292.488M-345.008 344.006V396.526M-345.008 344.006H-292.488M-345.008 396.526V449.046M-345.008 396.526H-292.488M-345.008 449.046V501.566M-345.008 449.046H-292.488M-345.008 501.566V554.087M-345.008 501.566H-292.488M-345.008 554.087V606.607M-345.008 554.087H-292.488M-345.008 606.607V659.127M-345.008 606.607H-292.488M-345.008 659.127V711.647M-345.008 659.127H-292.488M-345.008 711.647V764.167M-345.008 711.647H-292.488M-345.008 764.167V816.687M-345.008 764.167H-292.488M-345.008 816.687H-292.488M-292.488 -233.714V-181.194M-292.488 -233.714H-239.967M-292.488 -181.194V-128.674M-292.488 -181.194H-239.967M-292.488 -128.674V-76.1542M-292.488 -128.674H-239.967M-292.488 -76.1542V-23.6341M-292.488 -76.1542H-239.967M-292.488 -23.6341V28.8859M-292.488 -23.6341H-239.967M-292.488 28.8859V81.406M-292.488 28.8859H-239.967M-292.488 81.406V133.926M-292.488 81.406H-239.967M-292.488 133.926V186.446M-292.488 133.926H-239.967M-292.488 186.446V238.966M-292.488 186.446H-239.967M-292.488 238.966V291.486M-292.488 238.966H-239.967M-292.488 291.486V344.006M-292.488 291.486H-239.967M-292.488 344.006V396.526M-292.488 344.006H-239.967M-292.488 396.526V449.046M-292.488 396.526H-239.967M-292.488 449.046V501.566M-292.488 449.046H-239.967M-292.488 501.566V554.087M-292.488 501.566H-239.967M-292.488 554.087V606.607M-292.488 554.087H-239.967M-292.488 606.607V659.127M-292.488 606.607H-239.967M-292.488 659.127V711.647M-292.488 659.127H-239.967M-292.488 711.647V764.167M-292.488 711.647H-239.967M-292.488 764.167V816.687M-292.488 764.167H-239.967M-292.488 816.687H-239.967M-239.967 -233.714V-181.194M-239.967 -233.714H-187.447M-239.967 -181.194V-128.674M-239.967 -181.194H-187.447M-239.967 -128.674V-76.1542M-239.967 -128.674H-187.447M-239.967 -76.1542V-23.6341M-239.967 -76.1542H-187.447M-239.967 -23.6341V28.8859M-239.967 -23.6341H-187.447M-239.967 28.8859V81.406M-239.967 28.8859H-187.447M-239.967 81.406V133.926M-239.967 81.406H-187.447M-239.967 133.926V186.446M-239.967 133.926H-187.447M-239.967 186.446V238.966M-239.967 186.446H-187.447M-239.967 238.966V291.486M-239.967 238.966H-187.447M-239.967 291.486V344.006M-239.967 291.486H-187.447M-239.967 344.006V396.526M-239.967 344.006H-187.447M-239.967 396.526V449.046M-239.967 396.526H-187.447M-239.967 449.046V501.566M-239.967 449.046H-187.447M-239.967 501.566V554.087M-239.967 501.566H-187.447M-239.967 554.087V606.607M-239.967 554.087H-187.447M-239.967 606.607V659.127M-239.967 606.607H-187.447M-239.967 659.127V711.647M-239.967 659.127H-187.447M-239.967 711.647V764.167M-239.967 711.647H-187.447M-239.967 764.167V816.687M-239.967 764.167H-187.447M-239.967 816.687H-187.447M-187.447 -233.714V-181.194M-187.447 -233.714H-134.927M-187.447 -181.194V-128.674M-187.447 -181.194H-134.927M-187.447 -128.674V-76.1542M-187.447 -128.674H-134.927M-187.447 -76.1542V-23.6341M-187.447 -76.1542H-134.927M-187.447 -23.6341V28.8859M-187.447 -23.6341H-134.927M-187.447 28.8859V81.406M-187.447 28.8859H-134.927M-187.447 81.406V133.926M-187.447 81.406H-134.927M-187.447 133.926V186.446M-187.447 133.926H-134.927M-187.447 186.446V238.966M-187.447 186.446H-134.927M-187.447 238.966V291.486M-187.447 238.966H-134.927M-187.447 291.486V344.006M-187.447 291.486H-134.927M-187.447 344.006V396.526M-187.447 344.006H-134.927M-187.447 396.526V449.046M-187.447 396.526H-134.927M-187.447 449.046V501.566M-187.447 449.046H-134.927M-187.447 501.566V554.087M-187.447 501.566H-134.927M-187.447 554.087V606.607M-187.447 554.087H-134.927M-187.447 606.607V659.127M-187.447 606.607H-134.927M-187.447 659.127V711.647M-187.447 659.127H-134.927M-187.447 711.647V764.167M-187.447 711.647H-134.927M-187.447 764.167V816.687M-187.447 764.167H-134.927M-187.447 816.687H-134.927M-134.927 -233.714V-181.194M-134.927 -233.714H-82.4073M-134.927 -181.194V-128.674M-134.927 -181.194H-82.4073M-134.927 -128.674V-76.1542M-134.927 -128.674H-82.4073M-134.927 -76.1542V-23.6341M-134.927 -76.1542H-82.4073M-134.927 -23.6341V28.8859M-134.927 -23.6341H-82.4073M-134.927 28.8859V81.406M-134.927 28.8859H-82.4073M-134.927 81.406V133.926M-134.927 81.406H-82.4073M-134.927 133.926V186.446M-134.927 133.926H-82.4073M-134.927 186.446V238.966M-134.927 186.446H-82.4073M-134.927 238.966V291.486M-134.927 238.966H-82.4073M-134.927 291.486V344.006M-134.927 291.486H-82.4073M-134.927 344.006V396.526M-134.927 344.006H-82.4073M-134.927 396.526V449.046M-134.927 396.526H-82.4073M-134.927 449.046V501.566M-134.927 449.046H-82.4073M-134.927 501.566V554.087M-134.927 501.566H-82.4073M-134.927 554.087V606.607M-134.927 554.087H-82.4073M-134.927 606.607V659.127M-134.927 606.607H-82.4073M-134.927 659.127V711.647M-134.927 659.127H-82.4073M-134.927 711.647V764.167M-134.927 711.647H-82.4073M-134.927 764.167V816.687M-134.927 764.167H-82.4073M-134.927 816.687H-82.4073M-82.4073 -233.714V-181.194M-82.4073 -233.714H-29.8872M-82.4073 -181.194V-128.674M-82.4073 -181.194H-29.8872M-82.4073 -128.674V-76.1542M-82.4073 -128.674H-29.8872M-82.4073 -76.1542V-23.6341M-82.4073 -76.1542H-29.8872M-82.4073 -23.6341V28.8859M-82.4073 -23.6341H-29.8872M-82.4073 28.8859V81.406M-82.4073 28.8859H-29.8872M-82.4073 81.406V133.926M-82.4073 81.406H-29.8872M-82.4073 133.926V186.446M-82.4073 133.926H-29.8872M-82.4073 186.446V238.966M-82.4073 186.446H-29.8872M-82.4073 238.966V291.486M-82.4073 238.966H-29.8872M-82.4073 291.486V344.006M-82.4073 291.486H-29.8872M-82.4073 344.006V396.526M-82.4073 344.006H-29.8872M-82.4073 396.526V449.046M-82.4073 396.526H-29.8872M-82.4073 449.046V501.566M-82.4073 449.046H-29.8872M-82.4073 501.566V554.087M-82.4073 501.566H-29.8872M-82.4073 554.087V606.607M-82.4073 554.087H-29.8872M-82.4073 606.607V659.127M-82.4073 606.607H-29.8872M-82.4073 659.127V711.647M-82.4073 659.127H-29.8872M-82.4073 711.647V764.167M-82.4073 711.647H-29.8872M-82.4073 764.167V816.687M-82.4073 764.167H-29.8872M-82.4073 816.687H-29.8872M-29.8872 -233.714V-181.194M-29.8872 -233.714H22.6328M-29.8872 -181.194V-128.674M-29.8872 -181.194H22.6328M-29.8872 -128.674V-76.1542M-29.8872 -128.674H22.6328M-29.8872 -76.1542V-23.6341M-29.8872 -76.1542H22.6328M-29.8872 -23.6341V28.8859M-29.8872 -23.6341H22.6328M-29.8872 28.8859V81.406M-29.8872 28.8859H22.6328M-29.8872 81.406V133.926M-29.8872 81.406H22.6328M-29.8872 133.926V186.446M-29.8872 133.926H22.6328M-29.8872 186.446V238.966M-29.8872 186.446H22.6328M-29.8872 238.966V291.486M-29.8872 238.966H22.6328M-29.8872 291.486V344.006M-29.8872 291.486H22.6328M-29.8872 344.006V396.526M-29.8872 344.006H22.6328M-29.8872 396.526V449.046M-29.8872 396.526H22.6328M-29.8872 449.046V501.566M-29.8872 449.046H22.6328M-29.8872 501.566V554.087M-29.8872 501.566H22.6328M-29.8872 554.087V606.607M-29.8872 554.087H22.6328M-29.8872 606.607V659.127M-29.8872 606.607H22.6328M-29.8872 659.127V711.647M-29.8872 659.127H22.6328M-29.8872 711.647V764.167M-29.8872 711.647H22.6328M-29.8872 764.167V816.687M-29.8872 764.167H22.6328M-29.8872 816.687H22.6328M22.6328 -233.714V-181.194M22.6328 -233.714H75.1529M22.6328 -181.194V-128.674M22.6328 -181.194H75.1529M22.6328 -128.674V-76.1542M22.6328 -128.674H75.1529M22.6328 -76.1542V-23.6341M22.6328 -76.1542H75.1529M22.6328 -23.6341V28.8859M22.6328 -23.6341H75.1529M22.6328 28.8859V81.406M22.6328 28.8859H75.1529M22.6328 81.406V133.926M22.6328 81.406H75.1529M22.6328 133.926V186.446M22.6328 133.926H75.1529M22.6328 186.446V238.966M22.6328 186.446H75.1529M22.6328 238.966V291.486M22.6328 238.966H75.1529M22.6328 291.486V344.006M22.6328 291.486H75.1529M22.6328 344.006V396.526M22.6328 344.006H75.1529M22.6328 396.526V449.046M22.6328 396.526H75.1529M22.6328 449.046V501.566M22.6328 449.046H75.1529M22.6328 501.566V554.087M22.6328 501.566H75.1529M22.6328 554.087V606.607M22.6328 554.087H75.1529M22.6328 606.607V659.127M22.6328 606.607H75.1529M22.6328 659.127V711.647M22.6328 659.127H75.1529M22.6328 711.647V764.167M22.6328 711.647H75.1529M22.6328 764.167V816.687M22.6328 764.167H75.1529M22.6328 816.687H75.1529M75.1529 -233.714V-181.194M75.1529 -233.714H127.673M75.1529 -181.194V-128.674M75.1529 -181.194H127.673M75.1529 -128.674V-76.1542M75.1529 -128.674H127.673M75.1529 -76.1542V-23.6341M75.1529 -76.1542H127.673M75.1529 -23.6341V28.8859M75.1529 -23.6341H127.673M75.1529 28.8859V81.406M75.1529 28.8859H127.673M75.1529 81.406V133.926M75.1529 81.406H127.673M75.1529 133.926V186.446M75.1529 133.926H127.673M75.1529 186.446V238.966M75.1529 186.446H127.673M75.1529 238.966V291.486M75.1529 238.966H127.673M75.1529 291.486V344.006M75.1529 291.486H127.673M75.1529 344.006V396.526M75.1529 344.006H127.673M75.1529 396.526V449.046M75.1529 396.526H127.673M75.1529 449.046V501.566M75.1529 449.046H127.673M75.1529 501.566V554.087M75.1529 501.566H127.673M75.1529 554.087V606.607M75.1529 554.087H127.673M75.1529 606.607V659.127M75.1529 606.607H127.673M75.1529 659.127V711.647M75.1529 659.127H127.673M75.1529 711.647V764.167M75.1529 711.647H127.673M75.1529 764.167V816.687M75.1529 764.167H127.673M75.1529 816.687H127.673M127.673 -233.714V-181.194M127.673 -233.714H180.193M127.673 -181.194V-128.674M127.673 -181.194H180.193M127.673 -128.674V-76.1542M127.673 -128.674H180.193M127.673 -76.1542V-23.6341M127.673 -76.1542H180.193M127.673 -23.6341V28.8859M127.673 -23.6341H180.193M127.673 28.8859V81.406M127.673 28.8859H180.193M127.673 81.406V133.926M127.673 81.406H180.193M127.673 133.926V186.446M127.673 133.926H180.193M127.673 186.446V238.966M127.673 186.446H180.193M127.673 238.966V291.486M127.673 238.966H180.193M127.673 291.486V344.006M127.673 291.486H180.193M127.673 344.006V396.526M127.673 344.006H180.193M127.673 396.526V449.046M127.673 396.526H180.193M127.673 449.046V501.566M127.673 449.046H180.193M127.673 501.566V554.087M127.673 501.566H180.193M127.673 554.087V606.607M127.673 554.087H180.193M127.673 606.607V659.127M127.673 606.607H180.193M127.673 659.127V711.647M127.673 659.127H180.193M127.673 711.647V764.167M127.673 711.647H180.193M127.673 764.167V816.687M127.673 764.167H180.193M127.673 816.687H180.193M180.193 -233.714V-181.194M180.193 -233.714H232.713M180.193 -181.194V-128.674M180.193 -181.194H232.713M180.193 -128.674V-76.1542M180.193 -128.674H232.713M180.193 -76.1542V-23.6341M180.193 -76.1542H232.713M180.193 -23.6341V28.8859M180.193 -23.6341H232.713M180.193 28.8859V81.406M180.193 28.8859H232.713M180.193 81.406V133.926M180.193 81.406H232.713M180.193 133.926V186.446M180.193 133.926H232.713M180.193 186.446V238.966M180.193 186.446H232.713M180.193 238.966V291.486M180.193 238.966H232.713M180.193 291.486V344.006M180.193 291.486H232.713M180.193 344.006V396.526M180.193 344.006H232.713M180.193 396.526V449.046M180.193 396.526H232.713M180.193 449.046V501.566M180.193 449.046H232.713M180.193 501.566V554.087M180.193 501.566H232.713M180.193 554.087V606.607M180.193 554.087H232.713M180.193 606.607V659.127M180.193 606.607H232.713M180.193 659.127V711.647M180.193 659.127H232.713M180.193 711.647V764.167M180.193 711.647H232.713M180.193 764.167V816.687M180.193 764.167H232.713M180.193 816.687H232.713M232.713 -233.714V-181.194M232.713 -233.714H285.233M232.713 -181.194V-128.674M232.713 -181.194H285.233M232.713 -128.674V-76.1542M232.713 -128.674H285.233M232.713 -76.1542V-23.6341M232.713 -76.1542H285.233M232.713 -23.6341V28.8859M232.713 -23.6341H285.233M232.713 28.8859V81.406M232.713 28.8859H285.233M232.713 81.406V133.926M232.713 81.406H285.233M232.713 133.926V186.446M232.713 133.926H285.233M232.713 186.446V238.966M232.713 186.446H285.233M232.713 238.966V291.486M232.713 238.966H285.233M232.713 291.486V344.006M232.713 291.486H285.233M232.713 344.006V396.526M232.713 344.006H285.233M232.713 396.526V449.046M232.713 396.526H285.233M232.713 449.046V501.566M232.713 449.046H285.233M232.713 501.566V554.087M232.713 501.566H285.233M232.713 554.087V606.607M232.713 554.087H285.233M232.713 606.607V659.127M232.713 606.607H285.233M232.713 659.127V711.647M232.713 659.127H285.233M232.713 711.647V764.167M232.713 711.647H285.233M232.713 764.167V816.687M232.713 764.167H285.233M232.713 816.687H285.233M285.233 -233.714V-181.194M285.233 -233.714H337.753M285.233 -181.194V-128.674M285.233 -181.194H337.753M285.233 -128.674V-76.1542M285.233 -128.674H337.753M285.233 -76.1542V-23.6341M285.233 -76.1542H337.753M285.233 -23.6341V28.8859M285.233 -23.6341H337.753M285.233 28.8859V81.406M285.233 28.8859H337.753M285.233 81.406V133.926M285.233 81.406H337.753M285.233 133.926V186.446M285.233 133.926H337.753M285.233 186.446V238.966M285.233 186.446H337.753M285.233 238.966V291.486M285.233 238.966H337.753M285.233 291.486V344.006M285.233 291.486H337.753M285.233 344.006V396.526M285.233 344.006H337.753M285.233 396.526V449.046M285.233 396.526H337.753M285.233 449.046V501.566M285.233 449.046H337.753M285.233 501.566V554.087M285.233 501.566H337.753M285.233 554.087V606.607M285.233 554.087H337.753M285.233 606.607V659.127M285.233 606.607H337.753M285.233 659.127V711.647M285.233 659.127H337.753M285.233 711.647V764.167M285.233 711.647H337.753M285.233 764.167V816.687M285.233 764.167H337.753M285.233 816.687H337.753M337.753 -233.714V-181.194M337.753 -233.714H390.273M337.753 -181.194V-128.674M337.753 -181.194H390.273M337.753 -128.674V-76.1542M337.753 -128.674H390.273M337.753 -76.1542V-23.6341M337.753 -76.1542H390.273M337.753 -23.6341V28.8859M337.753 -23.6341H390.273M337.753 28.8859V81.406M337.753 28.8859H390.273M337.753 81.406V133.926M337.753 81.406H390.273M337.753 133.926V186.446M337.753 133.926H390.273M337.753 186.446V238.966M337.753 186.446H390.273M337.753 238.966V291.486M337.753 238.966H390.273M337.753 291.486V344.006M337.753 291.486H390.273M337.753 344.006V396.526M337.753 344.006H390.273M337.753 396.526V449.046M337.753 396.526H390.273M337.753 449.046V501.566M337.753 449.046H390.273M337.753 501.566V554.087M337.753 501.566H390.273M337.753 554.087V606.607M337.753 554.087H390.273M337.753 606.607V659.127M337.753 606.607H390.273M337.753 659.127V711.647M337.753 659.127H390.273M337.753 711.647V764.167M337.753 711.647H390.273M337.753 764.167V816.687M337.753 764.167H390.273M337.753 816.687H390.273M390.273 -233.714V-181.194M390.273 -233.714H442.793M390.273 -181.194V-128.674M390.273 -181.194H442.793M390.273 -128.674V-76.1542M390.273 -128.674H442.793M390.273 -76.1542V-23.6341M390.273 -76.1542H442.793M390.273 -23.6341V28.8859M390.273 -23.6341H442.793M390.273 28.8859V81.406M390.273 28.8859H442.793M390.273 81.406V133.926M390.273 81.406H442.793M390.273 133.926V186.446M390.273 133.926H442.793M390.273 186.446V238.966M390.273 186.446H442.793M390.273 238.966V291.486M390.273 238.966H442.793M390.273 291.486V344.006M390.273 291.486H442.793M390.273 344.006V396.526M390.273 344.006H442.793M390.273 396.526V449.046M390.273 396.526H442.793M390.273 449.046V501.566M390.273 449.046H442.793M390.273 501.566V554.087M390.273 501.566H442.793M390.273 554.087V606.607M390.273 554.087H442.793M390.273 606.607V659.127M390.273 606.607H442.793M390.273 659.127V711.647M390.273 659.127H442.793M390.273 711.647V764.167M390.273 711.647H442.793M390.273 764.167V816.687M390.273 764.167H442.793M390.273 816.687H442.793M442.793 -233.714V-181.194M442.793 -233.714H495.313M442.793 -181.194V-128.674M442.793 -181.194H495.313M442.793 -128.674V-76.1542M442.793 -128.674H495.313M442.793 -76.1542V-23.6341M442.793 -76.1542H495.313M442.793 -23.6341V28.8859M442.793 -23.6341H495.313M442.793 28.8859V81.406M442.793 28.8859H495.313M442.793 81.406V133.926M442.793 81.406H495.313M442.793 133.926V186.446M442.793 133.926H495.313M442.793 186.446V238.966M442.793 186.446H495.313M442.793 238.966V291.486M442.793 238.966H495.313M442.793 291.486V344.006M442.793 291.486H495.313M442.793 344.006V396.526M442.793 344.006H495.313M442.793 396.526V449.046M442.793 396.526H495.313M442.793 449.046V501.566M442.793 449.046H495.313M442.793 501.566V554.087M442.793 501.566H495.313M442.793 554.087V606.607M442.793 554.087H495.313M442.793 606.607V659.127M442.793 606.607H495.313M442.793 659.127V711.647M442.793 659.127H495.313M442.793 711.647V764.167M442.793 711.647H495.313M442.793 764.167V816.687M442.793 764.167H495.313M442.793 816.687H495.313M495.313 -233.714V-181.194M495.313 -233.714H547.833M495.313 -181.194V-128.674M495.313 -181.194H547.833M495.313 -128.674V-76.1542M495.313 -128.674H547.833M495.313 -76.1542V-23.6341M495.313 -76.1542H547.833M495.313 -23.6341V28.8859M495.313 -23.6341H547.833M495.313 28.8859V81.406M495.313 28.8859H547.833M495.313 81.406V133.926M495.313 81.406H547.833M495.313 133.926V186.446M495.313 133.926H547.833M495.313 186.446V238.966M495.313 186.446H547.833M495.313 238.966V291.486M495.313 238.966H547.833M495.313 291.486V344.006M495.313 291.486H547.833M495.313 344.006V396.526M495.313 344.006H547.833M495.313 396.526V449.046M495.313 396.526H547.833M495.313 449.046V501.566M495.313 449.046H547.833M495.313 501.566V554.087M495.313 501.566H547.833M495.313 554.087V606.607M495.313 554.087H547.833M495.313 606.607V659.127M495.313 606.607H547.833M495.313 659.127V711.647M495.313 659.127H547.833M495.313 711.647V764.167M495.313 711.647H547.833M495.313 764.167V816.687M495.313 764.167H547.833M495.313 816.687H547.833M547.833 -233.714V-181.194M547.833 -233.714H600.354M547.833 -181.194V-128.674M547.833 -181.194H600.354M547.833 -128.674V-76.1542M547.833 -128.674H600.354M547.833 -76.1542V-23.6341M547.833 -76.1542H600.354M547.833 -23.6341V28.8859M547.833 -23.6341H600.354M547.833 28.8859V81.406M547.833 28.8859H600.354M547.833 81.406V133.926M547.833 81.406H600.354M547.833 133.926V186.446M547.833 133.926H600.354M547.833 186.446V238.966M547.833 186.446H600.354M547.833 238.966V291.486M547.833 238.966H600.354M547.833 291.486V344.006M547.833 291.486H600.354M547.833 344.006V396.526M547.833 344.006H600.354M547.833 396.526V449.046M547.833 396.526H600.354M547.833 449.046V501.566M547.833 449.046H600.354M547.833 501.566V554.087M547.833 501.566H600.354M547.833 554.087V606.607M547.833 554.087H600.354M547.833 606.607V659.127M547.833 606.607H600.354M547.833 659.127V711.647M547.833 659.127H600.354M547.833 711.647V764.167M547.833 711.647H600.354M547.833 764.167V816.687M547.833 764.167H600.354M547.833 816.687H600.354M600.354 -233.714V-181.194M600.354 -233.714H652.874M600.354 -181.194V-128.674M600.354 -181.194H652.874M600.354 -128.674V-76.1542M600.354 -128.674H652.874M600.354 -76.1542V-23.6341M600.354 -76.1542H652.874M600.354 -23.6341V28.8859M600.354 -23.6341H652.874M600.354 28.8859V81.406M600.354 28.8859H652.874M600.354 81.406V133.926M600.354 81.406H652.874M600.354 133.926V186.446M600.354 133.926H652.874M600.354 186.446V238.966M600.354 186.446H652.874M600.354 238.966V291.486M600.354 238.966H652.874M600.354 291.486V344.006M600.354 291.486H652.874M600.354 344.006V396.526M600.354 344.006H652.874M600.354 396.526V449.046M600.354 396.526H652.874M600.354 449.046V501.566M600.354 449.046H652.874M600.354 501.566V554.087M600.354 501.566H652.874M600.354 554.087V606.607M600.354 554.087H652.874M600.354 606.607V659.127M600.354 606.607H652.874M600.354 659.127V711.647M600.354 659.127H652.874M600.354 711.647V764.167M600.354 711.647H652.874M600.354 764.167V816.687M600.354 764.167H652.874M600.354 816.687H652.874M652.874 -233.714V-181.194M652.874 -233.714H705.394M652.874 -181.194V-128.674M652.874 -181.194H705.394M652.874 -128.674V-76.1542M652.874 -128.674H705.394M652.874 -76.1542V-23.6341M652.874 -76.1542H705.394M652.874 -23.6341V28.8859M652.874 -23.6341H705.394M652.874 28.8859V81.406M652.874 28.8859H705.394M652.874 81.406V133.926M652.874 81.406H705.394M652.874 133.926V186.446M652.874 133.926H705.394M652.874 186.446V238.966M652.874 186.446H705.394M652.874 238.966V291.486M652.874 238.966H705.394M652.874 291.486V344.006M652.874 291.486H705.394M652.874 344.006V396.526M652.874 344.006H705.394M652.874 396.526V449.046M652.874 396.526H705.394M652.874 449.046V501.566M652.874 449.046H705.394M652.874 501.566V554.087M652.874 501.566H705.394M652.874 554.087V606.607M652.874 554.087H705.394M652.874 606.607V659.127M652.874 606.607H705.394M652.874 659.127V711.647M652.874 659.127H705.394M652.874 711.647V764.167M652.874 711.647H705.394M652.874 764.167V816.687M652.874 764.167H705.394M652.874 816.687H705.394M705.394 -233.714V-181.194M705.394 -233.714H757.914M705.394 -181.194V-128.674M705.394 -181.194H757.914M705.394 -128.674V-76.1542M705.394 -128.674H757.914M705.394 -76.1542V-23.6341M705.394 -76.1542H757.914M705.394 -23.6341V28.8859M705.394 -23.6341H757.914M705.394 28.8859V81.406M705.394 28.8859H757.914M705.394 81.406V133.926M705.394 81.406H757.914M705.394 133.926V186.446M705.394 133.926H757.914M705.394 186.446V238.966M705.394 186.446H757.914M705.394 238.966V291.486M705.394 238.966H757.914M705.394 291.486V344.006M705.394 291.486H757.914M705.394 344.006V396.526M705.394 344.006H757.914M705.394 396.526V449.046M705.394 396.526H757.914M705.394 449.046V501.566M705.394 449.046H757.914M705.394 501.566V554.087M705.394 501.566H757.914M705.394 554.087V606.607M705.394 554.087H757.914M705.394 606.607V659.127M705.394 606.607H757.914M705.394 659.127V711.647M705.394 659.127H757.914M705.394 711.647V764.167M705.394 711.647H757.914M705.394 764.167V816.687M705.394 764.167H757.914M705.394 816.687H757.914M757.914 -233.714V-181.194M757.914 -233.714H810.434M757.914 -181.194V-128.674M757.914 -181.194H810.434M757.914 -128.674V-76.1542M757.914 -128.674H810.434M757.914 -76.1542V-23.6341M757.914 -76.1542H810.434M757.914 -23.6341V28.8859M757.914 -23.6341H810.434M757.914 28.8859V81.406M757.914 28.8859H810.434M757.914 81.406V133.926M757.914 81.406H810.434M757.914 133.926V186.446M757.914 133.926H810.434M757.914 186.446V238.966M757.914 186.446H810.434M757.914 238.966V291.486M757.914 238.966H810.434M757.914 291.486V344.006M757.914 291.486H810.434M757.914 344.006V396.526M757.914 344.006H810.434M757.914 396.526V449.046M757.914 396.526H810.434M757.914 449.046V501.566M757.914 449.046H810.434M757.914 501.566V554.087M757.914 501.566H810.434M757.914 554.087V606.607M757.914 554.087H810.434M757.914 606.607V659.127M757.914 606.607H810.434M757.914 659.127V711.647M757.914 659.127H810.434M757.914 711.647V764.167M757.914 711.647H810.434M757.914 764.167V816.687M757.914 764.167H810.434M757.914 816.687H810.434M810.434 -233.714V-181.194M810.434 -233.714H862.954M810.434 -181.194V-128.674M810.434 -181.194H862.954M810.434 -128.674V-76.1542M810.434 -128.674H862.954M810.434 -76.1542V-23.6341M810.434 -76.1542H862.954M810.434 -23.6341V28.8859M810.434 -23.6341H862.954M810.434 28.8859V81.406M810.434 28.8859H862.954M810.434 81.406V133.926M810.434 81.406H862.954M810.434 133.926V186.446M810.434 133.926H862.954M810.434 186.446V238.966M810.434 186.446H862.954M810.434 238.966V291.486M810.434 238.966H862.954M810.434 291.486V344.006M810.434 291.486H862.954M810.434 344.006V396.526M810.434 344.006H862.954M810.434 396.526V449.046M810.434 396.526H862.954M810.434 449.046V501.566M810.434 449.046H862.954M810.434 501.566V554.087M810.434 501.566H862.954M810.434 554.087V606.607M810.434 554.087H862.954M810.434 606.607V659.127M810.434 606.607H862.954M810.434 659.127V711.647M810.434 659.127H862.954M810.434 711.647V764.167M810.434 711.647H862.954M810.434 764.167V816.687M810.434 764.167H862.954M810.434 816.687H862.954M862.954 -233.714V-181.194M862.954 -233.714H915.474M862.954 -181.194V-128.674M862.954 -181.194H915.474M862.954 -128.674V-76.1542M862.954 -128.674H915.474M862.954 -76.1542V-23.6341M862.954 -76.1542H915.474M862.954 -23.6341V28.8859M862.954 -23.6341H915.474M862.954 28.8859V81.406M862.954 28.8859H915.474M862.954 81.406V133.926M862.954 81.406H915.474M862.954 133.926V186.446M862.954 133.926H915.474M862.954 186.446V238.966M862.954 186.446H915.474M862.954 238.966V291.486M862.954 238.966H915.474M862.954 291.486V344.006M862.954 291.486H915.474M862.954 344.006V396.526M862.954 344.006H915.474M862.954 396.526V449.046M862.954 396.526H915.474M862.954 449.046V501.566M862.954 449.046H915.474M862.954 501.566V554.087M862.954 501.566H915.474M862.954 554.087V606.607M862.954 554.087H915.474M862.954 606.607V659.127M862.954 606.607H915.474M862.954 659.127V711.647M862.954 659.127H915.474M862.954 711.647V764.167M862.954 711.647H915.474M862.954 764.167V816.687M862.954 764.167H915.474M862.954 816.687H915.474M915.474 -233.714V-181.194M915.474 -233.714H967.994M915.474 -181.194V-128.674M915.474 -181.194H967.994M915.474 -128.674V-76.1542M915.474 -128.674H967.994M915.474 -76.1542V-23.6341M915.474 -76.1542H967.994M915.474 -23.6341V28.8859M915.474 -23.6341H967.994M915.474 28.8859V81.406M915.474 28.8859H967.994M915.474 81.406V133.926M915.474 81.406H967.994M915.474 133.926V186.446M915.474 133.926H967.994M915.474 186.446V238.966M915.474 186.446H967.994M915.474 238.966V291.486M915.474 238.966H967.994M915.474 291.486V344.006M915.474 291.486H967.994M915.474 344.006V396.526M915.474 344.006H967.994M915.474 396.526V449.046M915.474 396.526H967.994M915.474 449.046V501.566M915.474 449.046H967.994M915.474 501.566V554.087M915.474 501.566H967.994M915.474 554.087V606.607M915.474 554.087H967.994M915.474 606.607V659.127M915.474 606.607H967.994M915.474 659.127V711.647M915.474 659.127H967.994M915.474 711.647V764.167M915.474 711.647H967.994M915.474 764.167V816.687M915.474 764.167H967.994M915.474 816.687H967.994M967.994 -233.714V-181.194M967.994 -233.714H1020.51M967.994 -181.194V-128.674M967.994 -181.194H1020.51M967.994 -128.674V-76.1542M967.994 -128.674H1020.51M967.994 -76.1542V-23.6341M967.994 -76.1542H1020.51M967.994 -23.6341V28.8859M967.994 -23.6341H1020.51M967.994 28.8859V81.406M967.994 28.8859H1020.51M967.994 81.406V133.926M967.994 81.406H1020.51M967.994 133.926V186.446M967.994 133.926H1020.51M967.994 186.446V238.966M967.994 186.446H1020.51M967.994 238.966V291.486M967.994 238.966H1020.51M967.994 291.486V344.006M967.994 291.486H1020.51M967.994 344.006V396.526M967.994 344.006H1020.51M967.994 396.526V449.046M967.994 396.526H1020.51M967.994 449.046V501.566M967.994 449.046H1020.51M967.994 501.566V554.087M967.994 501.566H1020.51M967.994 554.087V606.607M967.994 554.087H1020.51M967.994 606.607V659.127M967.994 606.607H1020.51M967.994 659.127V711.647M967.994 659.127H1020.51M967.994 711.647V764.167M967.994 711.647H1020.51M967.994 764.167V816.687M967.994 764.167H1020.51M967.994 816.687H1020.51M1020.51 -233.714V-181.194M1020.51 -233.714H1073.03M1020.51 -181.194V-128.674M1020.51 -181.194H1073.03M1020.51 -128.674V-76.1542M1020.51 -128.674H1073.03M1020.51 -76.1542V-23.6341M1020.51 -76.1542H1073.03M1020.51 -23.6341V28.8859M1020.51 -23.6341H1073.03M1020.51 28.8859V81.406M1020.51 28.8859H1073.03M1020.51 81.406V133.926M1020.51 81.406H1073.03M1020.51 133.926V186.446M1020.51 133.926H1073.03M1020.51 186.446V238.966M1020.51 186.446H1073.03M1020.51 238.966V291.486M1020.51 238.966H1073.03M1020.51 291.486V344.006M1020.51 291.486H1073.03M1020.51 344.006V396.526M1020.51 344.006H1073.03M1020.51 396.526V449.046M1020.51 396.526H1073.03M1020.51 449.046V501.566M1020.51 449.046H1073.03M1020.51 501.566V554.087M1020.51 501.566H1073.03M1020.51 554.087V606.607M1020.51 554.087H1073.03M1020.51 606.607V659.127M1020.51 606.607H1073.03M1020.51 659.127V711.647M1020.51 659.127H1073.03M1020.51 711.647V764.167M1020.51 711.647H1073.03M1020.51 764.167V816.687M1020.51 764.167H1073.03M1020.51 816.687H1073.03M1073.03 -233.714V-181.194M1073.03 -233.714H1125.55M1073.03 -181.194V-128.674M1073.03 -181.194H1125.55M1073.03 -128.674V-76.1542M1073.03 -128.674H1125.55M1073.03 -76.1542V-23.6341M1073.03 -76.1542H1125.55M1073.03 -23.6341V28.8859M1073.03 -23.6341H1125.55M1073.03 28.8859V81.406M1073.03 28.8859H1125.55M1073.03 81.406V133.926M1073.03 81.406H1125.55M1073.03 133.926V186.446M1073.03 133.926H1125.55M1073.03 186.446V238.966M1073.03 186.446H1125.55M1073.03 238.966V291.486M1073.03 238.966H1125.55M1073.03 291.486V344.006M1073.03 291.486H1125.55M1073.03 344.006V396.526M1073.03 344.006H1125.55M1073.03 396.526V449.046M1073.03 396.526H1125.55M1073.03 449.046V501.566M1073.03 449.046H1125.55M1073.03 501.566V554.087M1073.03 501.566H1125.55M1073.03 554.087V606.607M1073.03 554.087H1125.55M1073.03 606.607V659.127M1073.03 606.607H1125.55M1073.03 659.127V711.647M1073.03 659.127H1125.55M1073.03 711.647V764.167M1073.03 711.647H1125.55M1073.03 764.167V816.687M1073.03 764.167H1125.55M1073.03 816.687H1125.55M1125.55 -233.714V-181.194M1125.55 -233.714H1178.07M1125.55 -181.194V-128.674M1125.55 -181.194H1178.07M1125.55 -128.674V-76.1542M1125.55 -128.674H1178.07M1125.55 -76.1542V-23.6341M1125.55 -76.1542H1178.07M1125.55 -23.6341V28.8859M1125.55 -23.6341H1178.07M1125.55 28.8859V81.406M1125.55 28.8859H1178.07M1125.55 81.406V133.926M1125.55 81.406H1178.07M1125.55 133.926V186.446M1125.55 133.926H1178.07M1125.55 186.446V238.966M1125.55 186.446H1178.07M1125.55 238.966V291.486M1125.55 238.966H1178.07M1125.55 291.486V344.006M1125.55 291.486H1178.07M1125.55 344.006V396.526M1125.55 344.006H1178.07M1125.55 396.526V449.046M1125.55 396.526H1178.07M1125.55 449.046V501.566M1125.55 449.046H1178.07M1125.55 501.566V554.087M1125.55 501.566H1178.07M1125.55 554.087V606.607M1125.55 554.087H1178.07M1125.55 606.607V659.127M1125.55 606.607H1178.07M1125.55 659.127V711.647M1125.55 659.127H1178.07M1125.55 711.647V764.167M1125.55 711.647H1178.07M1125.55 764.167V816.687M1125.55 764.167H1178.07M1125.55 816.687H1178.07M1178.07 -233.714V-181.194M1178.07 -233.714H1230.59M1178.07 -181.194V-128.674M1178.07 -181.194H1230.59M1178.07 -128.674V-76.1542M1178.07 -128.674H1230.59M1178.07 -76.1542V-23.6341M1178.07 -76.1542H1230.59M1178.07 -23.6341V28.8859M1178.07 -23.6341H1230.59M1178.07 28.8859V81.406M1178.07 28.8859H1230.59M1178.07 81.406V133.926M1178.07 81.406H1230.59M1178.07 133.926V186.446M1178.07 133.926H1230.59M1178.07 186.446V238.966M1178.07 186.446H1230.59M1178.07 238.966V291.486M1178.07 238.966H1230.59M1178.07 291.486V344.006M1178.07 291.486H1230.59M1178.07 344.006V396.526M1178.07 344.006H1230.59M1178.07 396.526V449.046M1178.07 396.526H1230.59M1178.07 449.046V501.566M1178.07 449.046H1230.59M1178.07 501.566V554.087M1178.07 501.566H1230.59M1178.07 554.087V606.607M1178.07 554.087H1230.59M1178.07 606.607V659.127M1178.07 606.607H1230.59M1178.07 659.127V711.647M1178.07 659.127H1230.59M1178.07 711.647V764.167M1178.07 711.647H1230.59M1178.07 764.167V816.687M1178.07 764.167H1230.59M1178.07 816.687H1230.59M1230.59 -233.714V-181.194M1230.59 -233.714H1283.11M1230.59 -181.194V-128.674M1230.59 -181.194H1283.11M1230.59 -128.674V-76.1542M1230.59 -128.674H1283.11M1230.59 -76.1542V-23.6341M1230.59 -76.1542H1283.11M1230.59 -23.6341V28.8859M1230.59 -23.6341H1283.11M1230.59 28.8859V81.406M1230.59 28.8859H1283.11M1230.59 81.406V133.926M1230.59 81.406H1283.11M1230.59 133.926V186.446M1230.59 133.926H1283.11M1230.59 186.446V238.966M1230.59 186.446H1283.11M1230.59 238.966V291.486M1230.59 238.966H1283.11M1230.59 291.486V344.006M1230.59 291.486H1283.11M1230.59 344.006V396.526M1230.59 344.006H1283.11M1230.59 396.526V449.046M1230.59 396.526H1283.11M1230.59 449.046V501.566M1230.59 449.046H1283.11M1230.59 501.566V554.087M1230.59 501.566H1283.11M1230.59 554.087V606.607M1230.59 554.087H1283.11M1230.59 606.607V659.127M1230.59 606.607H1283.11M1230.59 659.127V711.647M1230.59 659.127H1283.11M1230.59 711.647V764.167M1230.59 711.647H1283.11M1230.59 764.167V816.687M1230.59 764.167H1283.11M1230.59 816.687H1283.11M1283.11 -233.714V-181.194M1283.11 -233.714H1335.63M1283.11 -181.194V-128.674M1283.11 -181.194H1335.63M1283.11 -128.674V-76.1542M1283.11 -128.674H1335.63M1283.11 -76.1542V-23.6341M1283.11 -76.1542H1335.63M1283.11 -23.6341V28.8859M1283.11 -23.6341H1335.63M1283.11 28.8859V81.406M1283.11 28.8859H1335.63M1283.11 81.406V133.926M1283.11 81.406H1335.63M1283.11 133.926V186.446M1283.11 133.926H1335.63M1283.11 186.446V238.966M1283.11 186.446H1335.63M1283.11 238.966V291.486M1283.11 238.966H1335.63M1283.11 291.486V344.006M1283.11 291.486H1335.63M1283.11 344.006V396.526M1283.11 344.006H1335.63M1283.11 396.526V449.046M1283.11 396.526H1335.63M1283.11 449.046V501.566M1283.11 449.046H1335.63M1283.11 501.566V554.087M1283.11 501.566H1335.63M1283.11 554.087V606.607M1283.11 554.087H1335.63M1283.11 606.607V659.127M1283.11 606.607H1335.63M1283.11 659.127V711.647M1283.11 659.127H1335.63M1283.11 711.647V764.167M1283.11 711.647H1335.63M1283.11 764.167V816.687M1283.11 764.167H1335.63M1283.11 816.687H1335.63M1335.63 -233.714V-181.194M1335.63 -233.714H1388.15M1335.63 -181.194V-128.674M1335.63 -181.194H1388.15M1335.63 -128.674V-76.1542M1335.63 -128.674H1388.15M1335.63 -76.1542V-23.6341M1335.63 -76.1542H1388.15M1335.63 -23.6341V28.8859M1335.63 -23.6341H1388.15M1335.63 28.8859V81.406M1335.63 28.8859H1388.15M1335.63 81.406V133.926M1335.63 81.406H1388.15M1335.63 133.926V186.446M1335.63 133.926H1388.15M1335.63 186.446V238.966M1335.63 186.446H1388.15M1335.63 238.966V291.486M1335.63 238.966H1388.15M1335.63 291.486V344.006M1335.63 291.486H1388.15M1335.63 344.006V396.526M1335.63 344.006H1388.15M1335.63 396.526V449.046M1335.63 396.526H1388.15M1335.63 449.046V501.566M1335.63 449.046H1388.15M1335.63 501.566V554.087M1335.63 501.566H1388.15M1335.63 554.087V606.607M1335.63 554.087H1388.15M1335.63 606.607V659.127M1335.63 606.607H1388.15M1335.63 659.127V711.647M1335.63 659.127H1388.15M1335.63 711.647V764.167M1335.63 711.647H1388.15M1335.63 764.167V816.687M1335.63 764.167H1388.15M1335.63 816.687H1388.15M1388.15 -233.714V-181.194M1388.15 -233.714H1440.67M1388.15 -181.194V-128.674M1388.15 -181.194H1440.67M1388.15 -128.674V-76.1542M1388.15 -128.674H1440.67M1388.15 -76.1542V-23.6341M1388.15 -76.1542H1440.67M1388.15 -23.6341V28.8859M1388.15 -23.6341H1440.67M1388.15 28.8859V81.406M1388.15 28.8859H1440.67M1388.15 81.406V133.926M1388.15 81.406H1440.67M1388.15 133.926V186.446M1388.15 133.926H1440.67M1388.15 186.446V238.966M1388.15 186.446H1440.67M1388.15 238.966V291.486M1388.15 238.966H1440.67M1388.15 291.486V344.006M1388.15 291.486H1440.67M1388.15 344.006V396.526M1388.15 344.006H1440.67M1388.15 396.526V449.046M1388.15 396.526H1440.67M1388.15 449.046V501.566M1388.15 449.046H1440.67M1388.15 501.566V554.087M1388.15 501.566H1440.67M1388.15 554.087V606.607M1388.15 554.087H1440.67M1388.15 606.607V659.127M1388.15 606.607H1440.67M1388.15 659.127V711.647M1388.15 659.127H1440.67M1388.15 711.647V764.167M1388.15 711.647H1440.67M1388.15 764.167V816.687M1388.15 764.167H1440.67M1388.15 816.687H1440.67M1440.67 -233.714V-181.194M1440.67 -233.714H1493.19M1440.67 -181.194V-128.674M1440.67 -181.194H1493.19M1440.67 -128.674V-76.1542M1440.67 -128.674H1493.19M1440.67 -76.1542V-23.6341M1440.67 -76.1542H1493.19M1440.67 -23.6341V28.8859M1440.67 -23.6341H1493.19M1440.67 28.8859V81.406M1440.67 28.8859H1493.19M1440.67 81.406V133.926M1440.67 81.406H1493.19M1440.67 133.926V186.446M1440.67 133.926H1493.19M1440.67 186.446V238.966M1440.67 186.446H1493.19M1440.67 238.966V291.486M1440.67 238.966H1493.19M1440.67 291.486V344.006M1440.67 291.486H1493.19M1440.67 344.006V396.526M1440.67 344.006H1493.19M1440.67 396.526V449.046M1440.67 396.526H1493.19M1440.67 449.046V501.566M1440.67 449.046H1493.19M1440.67 501.566V554.087M1440.67 501.566H1493.19M1440.67 554.087V606.607M1440.67 554.087H1493.19M1440.67 606.607V659.127M1440.67 606.607H1493.19M1440.67 659.127V711.647M1440.67 659.127H1493.19M1440.67 711.647V764.167M1440.67 711.647H1493.19M1440.67 764.167V816.687M1440.67 764.167H1493.19M1440.67 816.687H1493.19M1493.19 -233.714V-181.194M1493.19 -233.714H1545.71M1493.19 -181.194V-128.674M1493.19 -181.194H1545.71M1493.19 -128.674V-76.1542M1493.19 -128.674H1545.71M1493.19 -76.1542V-23.6341M1493.19 -76.1542H1545.71M1493.19 -23.6341V28.8859M1493.19 -23.6341H1545.71M1493.19 28.8859V81.406M1493.19 28.8859H1545.71M1493.19 81.406V133.926M1493.19 81.406H1545.71M1493.19 133.926V186.446M1493.19 133.926H1545.71M1493.19 186.446V238.966M1493.19 186.446H1545.71M1493.19 238.966V291.486M1493.19 238.966H1545.71M1493.19 291.486V344.006M1493.19 291.486H1545.71M1493.19 344.006V396.526M1493.19 344.006H1545.71M1493.19 396.526V449.046M1493.19 396.526H1545.71M1493.19 449.046V501.566M1493.19 449.046H1545.71M1493.19 501.566V554.087M1493.19 501.566H1545.71M1493.19 554.087V606.607M1493.19 554.087H1545.71M1493.19 606.607V659.127M1493.19 606.607H1545.71M1493.19 659.127V711.647M1493.19 659.127H1545.71M1493.19 711.647V764.167M1493.19 711.647H1545.71M1493.19 764.167V816.687M1493.19 764.167H1545.71M1493.19 816.687H1545.71M1545.71 -233.714V-181.194M1545.71 -233.714H1598.23M1545.71 -181.194V-128.674M1545.71 -181.194H1598.23M1545.71 -128.674V-76.1542M1545.71 -128.674H1598.23M1545.71 -76.1542V-23.6341M1545.71 -76.1542H1598.23M1545.71 -23.6341V28.8859M1545.71 -23.6341H1598.23M1545.71 28.8859V81.406M1545.71 28.8859H1598.23M1545.71 81.406V133.926M1545.71 81.406H1598.23M1545.71 133.926V186.446M1545.71 133.926H1598.23M1545.71 186.446V238.966M1545.71 186.446H1598.23M1545.71 238.966V291.486M1545.71 238.966H1598.23M1545.71 291.486V344.006M1545.71 291.486H1598.23M1545.71 344.006V396.526M1545.71 344.006H1598.23M1545.71 396.526V449.046M1545.71 396.526H1598.23M1545.71 449.046V501.566M1545.71 449.046H1598.23M1545.71 501.566V554.087M1545.71 501.566H1598.23M1545.71 554.087V606.607M1545.71 554.087H1598.23M1545.71 606.607V659.127M1545.71 606.607H1598.23M1545.71 659.127V711.647M1545.71 659.127H1598.23M1545.71 711.647V764.167M1545.71 711.647H1598.23M1545.71 764.167V816.687M1545.71 764.167H1598.23M1545.71 816.687H1598.23M1598.23 -233.714V-181.194M1598.23 -233.714H1650.75M1598.23 -181.194V-128.674M1598.23 -181.194H1650.75M1598.23 -128.674V-76.1542M1598.23 -128.674H1650.75M1598.23 -76.1542V-23.6341M1598.23 -76.1542H1650.75M1598.23 -23.6341V28.8859M1598.23 -23.6341H1650.75M1598.23 28.8859V81.406M1598.23 28.8859H1650.75M1598.23 81.406V133.926M1598.23 81.406H1650.75M1598.23 133.926V186.446M1598.23 133.926H1650.75M1598.23 186.446V238.966M1598.23 186.446H1650.75M1598.23 238.966V291.486M1598.23 238.966H1650.75M1598.23 291.486V344.006M1598.23 291.486H1650.75M1598.23 344.006V396.526M1598.23 344.006H1650.75M1598.23 396.526V449.046M1598.23 396.526H1650.75M1598.23 449.046V501.566M1598.23 449.046H1650.75M1598.23 501.566V554.087M1598.23 501.566H1650.75M1598.23 554.087V606.607M1598.23 554.087H1650.75M1598.23 606.607V659.127M1598.23 606.607H1650.75M1598.23 659.127V711.647M1598.23 659.127H1650.75M1598.23 711.647V764.167M1598.23 711.647H1650.75M1598.23 764.167V816.687M1598.23 764.167H1650.75M1598.23 816.687H1650.75M1650.75 -233.714V-181.194M1650.75 -233.714H1703.27M1650.75 -181.194V-128.674M1650.75 -181.194H1703.27M1650.75 -128.674V-76.1542M1650.75 -128.674H1703.27M1650.75 -76.1542V-23.6341M1650.75 -76.1542H1703.27M1650.75 -23.6341V28.8859M1650.75 -23.6341H1703.27M1650.75 28.8859V81.406M1650.75 28.8859H1703.27M1650.75 81.406V133.926M1650.75 81.406H1703.27M1650.75 133.926V186.446M1650.75 133.926H1703.27M1650.75 186.446V238.966M1650.75 186.446H1703.27M1650.75 238.966V291.486M1650.75 238.966H1703.27M1650.75 291.486V344.006M1650.75 291.486H1703.27M1650.75 344.006V396.526M1650.75 344.006H1703.27M1650.75 396.526V449.046M1650.75 396.526H1703.27M1650.75 449.046V501.566M1650.75 449.046H1703.27M1650.75 501.566V554.087M1650.75 501.566H1703.27M1650.75 554.087V606.607M1650.75 554.087H1703.27M1650.75 606.607V659.127M1650.75 606.607H1703.27M1650.75 659.127V711.647M1650.75 659.127H1703.27M1650.75 711.647V764.167M1650.75 711.647H1703.27M1650.75 764.167V816.687M1650.75 764.167H1703.27M1650.75 816.687H1703.27M1703.27 -233.714V-181.194M1703.27 -233.714H1755.79V-181.194M1703.27 -181.194V-128.674M1703.27 -181.194H1755.79M1703.27 -128.674V-76.1542M1703.27 -128.674H1755.79M1703.27 -76.1542V-23.6341M1703.27 -76.1542H1755.79M1703.27 -23.6341V28.8859M1703.27 -23.6341H1755.79M1703.27 28.8859V81.406M1703.27 28.8859H1755.79M1703.27 81.406V133.926M1703.27 81.406H1755.79M1703.27 133.926V186.446M1703.27 133.926H1755.79M1703.27 186.446V238.966M1703.27 186.446H1755.79M1703.27 238.966V291.486M1703.27 238.966H1755.79M1703.27 291.486V344.006M1703.27 291.486H1755.79M1703.27 344.006V396.526M1703.27 344.006H1755.79M1703.27 396.526V449.046M1703.27 396.526H1755.79M1703.27 449.046V501.566M1703.27 449.046H1755.79M1703.27 501.566V554.087M1703.27 501.566H1755.79M1703.27 554.087V606.607M1703.27 554.087H1755.79M1703.27 606.607V659.127M1703.27 606.607H1755.79M1703.27 659.127V711.647M1703.27 659.127H1755.79M1703.27 711.647V764.167M1703.27 711.647H1755.79M1703.27 764.167V816.687M1703.27 764.167H1755.79M1703.27 816.687H1755.79V764.167M1755.79 -181.194V-128.674M1755.79 -128.674V-76.1542M1755.79 -76.1542V-23.6341M1755.79 -23.6341V28.8859M1755.79 28.8859V81.406M1755.79 81.406V133.926M1755.79 133.926V186.446M1755.79 186.446V238.966M1755.79 238.966V291.486M1755.79 291.486V344.006M1755.79 344.006V396.526M1755.79 396.526V449.046M1755.79 449.046V501.566M1755.79 501.566V554.087M1755.79 554.087V606.607M1755.79 606.607V659.127M1755.79 659.127V711.647M1755.79 711.647V764.167" stroke="url(#paint0_radial_1452_177)" stroke-opacity="0.1" stroke-width="0.656501"/>
<g style="mix-blend-mode:multiply">
<path d="M23.9444 449.047C23.9444 449.771 23.3561 450.36 22.6314 450.36C21.9066 450.36 21.3184 449.771 21.3184 449.047C21.3184 448.322 21.9066 447.734 22.6314 447.734C23.3561 447.734 23.9444 448.322 23.9444 449.047Z" fill="#108000" fill-opacity="0.2"/>
<path d="M23.9444 501.567C23.9444 502.291 23.3561 502.88 22.6314 502.88C21.9066 502.88 21.3184 502.291 21.3184 501.567C21.3184 500.842 21.9066 500.254 22.6314 500.254C23.3561 500.254 23.9444 500.842 23.9444 501.567Z" fill="#108000" fill-opacity="0.2"/>
<path d="M23.9444 554.086C23.9444 554.811 23.3561 555.399 22.6314 555.399C21.9066 555.399 21.3184 554.811 21.3184 554.086C21.3184 553.362 21.9066 552.773 22.6314 552.773C23.3561 552.773 23.9444 553.362 23.9444 554.086Z" fill="#108000" fill-opacity="0.2"/>
<path d="M23.9444 606.607C23.9444 607.331 23.3561 607.92 22.6314 607.92C21.9066 607.92 21.3184 607.331 21.3184 606.607C21.3184 605.882 21.9066 605.294 22.6314 605.294C23.3561 605.294 23.9444 605.882 23.9444 606.607Z" fill="#108000" fill-opacity="0.2"/>
<path d="M76.4639 449.046C76.4639 449.771 75.8757 450.359 75.1509 450.359C74.4261 450.359 73.8379 449.771 73.8379 449.046C73.8379 448.322 74.4261 447.733 75.1509 447.733C75.8757 447.733 76.4639 448.322 76.4639 449.046Z" fill="#108000" fill-opacity="0.2"/>
<path d="M76.4639 501.566C76.4639 502.291 75.8757 502.879 75.1509 502.879C74.4261 502.879 73.8379 502.291 73.8379 501.566C73.8379 500.842 74.4261 500.253 75.1509 500.253C75.8757 500.253 76.4639 500.842 76.4639 501.566Z" fill="#108000" fill-opacity="0.2"/>
<path d="M76.4639 554.086C76.4639 554.811 75.8757 555.399 75.1509 555.399C74.4261 555.399 73.8379 554.811 73.8379 554.086C73.8379 553.362 74.4261 552.773 75.1509 552.773C75.8757 552.773 76.4639 553.362 76.4639 554.086Z" fill="#108000" fill-opacity="0.2"/>
<path d="M76.4639 606.607C76.4639 607.332 75.8757 607.92 75.1509 607.92C74.4261 607.92 73.8379 607.332 73.8379 606.607C73.8379 605.882 74.4261 605.294 75.1509 605.294C75.8757 605.294 76.4639 605.882 76.4639 606.607Z" fill="#108000" fill-opacity="0.2"/>
<path d="M128.985 449.046C128.985 449.771 128.397 450.359 127.672 450.359C126.948 450.359 126.359 449.771 126.359 449.046C126.359 448.322 126.948 447.733 127.672 447.733C128.397 447.733 128.985 448.322 128.985 449.046Z" fill="#108000" fill-opacity="0.2"/>
<path d="M128.985 501.566C128.985 502.291 128.397 502.879 127.672 502.879C126.948 502.879 126.359 502.291 126.359 501.566C126.359 500.842 126.948 500.253 127.672 500.253C128.397 500.253 128.985 500.842 128.985 501.566Z" fill="#108000" fill-opacity="0.2"/>
<path d="M128.985 554.086C128.985 554.811 128.397 555.399 127.672 555.399C126.948 555.399 126.359 554.811 126.359 554.086C126.359 553.362 126.948 552.773 127.672 552.773C128.397 552.773 128.985 553.362 128.985 554.086Z" fill="#108000" fill-opacity="0.2"/>
<path d="M128.985 606.607C128.985 607.332 128.397 607.92 127.672 607.92C126.948 607.92 126.359 607.332 126.359 606.607C126.359 605.882 126.948 605.294 127.672 605.294C128.397 605.294 128.985 605.882 128.985 606.607Z" fill="#108000" fill-opacity="0.2"/>
<path d="M181.505 449.047C181.505 449.771 180.917 450.36 180.192 450.36C179.467 450.36 178.879 449.771 178.879 449.047C178.879 448.322 179.467 447.734 180.192 447.734C180.917 447.734 181.505 448.322 181.505 449.047Z" fill="#108000" fill-opacity="0.2"/>
<path d="M181.505 501.567C181.505 502.291 180.917 502.88 180.192 502.88C179.467 502.88 178.879 502.291 178.879 501.567C178.879 500.842 179.467 500.254 180.192 500.254C180.917 500.254 181.505 500.842 181.505 501.567Z" fill="#108000" fill-opacity="0.2"/>
<path d="M181.505 554.086C181.505 554.811 180.917 555.399 180.192 555.399C179.467 555.399 178.879 554.811 178.879 554.086C178.879 553.362 179.467 552.773 180.192 552.773C180.917 552.773 181.505 553.362 181.505 554.086Z" fill="#108000" fill-opacity="0.2"/>
<path d="M181.505 606.607C181.505 607.331 180.917 607.92 180.192 607.92C179.467 607.92 178.879 607.331 178.879 606.607C178.879 605.882 179.467 605.294 180.192 605.294C180.917 605.294 181.505 605.882 181.505 606.607Z" fill="#108000" fill-opacity="0.2"/>
<path d="M234.024 449.046C234.024 449.771 233.436 450.359 232.711 450.359C231.987 450.359 231.398 449.771 231.398 449.046C231.398 448.322 231.987 447.733 232.711 447.733C233.436 447.733 234.024 448.322 234.024 449.046Z" fill="#108000" fill-opacity="0.2"/>
<path d="M234.024 501.566C234.024 502.291 233.436 502.879 232.711 502.879C231.987 502.879 231.398 502.291 231.398 501.566C231.398 500.842 231.987 500.253 232.711 500.253C233.436 500.253 234.024 500.842 234.024 501.566Z" fill="#108000" fill-opacity="0.2"/>
<path d="M234.024 554.086C234.024 554.811 233.436 555.399 232.711 555.399C231.987 555.399 231.398 554.811 231.398 554.086C231.398 553.362 231.987 552.773 232.711 552.773C233.436 552.773 234.024 553.362 234.024 554.086Z" fill="#108000" fill-opacity="0.2"/>
<path d="M234.024 606.607C234.024 607.332 233.436 607.92 232.711 607.92C231.987 607.92 231.398 607.332 231.398 606.607C231.398 605.882 231.987 605.294 232.711 605.294C233.436 605.294 234.024 605.882 234.024 606.607Z" fill="#108000" fill-opacity="0.2"/>
<path d="M286.544 449.046C286.544 449.771 285.956 450.359 285.231 450.359C284.506 450.359 283.918 449.771 283.918 449.046C283.918 448.322 284.506 447.733 285.231 447.733C285.956 447.733 286.544 448.322 286.544 449.046Z" fill="#108000" fill-opacity="0.2"/>
<path d="M286.544 501.566C286.544 502.291 285.956 502.879 285.231 502.879C284.506 502.879 283.918 502.291 283.918 501.566C283.918 500.842 284.506 500.253 285.231 500.253C285.956 500.253 286.544 500.842 286.544 501.566Z" fill="#108000" fill-opacity="0.2"/>
<path d="M286.544 554.086C286.544 554.811 285.956 555.399 285.231 555.399C284.506 555.399 283.918 554.811 283.918 554.086C283.918 553.362 284.506 552.773 285.231 552.773C285.956 552.773 286.544 553.362 286.544 554.086Z" fill="#108000" fill-opacity="0.2"/>
<path d="M286.544 606.607C286.544 607.332 285.956 607.92 285.231 607.92C284.506 607.92 283.918 607.332 283.918 606.607C283.918 605.882 284.506 605.294 285.231 605.294C285.956 605.294 286.544 605.882 286.544 606.607Z" fill="#108000" fill-opacity="0.2"/>
<path d="M339.065 449.046C339.065 449.771 338.477 450.359 337.752 450.359C337.028 450.359 336.439 449.771 336.439 449.046C336.439 448.322 337.028 447.733 337.752 447.733C338.477 447.733 339.065 448.322 339.065 449.046Z" fill="#108000" fill-opacity="0.2"/>
<path d="M339.065 501.566C339.065 502.291 338.477 502.879 337.752 502.879C337.028 502.879 336.439 502.291 336.439 501.566C336.439 500.842 337.028 500.253 337.752 500.253C338.477 500.253 339.065 500.842 339.065 501.566Z" fill="#108000" fill-opacity="0.2"/>
<path d="M339.065 554.086C339.065 554.811 338.477 555.399 337.752 555.399C337.028 555.399 336.439 554.811 336.439 554.086C336.439 553.362 337.028 552.773 337.752 552.773C338.477 552.773 339.065 553.362 339.065 554.086Z" fill="#108000" fill-opacity="0.2"/>
<path d="M339.065 606.607C339.065 607.332 338.477 607.92 337.752 607.92C337.028 607.92 336.439 607.332 336.439 606.607C336.439 605.882 337.028 605.294 337.752 605.294C338.477 605.294 339.065 605.882 339.065 606.607Z" fill="#108000" fill-opacity="0.2"/>
<path d="M391.585 449.047C391.585 449.771 390.997 450.36 390.272 450.36C389.547 450.36 388.959 449.771 388.959 449.047C388.959 448.322 389.547 447.734 390.272 447.734C390.997 447.734 391.585 448.322 391.585 449.047Z" fill="#108000" fill-opacity="0.2"/>
<path d="M391.585 501.567C391.585 502.291 390.997 502.88 390.272 502.88C389.547 502.88 388.959 502.291 388.959 501.567C388.959 500.842 389.547 500.254 390.272 500.254C390.997 500.254 391.585 500.842 391.585 501.567Z" fill="#108000" fill-opacity="0.2"/>
<path d="M391.585 554.086C391.585 554.811 390.997 555.399 390.272 555.399C389.547 555.399 388.959 554.811 388.959 554.086C388.959 553.362 389.547 552.773 390.272 552.773C390.997 552.773 391.585 553.362 391.585 554.086Z" fill="#108000" fill-opacity="0.2"/>
<path d="M391.585 606.607C391.585 607.331 390.997 607.92 390.272 607.92C389.547 607.92 388.959 607.331 388.959 606.607C388.959 605.882 389.547 605.294 390.272 605.294C390.997 605.294 391.585 605.882 391.585 606.607Z" fill="#108000" fill-opacity="0.2"/>
<path d="M444.105 449.046C444.105 449.771 443.516 450.359 442.792 450.359C442.067 450.359 441.479 449.771 441.479 449.046C441.479 448.322 442.067 447.733 442.792 447.733C443.516 447.733 444.105 448.322 444.105 449.046Z" fill="#108000" fill-opacity="0.2"/>
<path d="M444.105 501.566C444.105 502.291 443.516 502.879 442.792 502.879C442.067 502.879 441.479 502.291 441.479 501.566C441.479 500.842 442.067 500.253 442.792 500.253C443.516 500.253 444.105 500.842 444.105 501.566Z" fill="#108000" fill-opacity="0.2"/>
<path d="M444.105 554.086C444.105 554.811 443.516 555.399 442.792 555.399C442.067 555.399 441.479 554.811 441.479 554.086C441.479 553.362 442.067 552.773 442.792 552.773C443.516 552.773 444.105 553.362 444.105 554.086Z" fill="#108000" fill-opacity="0.2"/>
<path d="M444.105 606.607C444.105 607.332 443.516 607.92 442.792 607.92C442.067 607.92 441.479 607.332 441.479 606.607C441.479 605.882 442.067 605.294 442.792 605.294C443.516 605.294 444.105 605.882 444.105 606.607Z" fill="#108000" fill-opacity="0.2"/>
<path d="M496.626 449.046C496.626 449.771 496.038 450.359 495.313 450.359C494.588 450.359 494 449.771 494 449.046C494 448.322 494.588 447.733 495.313 447.733C496.038 447.733 496.626 448.322 496.626 449.046Z" fill="#108000" fill-opacity="0.2"/>
<path d="M496.626 501.566C496.626 502.291 496.038 502.879 495.313 502.879C494.588 502.879 494 502.291 494 501.566C494 500.842 494.588 500.253 495.313 500.253C496.038 500.253 496.626 500.842 496.626 501.566Z" fill="#108000" fill-opacity="0.2"/>
<path d="M496.626 554.086C496.626 554.811 496.038 555.399 495.313 555.399C494.588 555.399 494 554.811 494 554.086C494 553.362 494.588 552.773 495.313 552.773C496.038 552.773 496.626 553.362 496.626 554.086Z" fill="#108000" fill-opacity="0.2"/>
<path d="M496.626 606.607C496.626 607.332 496.038 607.92 495.313 607.92C494.588 607.92 494 607.332 494 606.607C494 605.882 494.588 605.294 495.313 605.294C496.038 605.294 496.626 605.882 496.626 606.607Z" fill="#108000" fill-opacity="0.2"/>
<path d="M549.146 449.046C549.146 449.771 548.557 450.359 547.833 450.359C547.108 450.359 546.52 449.771 546.52 449.046C546.52 448.322 547.108 447.733 547.833 447.733C548.557 447.733 549.146 448.322 549.146 449.046Z" fill="#108000" fill-opacity="0.2"/>
<path d="M549.146 501.566C549.146 502.291 548.557 502.879 547.833 502.879C547.108 502.879 546.52 502.291 546.52 501.566C546.52 500.842 547.108 500.253 547.833 500.253C548.557 500.253 549.146 500.842 549.146 501.566Z" fill="#108000" fill-opacity="0.2"/>
<path d="M549.146 554.086C549.146 554.811 548.557 555.399 547.833 555.399C547.108 555.399 546.52 554.811 546.52 554.086C546.52 553.362 547.108 552.773 547.833 552.773C548.557 552.773 549.146 553.362 549.146 554.086Z" fill="#108000" fill-opacity="0.2"/>
<path d="M549.146 606.607C549.146 607.332 548.557 607.92 547.833 607.92C547.108 607.92 546.52 607.332 546.52 606.607C546.52 605.882 547.108 605.294 547.833 605.294C548.557 605.294 549.146 605.882 549.146 606.607Z" fill="#108000" fill-opacity="0.2"/>
<path d="M601.665 449.046C601.665 449.771 601.077 450.359 600.352 450.359C599.627 450.359 599.039 449.771 599.039 449.046C599.039 448.322 599.627 447.733 600.352 447.733C601.077 447.733 601.665 448.322 601.665 449.046Z" fill="#108000" fill-opacity="0.2"/>
<path d="M601.665 501.567C601.665 502.292 601.077 502.88 600.352 502.88C599.627 502.88 599.039 502.292 599.039 501.567C599.039 500.842 599.627 500.254 600.352 500.254C601.077 500.254 601.665 500.842 601.665 501.567Z" fill="#108000" fill-opacity="0.2"/>
<path d="M601.665 554.086C601.665 554.811 601.077 555.399 600.352 555.399C599.627 555.399 599.039 554.811 599.039 554.086C599.039 553.362 599.627 552.773 600.352 552.773C601.077 552.773 601.665 553.362 601.665 554.086Z" fill="#108000" fill-opacity="0.2"/>
<path d="M601.665 606.607C601.665 607.332 601.077 607.92 600.352 607.92C599.627 607.92 599.039 607.332 599.039 606.607C599.039 605.882 599.627 605.294 600.352 605.294C601.077 605.294 601.665 605.882 601.665 606.607Z" fill="#108000" fill-opacity="0.2"/>
<path d="M654.185 449.046C654.185 449.771 653.596 450.359 652.872 450.359C652.147 450.359 651.559 449.771 651.559 449.046C651.559 448.322 652.147 447.733 652.872 447.733C653.596 447.733 654.185 448.322 654.185 449.046Z" fill="#108000" fill-opacity="0.2"/>
<path d="M654.185 501.566C654.185 502.291 653.596 502.879 652.872 502.879C652.147 502.879 651.559 502.291 651.559 501.566C651.559 500.842 652.147 500.253 652.872 500.253C653.596 500.253 654.185 500.842 654.185 501.566Z" fill="#108000" fill-opacity="0.2"/>
<path d="M654.185 554.086C654.185 554.811 653.596 555.399 652.872 555.399C652.147 555.399 651.559 554.811 651.559 554.086C651.559 553.362 652.147 552.773 652.872 552.773C653.596 552.773 654.185 553.362 654.185 554.086Z" fill="#108000" fill-opacity="0.2"/>
<path d="M654.185 606.607C654.185 607.332 653.596 607.92 652.872 607.92C652.147 607.92 651.559 607.332 651.559 606.607C651.559 605.882 652.147 605.294 652.872 605.294C653.596 605.294 654.185 605.882 654.185 606.607Z" fill="#108000" fill-opacity="0.2"/>
<path d="M706.706 449.046C706.706 449.771 706.118 450.359 705.393 450.359C704.668 450.359 704.08 449.771 704.08 449.046C704.08 448.322 704.668 447.733 705.393 447.733C706.118 447.733 706.706 448.322 706.706 449.046Z" fill="#108000" fill-opacity="0.2"/>
<path d="M706.706 501.566C706.706 502.291 706.118 502.879 705.393 502.879C704.668 502.879 704.08 502.291 704.08 501.566C704.08 500.842 704.668 500.253 705.393 500.253C706.118 500.253 706.706 500.842 706.706 501.566Z" fill="#108000" fill-opacity="0.2"/>
<path d="M706.706 554.086C706.706 554.811 706.118 555.399 705.393 555.399C704.668 555.399 704.08 554.811 704.08 554.086C704.08 553.362 704.668 552.773 705.393 552.773C706.118 552.773 706.706 553.362 706.706 554.086Z" fill="#108000" fill-opacity="0.2"/>
<path d="M706.706 606.607C706.706 607.332 706.118 607.92 705.393 607.92C704.668 607.92 704.08 607.332 704.08 606.607C704.08 605.882 704.668 605.294 705.393 605.294C706.118 605.294 706.706 605.882 706.706 606.607Z" fill="#108000" fill-opacity="0.2"/>
<path d="M759.226 449.047C759.226 449.771 758.637 450.36 757.913 450.36C757.188 450.36 756.6 449.771 756.6 449.047C756.6 448.322 757.188 447.734 757.913 447.734C758.637 447.734 759.226 448.322 759.226 449.047Z" fill="#108000" fill-opacity="0.2"/>
<path d="M759.226 501.567C759.226 502.291 758.637 502.88 757.913 502.88C757.188 502.88 756.6 502.291 756.6 501.567C756.6 500.842 757.188 500.254 757.913 500.254C758.637 500.254 759.226 500.842 759.226 501.567Z" fill="#108000" fill-opacity="0.2"/>
<path d="M759.226 554.086C759.226 554.811 758.637 555.399 757.913 555.399C757.188 555.399 756.6 554.811 756.6 554.086C756.6 553.362 757.188 552.773 757.913 552.773C758.637 552.773 759.226 553.362 759.226 554.086Z" fill="#108000" fill-opacity="0.2"/>
<path d="M759.226 606.607C759.226 607.331 758.637 607.92 757.913 607.92C757.188 607.92 756.6 607.331 756.6 606.607C756.6 605.882 757.188 605.294 757.913 605.294C758.637 605.294 759.226 605.882 759.226 606.607Z" fill="#108000" fill-opacity="0.2"/>
<path d="M811.745 449.046C811.745 449.771 811.157 450.359 810.432 450.359C809.707 450.359 809.119 449.771 809.119 449.046C809.119 448.322 809.707 447.733 810.432 447.733C811.157 447.733 811.745 448.322 811.745 449.046Z" fill="#108000" fill-opacity="0.2"/>
<path d="M811.745 501.566C811.745 502.291 811.157 502.879 810.432 502.879C809.707 502.879 809.119 502.291 809.119 501.566C809.119 500.842 809.707 500.253 810.432 500.253C811.157 500.253 811.745 500.842 811.745 501.566Z" fill="#108000" fill-opacity="0.2"/>
<path d="M811.745 554.086C811.745 554.811 811.157 555.399 810.432 555.399C809.707 555.399 809.119 554.811 809.119 554.086C809.119 553.362 809.707 552.773 810.432 552.773C811.157 552.773 811.745 553.362 811.745 554.086Z" fill="#108000" fill-opacity="0.2"/>
<path d="M811.745 606.607C811.745 607.332 811.157 607.92 810.432 607.92C809.707 607.92 809.119 607.332 809.119 606.607C809.119 605.882 809.707 605.294 810.432 605.294C811.157 605.294 811.745 605.882 811.745 606.607Z" fill="#108000" fill-opacity="0.2"/>
<path d="M1176.76 449.047C1176.76 449.771 1177.35 450.36 1178.07 450.36C1178.79 450.36 1179.39 449.771 1179.39 449.047C1179.39 448.322 1178.79 447.734 1178.07 447.734C1177.35 447.734 1176.76 448.322 1176.76 449.047Z" fill="#108000" fill-opacity="0.2"/>
<path d="M1176.76 501.567C1176.76 502.291 1177.35 502.88 1178.07 502.88C1178.79 502.88 1179.39 502.291 1179.39 501.567C1179.39 500.842 1178.79 500.254 1178.07 500.254C1177.35 500.254 1176.76 500.842 1176.76 501.567Z" fill="#108000" fill-opacity="0.2"/>
<path d="M1176.76 554.086C1176.76 554.811 1177.35 555.399 1178.07 555.399C1178.79 555.399 1179.39 554.811 1179.39 554.086C1179.39 553.362 1178.79 552.773 1178.07 552.773C1177.35 552.773 1176.76 553.362 1176.76 554.086Z" fill="#108000" fill-opacity="0.2"/>
<path d="M1176.76 606.607C1176.76 607.331 1177.35 607.92 1178.07 607.92C1178.79 607.92 1179.39 607.331 1179.39 606.607C1179.39 605.882 1178.79 605.294 1178.07 605.294C1177.35 605.294 1176.76 605.882 1176.76 606.607Z" fill="#108000" fill-opacity="0.2"/>
<path d="M1124.24 449.047C1124.24 449.771 1124.83 450.36 1125.55 450.36C1126.28 450.36 1126.87 449.771 1126.87 449.047C1126.87 448.322 1126.28 447.734 1125.55 447.734C1124.83 447.734 1124.24 448.322 1124.24 449.047Z" fill="#108000" fill-opacity="0.2"/>
<path d="M1124.24 501.567C1124.24 502.291 1124.83 502.88 1125.55 502.88C1126.28 502.88 1126.87 502.291 1126.87 501.567C1126.87 500.842 1126.28 500.254 1125.55 500.254C1124.83 500.254 1124.24 500.842 1124.24 501.567Z" fill="#108000" fill-opacity="0.2"/>
<path d="M1124.24 554.086C1124.24 554.811 1124.83 555.399 1125.55 555.399C1126.28 555.399 1126.87 554.811 1126.87 554.086C1126.87 553.362 1126.28 552.773 1125.55 552.773C1124.83 552.773 1124.24 553.362 1124.24 554.086Z" fill="#108000" fill-opacity="0.2"/>
<path d="M1124.24 606.607C1124.24 607.331 1124.83 607.92 1125.55 607.92C1126.28 607.92 1126.87 607.331 1126.87 606.607C1126.87 605.882 1126.28 605.294 1125.55 605.294C1124.83 605.294 1124.24 605.882 1124.24 606.607Z" fill="#108000" fill-opacity="0.2"/>
<path d="M1071.72 449.046C1071.72 449.771 1072.31 450.359 1073.03 450.359C1073.76 450.359 1074.35 449.771 1074.35 449.046C1074.35 448.322 1073.76 447.733 1073.03 447.733C1072.31 447.733 1071.72 448.322 1071.72 449.046Z" fill="#108000" fill-opacity="0.2"/>
<path d="M1071.72 501.566C1071.72 502.291 1072.31 502.879 1073.03 502.879C1073.76 502.879 1074.35 502.291 1074.35 501.566C1074.35 500.842 1073.76 500.253 1073.03 500.253C1072.31 500.253 1071.72 500.842 1071.72 501.566Z" fill="#108000" fill-opacity="0.2"/>
<path d="M1071.72 554.086C1071.72 554.811 1072.31 555.399 1073.03 555.399C1073.76 555.399 1074.35 554.811 1074.35 554.086C1074.35 553.362 1073.76 552.773 1073.03 552.773C1072.31 552.773 1071.72 553.362 1071.72 554.086Z" fill="#108000" fill-opacity="0.2"/>
<path d="M1071.72 606.607C1071.72 607.332 1072.31 607.92 1073.03 607.92C1073.76 607.92 1074.35 607.332 1074.35 606.607C1074.35 605.882 1073.76 605.294 1073.03 605.294C1072.31 605.294 1071.72 605.882 1071.72 606.607Z" fill="#108000" fill-opacity="0.2"/>
<path d="M1019.2 449.046C1019.2 449.771 1019.79 450.359 1020.51 450.359C1021.23 450.359 1021.83 449.771 1021.83 449.046C1021.83 448.322 1021.23 447.733 1020.51 447.733C1019.79 447.733 1019.2 448.322 1019.2 449.046Z" fill="#108000" fill-opacity="0.2"/>
<path d="M1019.2 501.566C1019.2 502.291 1019.79 502.879 1020.51 502.879C1021.23 502.879 1021.83 502.291 1021.83 501.566C1021.83 500.842 1021.23 500.253 1020.51 500.253C1019.79 500.253 1019.2 500.842 1019.2 501.566Z" fill="#108000" fill-opacity="0.2"/>
<path d="M1019.2 554.086C1019.2 554.811 1019.79 555.399 1020.51 555.399C1021.23 555.399 1021.83 554.811 1021.83 554.086C1021.83 553.362 1021.23 552.773 1020.51 552.773C1019.79 552.773 1019.2 553.362 1019.2 554.086Z" fill="#108000" fill-opacity="0.2"/>
<path d="M1019.2 606.607C1019.2 607.332 1019.79 607.92 1020.51 607.92C1021.23 607.92 1021.83 607.332 1021.83 606.607C1021.83 605.882 1021.23 605.294 1020.51 605.294C1019.79 605.294 1019.2 605.882 1019.2 606.607Z" fill="#108000" fill-opacity="0.2"/>
<path d="M966.68 449.047C966.68 449.771 967.268 450.36 967.993 450.36C968.717 450.36 969.306 449.771 969.306 449.047C969.306 448.322 968.717 447.734 967.993 447.734C967.268 447.734 966.68 448.322 966.68 449.047Z" fill="#108000" fill-opacity="0.2"/>
<path d="M966.68 501.567C966.68 502.291 967.268 502.88 967.993 502.88C968.717 502.88 969.306 502.291 969.306 501.567C969.306 500.842 968.717 500.254 967.993 500.254C967.268 500.254 966.68 500.842 966.68 501.567Z" fill="#108000" fill-opacity="0.2"/>
<path d="M966.68 554.086C966.68 554.811 967.268 555.399 967.993 555.399C968.717 555.399 969.306 554.811 969.306 554.086C969.306 553.362 968.717 552.773 967.993 552.773C967.268 552.773 966.68 553.362 966.68 554.086Z" fill="#108000" fill-opacity="0.2"/>
<path d="M966.68 606.607C966.68 607.331 967.268 607.92 967.993 607.92C968.717 607.92 969.306 607.331 969.306 606.607C969.306 605.882 968.717 605.294 967.993 605.294C967.268 605.294 966.68 605.882 966.68 606.607Z" fill="#108000" fill-opacity="0.2"/>
<path d="M914.16 449.046C914.16 449.771 914.748 450.359 915.473 450.359C916.198 450.359 916.786 449.771 916.786 449.046C916.786 448.322 916.198 447.733 915.473 447.733C914.748 447.733 914.16 448.322 914.16 449.046Z" fill="#108000" fill-opacity="0.2"/>
<path d="M914.16 501.566C914.16 502.291 914.748 502.879 915.473 502.879C916.198 502.879 916.786 502.291 916.786 501.566C916.786 500.842 916.198 500.253 915.473 500.253C914.748 500.253 914.16 500.842 914.16 501.566Z" fill="#108000" fill-opacity="0.2"/>
<path d="M914.16 554.086C914.16 554.811 914.748 555.399 915.473 555.399C916.198 555.399 916.786 554.811 916.786 554.086C916.786 553.362 916.198 552.773 915.473 552.773C914.748 552.773 914.16 553.362 914.16 554.086Z" fill="#108000" fill-opacity="0.2"/>
<path d="M914.16 606.607C914.16 607.332 914.748 607.92 915.473 607.92C916.198 607.92 916.786 607.332 916.786 606.607C916.786 605.882 916.198 605.294 915.473 605.294C914.748 605.294 914.16 605.882 914.16 606.607Z" fill="#108000" fill-opacity="0.2"/>
<path d="M861.641 449.046C861.641 449.771 862.229 450.359 862.954 450.359C863.678 450.359 864.267 449.771 864.267 449.046C864.267 448.322 863.678 447.733 862.954 447.733C862.229 447.733 861.641 448.322 861.641 449.046Z" fill="#108000" fill-opacity="0.2"/>
<path d="M861.641 501.566C861.641 502.291 862.229 502.879 862.954 502.879C863.678 502.879 864.267 502.291 864.267 501.566C864.267 500.842 863.678 500.253 862.954 500.253C862.229 500.253 861.641 500.842 861.641 501.566Z" fill="#108000" fill-opacity="0.2"/>
<path d="M861.641 554.086C861.641 554.811 862.229 555.399 862.954 555.399C863.678 555.399 864.267 554.811 864.267 554.086C864.267 553.362 863.678 552.773 862.954 552.773C862.229 552.773 861.641 553.362 861.641 554.086Z" fill="#108000" fill-opacity="0.2"/>
<path d="M861.641 606.607C861.641 607.332 862.229 607.92 862.954 607.92C863.678 607.92 864.267 607.332 864.267 606.607C864.267 605.882 863.678 605.294 862.954 605.294C862.229 605.294 861.641 605.882 861.641 606.607Z" fill="#108000" fill-opacity="0.2"/>
</g>
<g style="mix-blend-mode:multiply" opacity="0.6" filter="url(#filter0_f_1452_177)">
<path d="M885.25 7.06934C900.225 -122.689 893.634 -243.646 882.943 -333.824C870.963 -434.746 808.414 -514.124 728.456 -528.92C625.651 -547.819 529.821 -539.611 458.333 -526.058C378.373 -510.938 315.484 -431.993 303.763 -331.069C288.789 -201.311 295.334 -80.3541 306.073 9.82324C318.052 110.746 380.599 190.178 460.557 204.92C563.362 223.819 659.236 215.611 730.68 202.058C810.639 186.938 873.531 107.992 885.25 7.06934Z" fill="url(#paint1_radial_1452_177)"/>
</g>
</g>
<rect x="-7" y="961" width="1207" height="174" fill="url(#paint2_linear_1452_177)"/>
<defs>
<filter id="filter0_f_1452_177" x="-33.2504" y="-868.25" width="1255.5" height="1412.5" filterUnits="userSpaceOnUse" color-interpolation-filters="sRGB">
<feFlood flood-opacity="0" result="BackgroundImageFix"/>
<feBlend mode="normal" in="SourceGraphic" in2="BackgroundImageFix" result="shape"/>
<feGaussianBlur stdDeviation="164.125" result="effect1_foregroundBlur_1452_177"/>
</filter>
<radialGradient id="paint0_radial_1452_177" cx="0" cy="0" r="1" gradientUnits="userSpaceOnUse" gradientTransform="translate(600.354 291.486) rotate(90) scale(525.201 1155.44)">
<stop offset="0.329443" stop-color="#7D95FF"/>
<stop offset="0.869558" stop-color="#7D95FF" stop-opacity="0"/>
</radialGradient>
<radialGradient id="paint1_radial_1452_177" cx="0" cy="0" r="1" gradientUnits="userSpaceOnUse" gradientTransform="translate(339.692 183.135) rotate(-59.9046) scale(832.021 747.784)">
<stop stop-color="#7D95FF"/>
<stop offset="0.369792" stop-color="#87DBFF"/>
<stop offset="1" stop-color="#9FFF87"/>
</radialGradient>
<linearGradient id="paint2_linear_1452_177" x1="596.5" y1="961" x2="596.5" y2="1135" gradientUnits="userSpaceOnUse">
<stop stop-color="white" stop-opacity="0"/>
<stop offset="0.5" stop-color="white" stop-opacity="0.9"/>
<stop offset="0.8" stop-color="white"/>
</linearGradient>
<clipPath id="clip0_1452_177">
<rect width="1848.71" height="818" fill="white" transform="translate(-324)"/>
</clipPath>
</defs>
</svg>
