<svg width="44" height="44" viewBox="0 0 44 44" fill="none" xmlns="http://www.w3.org/2000/svg">
<rect x="0.65" y="0.65" width="42.7" height="42.7" rx="7.35" stroke="#E0E0E0" stroke-width="1.3"/>
<g clip-path="url(#clip0_1525_263)">
<path opacity="0.994" fill-rule="evenodd" clip-rule="evenodd" d="M14.2461 11.9805C19.4023 11.9805 24.5586 11.9805 29.7148 11.9805C30.9518 12.2539 31.707 13.0091 31.9805 14.2461C31.9805 19.4023 31.9805 24.5586 31.9805 29.7148C31.707 30.9518 30.9518 31.707 29.7148 31.9805C24.5586 31.9805 19.4023 31.9805 14.2461 31.9805C13.0091 31.707 12.2539 30.9518 11.9805 29.7148C11.9805 24.5586 11.9805 19.4023 11.9805 14.2461C12.2539 13.0091 13.0091 12.2539 14.2461 11.9805ZM17.4492 15.7305C18.2929 15.7864 18.8463 16.2161 19.1094 17.0195C19.2592 17.9244 18.9271 18.582 18.1133 18.9922C17.0445 19.3001 16.2958 18.942 15.8672 17.918C15.6718 16.9743 16.0038 16.2907 16.8633 15.8672C17.0604 15.8057 17.2557 15.7601 17.4492 15.7305ZM24.6367 19.7539C25.3757 19.6836 26.0789 19.8073 26.7461 20.125C27.3935 20.5661 27.8036 21.1715 27.9766 21.9414C28.0541 22.2892 28.1062 22.6407 28.1328 22.9961C28.1589 24.6628 28.1589 26.3294 28.1328 27.9961C28.0872 28.0677 28.0286 28.1263 27.957 28.1719C27.2148 28.1979 26.4727 28.1979 25.7305 28.1719C25.6607 28.1412 25.6021 28.0957 25.5547 28.0352C25.5147 26.4087 25.4757 24.7811 25.4375 23.1523C25.2189 22.1931 24.6264 21.822 23.6602 22.0391C23.1444 22.2553 22.8254 22.6394 22.7031 23.1914C22.6687 23.3199 22.6427 23.4501 22.625 23.582C22.6245 25.0697 22.5985 26.5541 22.5469 28.0352C22.4706 28.1287 22.373 28.1873 22.2539 28.2109C21.6289 28.237 21.0039 28.237 20.3789 28.2109C20.2251 28.2026 20.1144 28.131 20.0469 27.9961C20.0081 25.3366 20.0211 22.6804 20.0859 20.0273C20.1375 19.9497 20.2091 19.9041 20.3008 19.8906C20.9779 19.8646 21.655 19.8646 22.332 19.8906C22.4525 19.9213 22.5371 19.9929 22.5859 20.1055C22.5989 20.3789 22.612 20.6523 22.625 20.9258C23.1161 20.2277 23.7867 19.8371 24.6367 19.7539ZM16.4727 19.8711C17.1368 19.8646 17.8009 19.8711 18.4648 19.8906C18.6146 19.9362 18.7122 20.0339 18.7578 20.1836C18.7839 22.7617 18.7839 25.3398 18.7578 27.918C18.7033 28.1027 18.5796 28.2003 18.3867 28.2109C17.7878 28.237 17.1888 28.237 16.5898 28.2109C16.3666 28.183 16.2299 28.0593 16.1797 27.8398C16.1536 25.3138 16.1536 22.7878 16.1797 20.2617C16.1981 20.068 16.2957 19.9379 16.4727 19.8711Z" fill="white"/>
</g>
<defs>
<clipPath id="clip0_1525_263">
<rect width="20" height="20" fill="white" transform="translate(12 12)"/>
</clipPath>
</defs>
</svg>
