<svg width="201" height="200" viewBox="0 0 201 200" fill="none" xmlns="http://www.w3.org/2000/svg">
<path d="M100.5 166.006C138.202 166.006 168.765 154.016 168.765 139.226C168.765 124.436 138.202 112.446 100.5 112.446C62.7985 112.446 32.2354 124.436 32.2354 139.226C32.2354 154.016 62.7985 166.006 100.5 166.006Z" fill="#F9FAFB"/>
<path d="M81.3372 33.9945L86.3335 40.8093L72.6446 126.641L67.6465 119.828L81.3372 33.9945Z" fill="#D0D5DD"/>
<path d="M72.6446 127.057C72.5132 127.057 72.3891 126.996 72.3094 126.887L67.3113 120.074C67.2446 119.985 67.2187 119.872 67.2354 119.761L80.9243 33.9278C80.9502 33.7611 81.0743 33.6278 81.2372 33.5889C81.4002 33.55 81.5724 33.6111 81.6706 33.7482L86.6687 40.5611C86.7354 40.65 86.7613 40.763 86.7446 40.8741L73.0557 126.707C73.0298 126.874 72.9057 127.007 72.7428 127.046C72.7094 127.054 72.678 127.057 72.6446 127.057ZM68.0854 119.722L72.3891 125.591L85.8946 40.9148L81.5909 35.0463L68.0854 119.722Z" fill="#F9FAFB"/>
<path d="M97.4357 48.3L102.432 55.113L91.0246 126.641L86.0283 119.828L97.4357 48.3Z" fill="#D0D5DD"/>
<path d="M91.0245 127.057C90.893 127.057 90.769 126.996 90.6893 126.887L85.6912 120.074C85.6245 119.985 85.5986 119.872 85.6153 119.761L97.0227 48.2333C97.0486 48.0667 97.1727 47.9333 97.3356 47.8945C97.4986 47.8556 97.6708 47.9167 97.769 48.0537L102.767 54.8667C102.834 54.9556 102.86 55.0685 102.843 55.1796L91.4356 126.707C91.4097 126.874 91.2856 127.007 91.1227 127.046C91.0893 127.054 91.0578 127.057 91.0245 127.057ZM86.4671 119.722L90.7708 125.591L101.995 55.2204L97.6912 49.3519L86.4671 119.722Z" fill="#F9FAFB"/>
<path d="M113.533 62.6056L118.532 69.4185L113.928 98.2797L108.93 91.4667L113.533 62.6056Z" fill="#D0D5DD"/>
<path d="M113.928 98.6963C113.796 98.6963 113.672 98.6352 113.593 98.5259L108.595 91.713C108.528 91.6241 108.502 91.5111 108.519 91.4L113.122 62.5389C113.148 62.3722 113.272 62.2389 113.435 62.2C113.598 62.1611 113.77 62.2222 113.869 62.3593L118.867 69.1722C118.933 69.2611 118.959 69.3741 118.943 69.4852L114.339 98.3463C114.313 98.513 114.189 98.6463 114.026 98.6852C113.993 98.6926 113.959 98.6963 113.928 98.6963ZM109.369 91.3611L113.672 97.2296L118.093 69.5241L113.789 63.6556L109.369 91.3611Z" fill="#F9FAFB"/>
<path d="M129.656 76.7371L134.654 83.55L132.95 94.2334L127.952 87.4204L129.656 76.7371Z" fill="#D0D5DD"/>
<path d="M132.95 94.65C132.819 94.65 132.695 94.5889 132.615 94.4797L127.617 87.6667C127.55 87.5778 127.524 87.4649 127.541 87.3538L129.245 76.6704C129.271 76.5038 129.395 76.3704 129.558 76.3315C129.721 76.2926 129.893 76.3538 129.991 76.4908L134.989 83.3038C135.056 83.3926 135.082 83.5056 135.065 83.6167L133.361 94.3C133.335 94.4667 133.211 94.6 133.048 94.6389C133.015 94.6463 132.984 94.65 132.95 94.65ZM128.391 87.3149L132.695 93.1834L134.215 83.6575L129.911 77.7889L128.391 87.3149Z" fill="#F9FAFB"/>
<path d="M125.328 103.883L130.324 110.696L127.781 126.641L122.783 119.828L125.328 103.883Z" fill="#D0D5DD"/>
<path d="M127.781 127.057C127.65 127.057 127.526 126.996 127.446 126.887L122.448 120.074C122.381 119.985 122.355 119.872 122.372 119.761L124.915 103.817C124.941 103.65 125.065 103.517 125.228 103.478C125.391 103.439 125.563 103.5 125.661 103.637L130.659 110.45C130.726 110.539 130.752 110.652 130.735 110.763L128.192 126.707C128.167 126.874 128.042 127.007 127.88 127.046C127.846 127.054 127.815 127.057 127.781 127.057ZM123.222 119.722L127.526 125.591L129.885 110.804L125.581 104.935L123.222 119.722Z" fill="#F9FAFB"/>
<path d="M81.3372 33.9945L67.6464 119.828H49.2705L62.9594 33.9945H81.3372Z" fill="#D0D5DD"/>
<path d="M67.6464 120.245H49.2686C49.1464 120.245 49.0316 120.191 48.952 120.098C48.8723 120.006 48.839 119.884 48.8575 119.763L62.5464 33.9299C62.5779 33.728 62.7538 33.578 62.9575 33.578H81.3353C81.4575 33.578 81.5724 33.6317 81.652 33.7243C81.7316 33.8169 81.7649 33.9391 81.7464 34.0595L68.0575 119.893C68.0261 120.097 67.852 120.245 67.6464 120.245ZM49.7594 119.411H67.2927L80.8483 34.4113H63.3149L49.7594 119.411Z" fill="#F9FAFB"/>
<path d="M97.4354 48.3L86.028 119.828H67.6465L79.0557 48.3H97.4354Z" fill="#98A2B3"/>
<path d="M86.0282 120.244H67.6485C67.5263 120.244 67.4115 120.191 67.3319 120.098C67.2522 120.006 67.2189 119.883 67.2374 119.763L78.6448 48.2352C78.6763 48.0334 78.8522 47.8834 79.0559 47.8834H97.4356C97.5578 47.8834 97.6726 47.9371 97.7522 48.0297C97.8319 48.1222 97.8652 48.2445 97.8467 48.3648L86.4393 119.893C86.4059 120.096 86.2319 120.244 86.0282 120.244ZM68.1356 119.411H85.6707L96.9448 48.7167H79.4096L68.1356 119.411Z" fill="#F9FAFB"/>
<path d="M95.1541 62.6056H113.534L108.93 91.4667C97.6801 97.0074 88.9375 107.617 86.8523 119.828H86.0264L95.1541 62.6056Z" fill="#D0D5DD"/>
<path d="M86.8524 120.244H86.0265C85.9042 120.244 85.7894 120.191 85.7098 120.098C85.6302 120.006 85.5968 119.883 85.6153 119.763L94.7413 62.5408C94.7727 62.3389 94.9487 62.1889 95.1524 62.1889H113.532C113.654 62.1889 113.769 62.2426 113.849 62.3352C113.928 62.4278 113.962 62.55 113.943 62.6704L109.339 91.5315C109.319 91.6648 109.234 91.7796 109.112 91.8389C97.6227 97.4963 89.2505 108.248 87.2616 119.896C87.2302 120.098 87.0561 120.244 86.8524 120.244ZM95.5098 63.0222L86.5839 118.981C88.8357 107.439 97.182 96.8593 108.552 91.1889L113.045 63.0222H95.5098Z" fill="#F9FAFB"/>
<path d="M110.863 137.204C110.731 137.004 110.602 136.802 110.481 136.594C110.48 136.591 110.476 136.585 110.474 136.582C110.355 136.38 110.243 136.172 110.133 135.963C110.104 135.904 110.076 135.844 110.046 135.785C109.961 135.613 109.878 135.439 109.798 135.261C109.763 135.18 109.728 135.098 109.693 135.017C109.624 134.854 109.559 134.691 109.496 134.524C109.459 134.426 109.422 134.328 109.387 134.23C109.365 134.167 109.344 134.104 109.322 134.041C109.274 133.894 109.228 133.748 109.183 133.6C109.167 133.546 109.15 133.493 109.135 133.437C109.08 133.237 109.026 133.037 108.978 132.833C108.968 132.798 108.963 132.761 108.954 132.726C108.917 132.561 108.881 132.394 108.85 132.228C108.831 132.133 108.817 132.039 108.802 131.944C108.78 131.817 108.759 131.689 108.743 131.559C108.73 131.463 108.717 131.365 108.705 131.267C108.691 131.137 108.676 131.007 108.665 130.876C108.655 130.778 108.648 130.678 108.641 130.58C108.631 130.448 108.624 130.315 108.618 130.182C108.615 130.082 108.609 129.982 108.607 129.882C108.604 129.744 108.604 129.607 108.604 129.47C108.604 129.372 108.604 129.274 108.605 129.174C108.609 129.032 108.617 128.887 108.622 128.741C108.628 128.646 108.63 128.554 108.637 128.457C108.648 128.296 108.663 128.135 108.68 127.972C108.687 127.893 108.692 127.813 108.702 127.733C108.73 127.491 108.763 127.246 108.802 127.002C108.82 126.88 108.842 126.757 108.865 126.637C109.1 125.344 109.485 124.089 109.998 122.885L105 116.072C104.485 117.276 104.102 118.532 103.867 119.824C103.844 119.946 103.824 120.069 103.804 120.189C103.765 120.433 103.731 120.678 103.704 120.92C103.694 121 103.689 121.08 103.681 121.159C103.665 121.32 103.65 121.483 103.639 121.644C103.633 121.739 103.63 121.833 103.624 121.928C103.617 122.072 103.609 122.217 103.607 122.361C103.605 122.461 103.605 122.559 103.605 122.657C103.605 122.794 103.605 122.932 103.609 123.069C103.611 123.169 103.617 123.269 103.62 123.369C103.626 123.502 103.633 123.633 103.642 123.767C103.65 123.867 103.657 123.965 103.667 124.065C103.678 124.194 103.693 124.326 103.707 124.454C103.718 124.552 103.731 124.65 103.744 124.746C103.763 124.876 103.783 125.004 103.804 125.132C103.82 125.226 103.835 125.32 103.854 125.415C103.861 125.452 103.867 125.489 103.872 125.526C103.898 125.656 103.926 125.783 103.955 125.911C103.963 125.946 103.97 125.983 103.98 126.02C104.028 126.224 104.08 126.424 104.137 126.624C104.152 126.678 104.168 126.732 104.185 126.787C104.23 126.935 104.274 127.082 104.324 127.228C104.344 127.291 104.367 127.354 104.389 127.417C104.405 127.465 104.42 127.513 104.437 127.561C104.455 127.611 104.478 127.661 104.496 127.711C104.559 127.878 104.624 128.041 104.693 128.204C104.728 128.285 104.761 128.367 104.796 128.448C104.876 128.626 104.959 128.8 105.044 128.972C105.067 129.019 105.087 129.065 105.109 129.111C105.117 129.124 105.124 129.137 105.13 129.15C105.237 129.359 105.35 129.567 105.47 129.769C105.472 129.772 105.476 129.778 105.478 129.782C105.6 129.989 105.728 130.191 105.859 130.391C105.867 130.402 105.874 130.415 105.881 130.426C105.989 130.587 106.1 130.744 106.213 130.9L111.211 137.713C111.094 137.546 110.978 137.376 110.863 137.204Z" fill="#D0D5DD"/>
<path d="M111.218 138.13C111.091 138.13 110.963 138.07 110.881 137.959L110.879 137.957L105.883 131.146C105.765 130.985 105.65 130.82 105.541 130.657L105.52 130.626C105.372 130.402 105.242 130.196 105.124 129.993C105.12 129.987 105.115 129.976 105.113 129.97C105 129.776 104.885 129.569 104.766 129.341C104.757 129.326 104.75 129.313 104.744 129.3C104.729 129.272 104.716 129.243 104.702 129.211C104.694 129.194 104.685 129.176 104.678 129.159C104.579 128.963 104.496 128.787 104.422 128.619C104.387 128.541 104.353 128.461 104.32 128.382C104.244 128.2 104.176 128.03 104.111 127.859C104.103 127.839 104.096 127.82 104.089 127.802C104.076 127.77 104.063 127.737 104.05 127.706C104.039 127.676 104.029 127.644 104.018 127.615L104 127.557C103.978 127.493 103.955 127.428 103.933 127.361C103.883 127.211 103.837 127.059 103.791 126.907L103.774 126.852C103.763 126.815 103.752 126.778 103.741 126.741C103.681 126.528 103.626 126.319 103.579 126.119L103.555 126.007C103.524 125.867 103.494 125.739 103.47 125.611C103.465 125.587 103.461 125.563 103.457 125.537L103.45 125.494C103.435 125.411 103.42 125.328 103.405 125.243L103.398 125.202C103.376 125.07 103.355 124.939 103.337 124.806C103.324 124.706 103.311 124.606 103.298 124.504C103.283 124.37 103.268 124.237 103.255 124.104C103.246 124.002 103.237 123.9 103.229 123.798C103.22 123.663 103.213 123.526 103.207 123.389C103.203 123.287 103.198 123.183 103.196 123.082C103.192 122.941 103.192 122.8 103.192 122.659V122.591C103.192 122.513 103.192 122.433 103.194 122.354C103.198 122.207 103.205 122.057 103.213 121.909L103.216 121.817C103.22 121.75 103.222 121.685 103.228 121.619C103.239 121.454 103.255 121.287 103.272 121.12L103.279 121.032C103.283 120.98 103.289 120.928 103.294 120.874C103.324 120.617 103.357 120.365 103.396 120.124C103.416 119.998 103.437 119.874 103.461 119.75C103.698 118.45 104.089 117.157 104.622 115.909C104.681 115.772 104.809 115.676 104.957 115.659C105.107 115.643 105.252 115.706 105.341 115.826L110.339 122.639C110.426 122.757 110.444 122.913 110.385 123.048C109.876 124.239 109.504 125.472 109.278 126.711C109.255 126.83 109.235 126.948 109.216 127.069C109.179 127.296 109.148 127.537 109.12 127.782C109.115 127.826 109.111 127.872 109.107 127.917L109.098 128.015C109.083 128.172 109.066 128.33 109.055 128.487C109.052 128.546 109.048 128.606 109.046 128.667L109.042 128.763C109.035 128.904 109.028 129.044 109.026 129.183C109.024 129.257 109.024 129.33 109.024 129.402V129.47C109.024 129.604 109.024 129.737 109.028 129.869C109.029 129.965 109.035 130.063 109.039 130.159C109.044 130.289 109.052 130.419 109.061 130.546C109.068 130.643 109.076 130.739 109.085 130.835C109.096 130.963 109.111 131.089 109.126 131.215C109.137 131.309 109.148 131.404 109.161 131.498C109.178 131.624 109.198 131.748 109.218 131.872L109.224 131.906C109.237 131.987 109.252 132.067 109.266 132.148C109.298 132.311 109.331 132.472 109.366 132.632L109.389 132.735C109.433 132.924 109.483 133.117 109.541 133.32L109.587 133.478C109.629 133.62 109.674 133.763 109.72 133.904C109.741 133.965 109.761 134.026 109.783 134.087C109.809 134.163 109.837 134.237 109.866 134.311L109.889 134.372C109.95 134.533 110.013 134.691 110.079 134.848C110.116 134.935 110.148 135.011 110.181 135.085C110.252 135.244 110.329 135.409 110.422 135.593L110.461 135.672C110.476 135.704 110.491 135.735 110.507 135.767C110.615 135.976 110.726 136.178 110.837 136.365C110.839 136.369 110.846 136.382 110.848 136.385C110.955 136.569 111.078 136.761 111.213 136.967C111.333 137.146 111.444 137.307 111.554 137.456L111.557 137.459C111.692 137.644 111.653 137.906 111.468 138.041C111.389 138.104 111.304 138.13 111.218 138.13ZM105.111 116.926C104.741 117.902 104.463 118.9 104.279 119.902C104.257 120.02 104.237 120.139 104.218 120.259C104.181 120.487 104.15 120.728 104.122 120.972C104.116 121.017 104.113 121.063 104.109 121.107L104.1 121.206C104.085 121.363 104.068 121.52 104.057 121.678C104.054 121.737 104.05 121.796 104.048 121.856L104.044 121.952C104.037 122.093 104.029 122.233 104.028 122.372C104.026 122.446 104.026 122.519 104.026 122.591V122.659C104.026 122.793 104.026 122.926 104.029 123.057C104.031 123.156 104.037 123.252 104.041 123.348C104.046 123.478 104.053 123.606 104.063 123.733C104.07 123.83 104.078 123.926 104.087 124.022C104.098 124.148 104.111 124.276 104.126 124.4C104.137 124.494 104.148 124.589 104.161 124.683C104.178 124.809 104.198 124.933 104.218 125.057L104.226 125.098C104.239 125.176 104.252 125.256 104.266 125.333L104.285 125.443C104.309 125.563 104.335 125.683 104.363 125.802L104.389 125.922C104.433 126.111 104.483 126.307 104.541 126.507L104.587 126.665C104.629 126.809 104.674 126.95 104.72 127.093C104.741 127.154 104.761 127.215 104.783 127.276L104.807 127.346C104.815 127.37 104.822 127.393 104.831 127.417C104.839 127.437 104.848 127.457 104.855 127.48C104.866 127.507 104.878 127.535 104.889 127.563C104.95 127.722 105.013 127.882 105.079 128.041C105.116 128.13 105.148 128.204 105.181 128.278C105.252 128.435 105.329 128.602 105.422 128.785C105.435 128.811 105.446 128.835 105.459 128.861C105.468 128.88 105.476 128.9 105.487 128.919L105.505 128.952C105.618 129.169 105.726 129.365 105.837 129.554C105.841 129.559 105.846 129.57 105.848 129.576C105.955 129.757 106.076 129.95 106.213 130.157L106.231 130.187C106.337 130.344 106.444 130.498 106.555 130.65L108.774 133.676L108.768 133.657C108.757 133.622 108.746 133.587 108.737 133.55C108.676 133.333 108.622 133.13 108.576 132.928L108.552 132.817C108.513 132.646 108.478 132.474 108.446 132.302C108.429 132.217 108.415 132.13 108.402 132.043L108.396 132.009C108.374 131.878 108.353 131.746 108.335 131.613C108.322 131.513 108.309 131.413 108.296 131.313C108.279 131.18 108.266 131.046 108.253 130.911C108.244 130.809 108.235 130.707 108.229 130.606C108.22 130.47 108.213 130.333 108.207 130.196C108.203 130.094 108.198 129.993 108.196 129.889C108.192 129.748 108.192 129.607 108.192 129.467V129.398C108.192 129.32 108.192 129.241 108.194 129.161C108.198 129.015 108.205 128.865 108.213 128.717L108.216 128.624C108.22 128.557 108.222 128.493 108.228 128.426C108.239 128.261 108.255 128.094 108.272 127.93L108.279 127.841C108.283 127.789 108.289 127.737 108.294 127.685C108.324 127.428 108.357 127.176 108.396 126.935C108.416 126.809 108.437 126.685 108.461 126.561C108.683 125.337 109.042 124.12 109.529 122.941L105.111 116.926Z" fill="#F9FAFB"/>
<path d="M129.655 76.7371L127.952 87.4204C127.328 87.3871 126.696 87.3704 126.059 87.3704C124.355 87.3704 122.661 87.4908 120.987 87.726L122.129 103.83C122.563 103.798 123.004 103.782 123.441 103.782C124.083 103.782 124.711 103.815 125.326 103.883L122.783 119.828H104.407L105.005 116.076C107.32 110.659 112.257 106.326 118.004 104.596L116.865 88.5334C114.124 89.2278 111.465 90.2167 108.931 91.4649L111.281 76.7352H129.655V76.7371Z" fill="#D0D5DD"/>
<path d="M122.783 120.244H104.407C104.285 120.244 104.17 120.191 104.091 120.098C104.011 120.006 103.978 119.883 103.996 119.763L104.594 116.011C104.6 115.978 104.609 115.944 104.622 115.913C106.917 110.544 111.855 106.12 117.565 104.298L116.485 89.0648C113.974 89.7352 111.496 90.6685 109.115 91.8408C108.976 91.9093 108.809 91.8945 108.683 91.8019C108.557 91.7093 108.494 91.5556 108.518 91.4L110.868 76.6704C110.9 76.4685 111.076 76.3185 111.28 76.3185H129.657C129.78 76.3185 129.894 76.3722 129.974 76.4648C130.054 76.5574 130.087 76.6797 130.068 76.8L128.365 87.4834C128.331 87.6945 128.146 87.8445 127.931 87.8334C125.802 87.7185 123.6 87.8037 121.433 88.0834L122.518 103.385C123.47 103.339 124.444 103.365 125.372 103.467C125.485 103.48 125.589 103.537 125.657 103.628C125.726 103.719 125.755 103.833 125.737 103.946L123.194 119.891C123.163 120.096 122.989 120.244 122.783 120.244ZM104.894 119.411H122.428L124.844 104.256C123.961 104.183 123.041 104.18 122.161 104.244C122.05 104.252 121.941 104.217 121.857 104.144C121.774 104.072 121.722 103.969 121.715 103.859L120.572 87.7556C120.557 87.5371 120.713 87.3445 120.93 87.313C123.148 87.0037 125.398 86.8926 127.598 86.9871L129.167 77.1537H111.633L109.465 90.7463C111.83 89.6371 114.28 88.7593 116.759 88.1315C116.88 88.1019 117.005 88.1259 117.105 88.1982C117.205 88.2704 117.268 88.3834 117.278 88.5056L118.417 104.569C118.43 104.763 118.307 104.941 118.12 104.996C112.524 106.68 107.657 110.969 105.405 116.193L104.894 119.411Z" fill="#F9FAFB"/>
<path d="M67.6464 119.828H49.2705L54.2668 126.641H72.6446H91.0242L86.0279 119.828H67.6464Z" fill="#D0D5DD"/>
<path d="M91.0241 127.057H54.2667C54.1334 127.057 54.0093 126.994 53.9315 126.887L48.9334 120.074C48.8408 119.948 48.8259 119.78 48.8982 119.639C48.9685 119.498 49.113 119.411 49.2704 119.411H86.0278C86.1611 119.411 86.2852 119.474 86.363 119.581L91.3611 126.394C91.4537 126.52 91.4685 126.689 91.3963 126.83C91.3259 126.97 91.1815 127.057 91.0241 127.057ZM54.4778 126.224H90.2019L85.8148 120.244H50.0926L54.4778 126.224Z" fill="#F9FAFB"/>
<path d="M122.783 119.828H104.407L109.404 126.641H127.781L122.783 119.828Z" fill="#D0D5DD"/>
<path d="M127.781 127.057H109.403C109.27 127.057 109.146 126.994 109.068 126.887L104.07 120.074C103.977 119.948 103.963 119.78 104.035 119.639C104.105 119.498 104.25 119.411 104.407 119.411H122.785C122.918 119.411 123.042 119.474 123.12 119.582L128.118 126.394C128.211 126.52 128.226 126.689 128.153 126.83C128.081 126.97 127.939 127.057 127.781 127.057ZM109.615 126.224H126.959L122.572 120.244H105.227L109.615 126.224Z" fill="#F9FAFB"/>
<path d="M151.1 100.348C151.252 100.591 151.402 100.837 151.546 101.085C151.587 101.156 151.626 101.226 151.667 101.296C151.771 101.478 151.872 101.657 151.971 101.841C152.019 101.93 152.067 102.02 152.115 102.111C152.2 102.274 152.284 102.437 152.367 102.602C152.422 102.715 152.478 102.826 152.534 102.939C152.611 103.1 152.687 103.261 152.761 103.424C152.811 103.535 152.863 103.646 152.913 103.757C152.989 103.93 153.061 104.102 153.134 104.276C153.178 104.382 153.222 104.485 153.265 104.591C153.346 104.793 153.422 104.996 153.5 105.202C153.53 105.282 153.561 105.357 153.589 105.437C153.622 105.528 153.652 105.62 153.684 105.711C153.763 105.937 153.841 106.163 153.915 106.391C153.954 106.513 153.989 106.635 154.028 106.757C154.089 106.957 154.15 107.156 154.208 107.357C154.245 107.491 154.28 107.628 154.317 107.763C154.369 107.956 154.419 108.148 154.465 108.344C154.498 108.485 154.532 108.628 154.563 108.769C154.606 108.961 154.648 109.152 154.687 109.346C154.721 109.513 154.754 109.68 154.785 109.848C154.809 109.974 154.832 110.1 154.854 110.226C154.885 110.413 154.915 110.604 154.943 110.793C154.961 110.913 154.98 111.033 154.996 111.156C155.024 111.365 155.05 111.576 155.074 111.787C155.085 111.889 155.1 111.993 155.109 112.094C155.143 112.409 155.171 112.726 155.193 113.043L160.191 119.856C160.169 119.537 160.139 119.22 160.108 118.907C160.096 118.804 160.084 118.702 160.072 118.6C160.048 118.389 160.024 118.178 159.995 117.969C159.978 117.848 159.959 117.728 159.941 117.607C159.913 117.417 159.884 117.228 159.852 117.039C159.83 116.913 159.808 116.787 159.784 116.661C159.765 116.559 159.748 116.456 159.728 116.354C159.715 116.289 159.698 116.224 159.685 116.159C159.646 115.967 159.604 115.774 159.561 115.582C159.53 115.439 159.498 115.298 159.463 115.157C159.417 114.963 159.365 114.77 159.315 114.576C159.28 114.441 159.245 114.306 159.206 114.17C159.148 113.969 159.089 113.77 159.028 113.57C158.991 113.448 158.954 113.324 158.915 113.202C158.841 112.974 158.763 112.748 158.684 112.524C158.656 112.443 158.63 112.361 158.6 112.28C158.596 112.269 158.593 112.259 158.589 112.25C158.561 112.17 158.53 112.094 158.5 112.015C158.424 111.809 158.346 111.606 158.265 111.404C158.222 111.298 158.178 111.196 158.135 111.093C158.063 110.919 157.989 110.744 157.913 110.572C157.863 110.461 157.813 110.35 157.761 110.239C157.687 110.076 157.611 109.915 157.534 109.754C157.48 109.641 157.422 109.528 157.367 109.417C157.326 109.335 157.287 109.254 157.246 109.172C157.204 109.089 157.159 109.007 157.115 108.924C157.067 108.833 157.021 108.743 156.971 108.654C156.872 108.47 156.771 108.289 156.667 108.109C156.626 108.039 156.587 107.967 156.546 107.898C156.402 107.65 156.254 107.404 156.1 107.161C156.076 107.122 156.05 107.085 156.026 107.046C155.919 106.878 155.811 106.709 155.7 106.544C155.682 106.519 155.663 106.493 155.645 106.467C155.446 106.174 155.246 105.883 155.037 105.598L150.039 98.7852C150.248 99.0704 150.45 99.3593 150.646 99.6537C150.776 99.8463 150.902 100.039 151.026 100.235C151.048 100.272 151.074 100.309 151.1 100.348Z" fill="#D0D5DD"/>
<path d="M160.185 120.276C160.055 120.276 159.929 120.215 159.85 120.106L154.852 113.293C154.805 113.23 154.777 113.154 154.772 113.076C154.75 112.776 154.724 112.47 154.689 112.141C154.683 112.08 154.676 112.02 154.668 111.959L154.653 111.837C154.629 111.63 154.605 111.422 154.577 111.215C154.566 111.13 154.553 111.046 154.54 110.963L154.524 110.857C154.496 110.67 154.466 110.485 154.435 110.3C154.415 110.178 154.392 110.056 154.368 109.933C154.337 109.761 154.305 109.596 154.272 109.432C154.233 109.241 154.192 109.052 154.15 108.863L154.144 108.837C154.115 108.706 154.085 108.576 154.053 108.444C154.007 108.252 153.957 108.063 153.907 107.872L153.879 107.765C153.853 107.669 153.827 107.57 153.802 107.474C153.746 107.276 153.685 107.08 153.626 106.882L153.587 106.75C153.563 106.672 153.54 106.594 153.516 106.519C153.444 106.294 153.366 106.07 153.289 105.848L153.248 105.728C153.231 105.678 153.215 105.628 153.196 105.58C153.179 105.535 153.163 105.493 153.146 105.45L153.107 105.348C153.031 105.146 152.955 104.946 152.876 104.746C152.848 104.68 152.82 104.611 152.792 104.544L152.748 104.437C152.677 104.267 152.605 104.094 152.531 103.926C152.492 103.839 152.453 103.752 152.413 103.665L152.381 103.598C152.307 103.437 152.233 103.278 152.157 103.12C152.103 103.009 152.048 102.898 151.994 102.789C151.913 102.628 151.831 102.467 151.746 102.306C151.7 102.217 151.653 102.128 151.605 102.039C151.507 101.859 151.407 101.68 151.305 101.502L151.257 101.419C151.233 101.378 151.211 101.335 151.187 101.294C151.035 101.035 150.892 100.798 150.748 100.569L150.674 100.456C150.552 100.263 150.426 100.072 150.3 99.8834C150.085 99.5648 149.89 99.2852 149.702 99.0297C149.566 98.8445 149.605 98.5834 149.79 98.4463C149.976 98.3111 150.237 98.35 150.374 98.5352L155.372 105.348C155.568 105.615 155.77 105.904 155.989 106.23L156.009 106.257C156.022 106.274 156.033 106.291 156.044 106.309C156.157 106.478 156.266 106.648 156.376 106.82L156.452 106.939C156.6 107.174 156.752 107.426 156.903 107.687C156.929 107.732 156.955 107.776 156.979 107.822L157.026 107.904C157.131 108.087 157.233 108.27 157.335 108.457C157.385 108.548 157.433 108.641 157.481 108.732L157.531 108.826C157.559 108.878 157.587 108.93 157.615 108.982C157.64 109.032 157.665 109.082 157.689 109.132L157.737 109.23C157.794 109.343 157.85 109.457 157.905 109.572C157.985 109.735 158.061 109.9 158.137 110.067L158.17 110.137C158.211 110.226 158.252 110.315 158.29 110.404C158.368 110.58 158.442 110.756 158.516 110.933L158.559 111.035C158.589 111.107 158.62 111.178 158.648 111.25C158.731 111.456 158.809 111.663 158.887 111.872L158.922 111.967C158.94 112.015 158.959 112.063 158.977 112.111L158.989 112.141C159.007 112.189 159.022 112.239 159.039 112.287L159.074 112.389C159.153 112.617 159.233 112.846 159.307 113.078C159.333 113.159 159.359 113.243 159.383 113.324L159.422 113.452C159.483 113.654 159.546 113.856 159.603 114.061C159.633 114.163 159.659 114.267 159.687 114.37L159.715 114.472C159.766 114.669 159.818 114.865 159.866 115.061C159.9 115.194 159.929 115.33 159.959 115.465L159.965 115.493C160.009 115.687 160.052 115.882 160.09 116.078L160.109 116.159C160.118 116.198 160.126 116.237 160.133 116.276C160.146 116.339 160.157 116.402 160.168 116.465L160.19 116.587C160.215 116.719 160.239 116.844 160.259 116.97C160.292 117.161 160.322 117.354 160.35 117.546L160.366 117.652C160.379 117.739 160.392 117.826 160.405 117.913C160.435 118.126 160.459 118.339 160.485 118.554L160.498 118.667C160.505 118.733 160.515 118.798 160.52 118.865C160.555 119.204 160.583 119.519 160.605 119.828C160.618 120.013 160.507 120.185 160.333 120.248C160.281 120.267 160.233 120.276 160.185 120.276ZM155.594 112.894L159.62 118.383C159.605 118.263 159.59 118.144 159.574 118.026C159.563 117.943 159.55 117.859 159.537 117.776L159.52 117.669C159.492 117.481 159.463 117.294 159.431 117.109C159.411 116.987 159.387 116.865 159.365 116.741L159.34 116.606C159.331 116.548 159.32 116.491 159.309 116.435C159.303 116.404 159.296 116.372 159.289 116.341C159.281 116.307 159.274 116.276 159.268 116.243C159.229 116.052 159.189 115.863 159.146 115.674L159.14 115.646C159.111 115.515 159.081 115.385 159.05 115.256C159.003 115.063 158.953 114.874 158.903 114.683L158.876 114.58C158.85 114.482 158.824 114.383 158.796 114.285C158.74 114.087 158.681 113.891 158.62 113.694L158.579 113.561C158.557 113.483 158.533 113.407 158.509 113.332C158.437 113.107 158.359 112.885 158.281 112.663C158.268 112.624 158.255 112.585 158.242 112.548C158.229 112.506 158.215 112.465 158.2 112.422L158.189 112.394C158.172 112.348 158.155 112.306 158.139 112.263L158.1 112.161C158.024 111.959 157.948 111.757 157.868 111.559C157.84 111.491 157.813 111.424 157.785 111.357L157.74 111.254C157.668 111.082 157.598 110.911 157.522 110.741C157.485 110.656 157.444 110.57 157.405 110.485L157.372 110.413C157.298 110.254 157.224 110.093 157.148 109.935C157.094 109.824 157.039 109.713 156.985 109.604L156.933 109.498C156.911 109.454 156.889 109.407 156.866 109.365C156.842 109.317 156.816 109.27 156.792 109.222L156.739 109.12C156.692 109.032 156.646 108.943 156.598 108.854C156.5 108.674 156.4 108.494 156.298 108.317L156.25 108.232C156.227 108.191 156.203 108.15 156.179 108.109C156.031 107.856 155.883 107.611 155.74 107.383L155.666 107.27C155.561 107.106 155.455 106.939 155.346 106.776L155.292 106.7C155.077 106.382 154.883 106.102 154.694 105.844L153.622 104.383C153.629 104.402 153.637 104.42 153.644 104.439C153.726 104.644 153.805 104.852 153.883 105.059L153.918 105.154C153.937 105.202 153.955 105.25 153.974 105.3C153.994 105.356 154.013 105.411 154.031 105.467L154.07 105.578C154.15 105.807 154.231 106.037 154.305 106.269C154.331 106.35 154.357 106.433 154.381 106.515L154.42 106.641C154.481 106.843 154.544 107.046 154.602 107.25C154.629 107.352 154.657 107.454 154.683 107.556L154.711 107.661C154.763 107.857 154.815 108.054 154.863 108.25C154.896 108.385 154.926 108.52 154.957 108.656L154.963 108.682C155.007 108.876 155.05 109.07 155.089 109.267C155.124 109.435 155.155 109.606 155.187 109.776C155.211 109.909 155.235 110.033 155.255 110.159C155.289 110.35 155.318 110.543 155.346 110.733L155.361 110.837C155.374 110.924 155.387 111.013 155.4 111.102C155.429 111.315 155.453 111.528 155.477 111.741L155.49 111.857C155.498 111.922 155.507 111.989 155.513 112.054C155.55 112.348 155.574 112.624 155.594 112.894Z" fill="#F9FAFB"/>
<path d="M155.187 113.044L160.185 119.859L143.017 123.706L138.019 116.893L155.187 113.044Z" fill="#D0D5DD"/>
<path d="M143.017 124.122C142.885 124.122 142.761 124.061 142.681 123.952L137.683 117.139C137.6 117.026 137.58 116.878 137.63 116.746C137.68 116.615 137.791 116.517 137.928 116.485L155.096 112.637C155.259 112.6 155.426 112.663 155.524 112.796L160.522 119.609C160.605 119.722 160.626 119.87 160.576 120.002C160.526 120.133 160.415 120.232 160.278 120.263L143.109 124.111C143.076 124.12 143.046 124.122 143.017 124.122ZM138.731 117.159L143.191 123.239L159.472 119.591L155.013 113.511L138.731 117.159Z" fill="#F9FAFB"/>
<path d="M114.078 136.1L119.074 142.913L112.2 158.787L107.202 151.972L114.078 136.1Z" fill="#D0D5DD"/>
<path d="M112.2 159.204C112.069 159.204 111.943 159.141 111.865 159.033L106.867 152.22C106.78 152.102 106.761 151.944 106.821 151.807L113.696 135.935C113.756 135.798 113.883 135.704 114.032 135.687C114.18 135.67 114.326 135.735 114.415 135.856L119.413 142.669C119.5 142.787 119.519 142.944 119.459 143.082L112.583 158.954C112.524 159.091 112.396 159.185 112.248 159.202C112.23 159.202 112.215 159.204 112.2 159.204ZM107.68 151.919L112.106 157.954L118.598 142.967L114.172 136.932L107.68 151.919Z" fill="#F9FAFB"/>
<path d="M96.6114 148.415L91.6133 141.602C95.2707 146.589 100.665 150.27 107.202 151.972L112.2 158.785C105.661 157.085 100.269 153.402 96.6114 148.415Z" fill="#D0D5DD"/>
<path d="M112.2 159.204C112.165 159.204 112.129 159.2 112.094 159.191C105.546 157.485 100.076 153.846 96.2739 148.663L91.2758 141.85C91.1406 141.665 91.1795 141.404 91.3646 141.267C91.5498 141.13 91.8109 141.17 91.948 141.356C95.635 146.382 100.944 149.913 107.305 151.57C107.398 151.595 107.479 151.65 107.537 151.728L112.535 158.541C112.639 158.683 112.642 158.876 112.544 159.02C112.465 159.137 112.335 159.204 112.2 159.204ZM95.8998 146.743L96.9461 148.169C100.407 152.887 105.3 156.289 111.148 158.057L106.954 152.337C102.774 151.23 99.0387 149.33 95.8998 146.743Z" fill="#F9FAFB"/>
<mask id="mask0_1572_12967" style="mask-type:luminance" maskUnits="userSpaceOnUse" x="91" y="141" width="22" height="18">
<mask id="mask1_1572_12967" style="mask-type:luminance" maskUnits="userSpaceOnUse" x="91" y="141" width="22" height="18">
<path d="M96.6114 148.415L91.6133 141.602C95.2707 146.589 100.665 150.27 107.202 151.972L112.2 158.785C105.661 157.085 100.269 153.402 96.6114 148.415Z" fill="white"/>
</mask>
<g mask="url(#mask1_1572_12967)">
<path d="M112.2 159.204C112.165 159.204 112.129 159.2 112.094 159.191C105.546 157.485 100.076 153.846 96.2739 148.663L91.2758 141.85C91.1406 141.665 91.1795 141.404 91.3646 141.267C91.5498 141.13 91.8109 141.17 91.948 141.356C95.635 146.382 100.944 149.913 107.305 151.57C107.398 151.595 107.479 151.65 107.537 151.728L112.535 158.541C112.639 158.683 112.642 158.876 112.544 159.02C112.465 159.137 112.335 159.204 112.2 159.204ZM95.8998 146.743L96.9461 148.169C100.407 152.887 105.3 156.289 111.148 158.057L106.954 152.337C102.774 151.23 99.0387 149.33 95.8998 146.743Z" fill="white"/>
</g>
</mask>
<g mask="url(#mask0_1572_12967)">
<path d="M107.202 151.972L112.2 158.785C105.663 157.083 100.269 153.402 96.6114 148.415L91.6133 141.602C95.2707 146.589 100.665 150.27 107.202 151.972Z" fill="#D0D5DD"/>
<path d="M112.2 159.204C112.165 159.204 112.129 159.2 112.094 159.191C105.546 157.485 100.076 153.846 96.2739 148.663L91.2758 141.85C91.1406 141.665 91.1795 141.404 91.3646 141.267C91.5498 141.13 91.8109 141.17 91.948 141.356C95.635 146.382 100.944 149.913 107.305 151.57C107.398 151.595 107.479 151.65 107.537 151.728L112.535 158.541C112.639 158.683 112.642 158.876 112.544 159.02C112.465 159.137 112.335 159.204 112.2 159.204ZM95.8998 146.743L96.9461 148.169C100.407 152.887 105.3 156.289 111.148 158.057L106.954 152.337C102.774 151.23 99.0387 149.33 95.8998 146.743Z" fill="#F9FAFB"/>
</g>
<path d="M155.206 116.948C155.147 118.017 155.032 119.096 154.858 120.194C151.967 138.319 134.382 153.015 115.591 153.015C114.051 153.015 112.552 152.917 111.101 152.726L118.086 136.606H118.208C127.371 136.606 135.958 129.617 137.721 120.867L155.206 116.948Z" fill="#D0D5DD"/>
<path d="M115.591 153.432C114.045 153.432 112.515 153.333 111.045 153.139C110.915 153.122 110.8 153.045 110.737 152.932C110.672 152.819 110.665 152.68 110.717 152.561L117.702 136.441C117.769 136.289 117.919 136.189 118.083 136.189H118.206C127.178 136.189 135.569 129.422 137.309 120.785C137.343 120.624 137.467 120.496 137.626 120.461L155.111 116.543C155.239 116.515 155.372 116.546 155.472 116.632C155.572 116.717 155.626 116.843 155.619 116.972C155.559 118.057 155.441 119.163 155.265 120.261C152.352 138.55 134.552 153.432 115.591 153.432ZM111.702 152.38C112.967 152.524 114.272 152.598 115.589 152.598C134.159 152.598 151.589 138.032 154.445 120.128C154.585 119.244 154.689 118.356 154.754 117.476L138.072 121.215C136.15 130.052 127.563 136.946 118.358 137.022L111.702 152.38Z" fill="#F9FAFB"/>
<path d="M157.681 134.707C157.785 134.456 157.885 134.2 157.983 133.946C158.013 133.869 158.042 133.793 158.072 133.715C158.194 133.391 158.311 133.065 158.422 132.737C158.446 132.665 158.47 132.591 158.494 132.519C158.583 132.256 158.666 131.993 158.75 131.728C158.781 131.628 158.811 131.528 158.84 131.428C158.926 131.144 159.007 130.861 159.083 130.576C159.098 130.522 159.115 130.467 159.127 130.413C159.216 130.078 159.3 129.739 159.379 129.4C159.4 129.311 159.42 129.22 159.44 129.13C159.5 128.869 159.555 128.606 159.609 128.343C159.629 128.243 159.65 128.144 159.668 128.044C159.735 127.7 159.796 127.356 159.852 127.007C160.026 125.911 160.142 124.83 160.2 123.761L155.202 116.948C155.142 118.017 155.027 119.096 154.853 120.194C154.798 120.541 154.735 120.887 154.67 121.232C154.652 121.332 154.631 121.43 154.611 121.53C154.557 121.793 154.502 122.056 154.442 122.317C154.422 122.407 154.403 122.496 154.381 122.587C154.302 122.926 154.218 123.263 154.129 123.6C154.115 123.654 154.1 123.707 154.085 123.763C154.007 124.048 153.926 124.332 153.842 124.615C153.813 124.715 153.781 124.815 153.752 124.915C153.67 125.18 153.585 125.443 153.496 125.706C153.472 125.778 153.448 125.852 153.424 125.924C153.311 126.252 153.194 126.578 153.074 126.902C153.044 126.98 153.015 127.056 152.985 127.133C152.887 127.389 152.787 127.643 152.683 127.894C152.644 127.991 152.603 128.087 152.565 128.183C152.446 128.465 152.326 128.746 152.2 129.024C152.181 129.065 152.165 129.106 152.146 129.146C152.002 129.467 151.85 129.783 151.696 130.1C151.653 130.185 151.611 130.27 151.568 130.357C151.446 130.602 151.322 130.844 151.196 131.087C151.152 131.17 151.109 131.256 151.063 131.339C150.898 131.648 150.727 131.957 150.553 132.263C150.529 132.304 150.505 132.344 150.483 132.385C150.329 132.654 150.172 132.919 150.011 133.183C149.95 133.283 149.889 133.383 149.827 133.482C149.733 133.635 149.637 133.787 149.54 133.939C149.472 134.046 149.403 134.152 149.335 134.259C149.235 134.413 149.133 134.565 149.031 134.719C148.963 134.82 148.894 134.922 148.826 135.024C148.716 135.183 148.605 135.343 148.492 135.5C148.427 135.591 148.363 135.683 148.298 135.774C148.163 135.963 148.024 136.15 147.885 136.337C147.842 136.393 147.802 136.45 147.759 136.506C147.411 136.967 147.052 137.422 146.683 137.87C146.679 137.874 146.677 137.878 146.674 137.882C146.303 138.332 145.922 138.774 145.531 139.209C145.522 139.219 145.515 139.228 145.505 139.237C145.14 139.643 144.77 140.041 144.389 140.432C144.383 140.437 144.377 140.444 144.372 140.45C143.996 140.837 143.611 141.215 143.22 141.587C143.2 141.606 143.181 141.624 143.161 141.644C142.789 141.998 142.409 142.343 142.022 142.683C141.987 142.715 141.952 142.746 141.916 142.778C141.54 143.107 141.157 143.428 140.77 143.744C140.724 143.783 140.676 143.822 140.629 143.859C140.239 144.174 139.842 144.483 139.44 144.785C139.389 144.824 139.335 144.865 139.283 144.904C138.883 145.202 138.477 145.491 138.068 145.774C138.013 145.813 137.955 145.852 137.9 145.891C137.465 146.189 137.024 146.478 136.577 146.759C136.524 146.793 136.472 146.826 136.418 146.859C135.968 147.141 135.511 147.413 135.05 147.678C134.987 147.713 134.926 147.75 134.865 147.785C134.685 147.887 134.505 147.985 134.324 148.085C134.233 148.135 134.14 148.187 134.05 148.235C133.798 148.37 133.542 148.504 133.289 148.635C133.268 148.646 133.248 148.657 133.227 148.669C132.952 148.809 132.672 148.946 132.394 149.082C132.307 149.124 132.22 149.163 132.131 149.206C131.939 149.296 131.744 149.387 131.55 149.476C131.465 149.515 131.377 149.552 131.292 149.591C131.039 149.704 130.785 149.815 130.529 149.922C130.435 149.963 130.34 150.002 130.246 150.041C129.92 150.176 129.592 150.307 129.261 150.435C129.257 150.437 129.253 150.439 129.25 150.439C128.916 150.567 128.581 150.689 128.244 150.807C128.148 150.841 128.053 150.874 127.957 150.907C127.696 150.998 127.433 151.085 127.17 151.17C127.087 151.196 127.003 151.224 126.92 151.252C126.522 151.378 126.122 151.496 125.718 151.607C125.637 151.63 125.553 151.652 125.47 151.676C125.057 151.789 124.644 151.896 124.227 151.994C124.202 152 124.176 152.006 124.152 152.011C123.75 152.106 123.344 152.193 122.94 152.274C122.866 152.289 122.79 152.306 122.716 152.32C122.305 152.4 121.894 152.474 121.481 152.541C121.398 152.554 121.316 152.567 121.233 152.58C120.807 152.646 120.379 152.707 119.952 152.757C119.937 152.759 119.922 152.761 119.907 152.763C119.489 152.813 119.066 152.854 118.646 152.889C118.566 152.896 118.487 152.904 118.407 152.909C117.989 152.943 117.57 152.967 117.15 152.985C117.068 152.989 116.985 152.991 116.903 152.994C116.466 153.011 116.031 153.02 115.592 153.02C114.052 153.02 112.553 152.922 111.102 152.732L116.1 159.544C117.553 159.737 119.05 159.833 120.59 159.833C121.027 159.833 121.465 159.822 121.902 159.807C121.983 159.804 122.066 159.802 122.148 159.798C122.568 159.78 122.987 159.756 123.405 159.722C123.485 159.717 123.565 159.709 123.644 159.702C124.066 159.667 124.487 159.626 124.905 159.576C124.92 159.574 124.935 159.572 124.95 159.57C125.377 159.519 125.805 159.457 126.229 159.393C126.313 159.38 126.396 159.367 126.479 159.354C126.892 159.287 127.303 159.213 127.713 159.133C127.789 159.119 127.863 159.102 127.939 159.087C128.342 159.006 128.746 158.919 129.148 158.824C129.174 158.819 129.202 158.813 129.227 158.806C129.642 158.707 130.057 158.598 130.468 158.487C130.552 158.465 130.633 158.443 130.716 158.419C131.118 158.306 131.518 158.187 131.916 158.063C131.94 158.056 131.966 158.048 131.99 158.041C132.05 158.022 132.109 158 132.17 157.981C132.433 157.896 132.694 157.809 132.955 157.72C133.052 157.687 133.148 157.654 133.244 157.62C133.581 157.502 133.916 157.38 134.25 157.252C134.255 157.25 134.261 157.248 134.266 157.246C134.594 157.12 134.92 156.989 135.246 156.854C135.34 156.815 135.437 156.774 135.531 156.733C135.785 156.626 136.039 156.517 136.29 156.404C136.348 156.378 136.405 156.356 136.461 156.33C136.49 156.317 136.52 156.302 136.55 156.287C136.742 156.2 136.935 156.109 137.126 156.019C137.215 155.976 137.303 155.935 137.392 155.893C137.672 155.757 137.95 155.62 138.226 155.48C138.246 155.469 138.266 155.457 138.287 155.448C138.542 155.317 138.796 155.185 139.05 155.048C139.142 154.998 139.233 154.948 139.324 154.898C139.505 154.8 139.685 154.7 139.865 154.598C139.896 154.58 139.927 154.565 139.957 154.546C139.989 154.528 140.018 154.509 140.05 154.491C140.511 154.226 140.966 153.954 141.416 153.672C141.47 153.639 141.524 153.604 141.577 153.57C142.024 153.289 142.465 153 142.898 152.704C142.922 152.687 142.946 152.672 142.97 152.657C143.003 152.635 143.035 152.609 143.068 152.587C143.477 152.304 143.883 152.015 144.283 151.717C144.337 151.678 144.389 151.637 144.44 151.598C144.842 151.296 145.239 150.989 145.629 150.672C145.646 150.659 145.665 150.644 145.683 150.632C145.713 150.607 145.74 150.582 145.772 150.557C146.159 150.241 146.542 149.92 146.918 149.591C146.953 149.559 146.989 149.528 147.024 149.496C147.409 149.157 147.789 148.811 148.161 148.459C148.166 148.454 148.172 148.448 148.179 148.443C148.194 148.43 148.207 148.415 148.222 148.402C148.613 148.03 148.998 147.652 149.374 147.265C149.379 147.259 149.385 147.252 149.392 147.246C149.772 146.856 150.144 146.457 150.509 146.054C150.515 146.046 150.522 146.041 150.527 146.033C150.529 146.032 150.531 146.028 150.533 146.026C150.924 145.591 151.305 145.148 151.676 144.698C151.679 144.694 151.681 144.691 151.685 144.687C152.053 144.239 152.413 143.785 152.761 143.322C152.765 143.319 152.768 143.315 152.77 143.309C152.809 143.257 152.846 143.206 152.885 143.154C153.024 142.967 153.163 142.78 153.3 142.589C153.365 142.498 153.427 142.407 153.492 142.317C153.605 142.157 153.716 141.998 153.827 141.837C153.896 141.737 153.965 141.635 154.033 141.533C154.135 141.382 154.237 141.228 154.339 141.074C154.407 140.969 154.476 140.861 154.544 140.754C154.64 140.602 154.737 140.45 154.831 140.298C154.868 140.239 154.905 140.182 154.94 140.124C154.966 140.083 154.989 140.041 155.015 140C155.176 139.735 155.333 139.47 155.487 139.202C155.511 139.161 155.535 139.12 155.557 139.08C155.731 138.774 155.9 138.467 156.066 138.156C156.111 138.072 156.155 137.987 156.2 137.904C156.326 137.661 156.45 137.419 156.572 137.174C156.615 137.089 156.657 137.004 156.7 136.917C156.853 136.6 157.003 136.283 157.15 135.963C157.153 135.956 157.157 135.948 157.161 135.941C157.176 135.907 157.189 135.874 157.203 135.841C157.329 135.561 157.45 135.282 157.568 135C157.603 134.9 157.642 134.804 157.681 134.707Z" fill="#D0D5DD"/>
<path d="M120.587 160.244C119.041 160.244 117.511 160.146 116.041 159.952C115.928 159.937 115.826 159.876 115.759 159.785L110.761 152.972C110.663 152.837 110.654 152.657 110.739 152.513C110.824 152.369 110.987 152.291 111.152 152.313C112.587 152.502 114.081 152.598 115.589 152.598C115.978 152.598 116.389 152.591 116.885 152.572L117.13 152.563C117.544 152.544 117.963 152.52 118.372 152.489L118.609 152.469C119.067 152.43 119.474 152.389 119.857 152.344C119.859 152.344 119.878 152.343 119.88 152.343L119.902 152.341C120.281 152.294 120.696 152.237 121.168 152.165L121.413 152.126C121.822 152.059 122.233 151.987 122.635 151.907L122.857 151.863C123.289 151.776 123.681 151.691 124.055 151.602L124.131 151.585C124.507 151.496 124.909 151.393 125.359 151.27L125.604 151.204C126.011 151.091 126.411 150.97 126.793 150.852L127.041 150.772C127.302 150.689 127.561 150.602 127.818 150.513L127.837 150.507C127.926 150.478 128.015 150.446 128.104 150.415C128.485 150.28 128.802 150.163 129.1 150.05C129.405 149.933 129.724 149.806 130.085 149.656C130.172 149.62 130.257 149.583 130.344 149.546L130.365 149.537C130.618 149.43 130.87 149.32 131.12 149.209L131.213 149.169C131.267 149.144 131.322 149.12 131.376 149.096C131.568 149.009 131.761 148.919 131.952 148.828L132.061 148.776C132.111 148.752 132.161 148.73 132.211 148.706C132.487 148.572 132.763 148.437 133.037 148.296L133.098 148.265C133.352 148.135 133.604 148.004 133.854 147.869C133.911 147.837 133.968 147.806 134.026 147.774L134.126 147.719C134.305 147.62 134.483 147.522 134.661 147.422L134.844 147.317C135.309 147.05 135.765 146.778 136.2 146.506L136.359 146.406C136.805 146.124 137.244 145.835 137.668 145.546L137.835 145.432C138.252 145.143 138.657 144.854 139.039 144.57L139.196 144.452C139.604 144.146 140 143.837 140.374 143.535L140.513 143.42C140.922 143.087 141.294 142.774 141.648 142.463L141.754 142.369C142.157 142.013 142.526 141.678 142.88 141.341L142.937 141.285C143.337 140.906 143.72 140.526 144.078 140.159L144.394 140.432L144.096 140.141C144.468 139.757 144.841 139.359 145.202 138.959C145.204 138.957 145.215 138.944 145.217 138.943C145.613 138.5 145.994 138.059 146.359 137.617C146.73 137.167 147.087 136.713 147.431 136.256L147.555 136.089C147.693 135.904 147.83 135.719 147.965 135.532C148.007 135.474 148.048 135.415 148.089 135.356L148.157 135.259C148.268 135.102 148.378 134.946 148.487 134.787C148.543 134.707 148.596 134.626 148.65 134.544L148.691 134.485C148.793 134.333 148.893 134.183 148.993 134.032C149.061 133.926 149.128 133.82 149.196 133.715C149.293 133.565 149.387 133.413 149.481 133.263C149.543 133.165 149.604 133.067 149.663 132.967C149.822 132.706 149.978 132.443 150.13 132.178L150.2 132.057C150.363 131.772 150.528 131.472 150.704 131.144L150.835 130.894C150.961 130.656 151.083 130.415 151.204 130.174L151.33 129.92C151.494 129.583 151.639 129.274 151.774 128.978L151.828 128.857C151.952 128.582 152.072 128.304 152.189 128.026C152.228 127.932 152.267 127.837 152.305 127.741C152.407 127.491 152.507 127.241 152.604 126.987L152.639 126.894C152.655 126.85 152.674 126.804 152.691 126.759C152.811 126.439 152.928 126.113 153.037 125.793L153.109 125.576C153.196 125.317 153.28 125.056 153.361 124.793C153.391 124.694 153.422 124.594 153.452 124.496C153.535 124.217 153.617 123.935 153.693 123.654L153.737 123.493C153.822 123.174 153.904 122.848 153.987 122.493C154 122.435 154.013 122.378 154.026 122.32L154.046 122.226C154.104 121.969 154.159 121.709 154.213 121.448L154.226 121.387C154.241 121.309 154.257 121.232 154.272 121.154C154.346 120.77 154.405 120.437 154.454 120.13C154.624 119.061 154.739 117.983 154.798 116.928C154.807 116.752 154.926 116.602 155.094 116.552C155.263 116.502 155.444 116.563 155.55 116.706L160.548 123.519C160.605 123.596 160.633 123.691 160.628 123.787C160.568 124.872 160.45 125.98 160.274 127.076C160.224 127.391 160.163 127.733 160.089 128.124C160.074 128.202 160.057 128.28 160.043 128.357L160.03 128.424C159.976 128.691 159.918 128.956 159.859 129.22L159.839 129.313C159.826 129.372 159.813 129.433 159.798 129.493C159.713 129.857 159.63 130.193 159.543 130.519L159.496 130.683C159.418 130.972 159.335 131.259 159.25 131.546C159.22 131.648 159.189 131.748 159.157 131.85C159.074 132.119 158.989 132.385 158.9 132.65L158.826 132.872C158.713 133.2 158.594 133.533 158.47 133.863C158.452 133.911 158.433 133.959 158.415 134.007L158.38 134.096C158.281 134.354 158.18 134.611 158.074 134.867C158.035 134.965 157.994 135.061 157.954 135.157C157.833 135.443 157.711 135.726 157.585 136.009L157.541 136.111C157.539 136.115 157.533 136.13 157.531 136.132C157.393 136.437 157.244 136.754 157.076 137.098L156.946 137.357C156.824 137.604 156.698 137.85 156.57 138.094L156.437 138.35C156.257 138.687 156.089 138.993 155.922 139.283L155.85 139.406C155.694 139.676 155.535 139.944 155.374 140.211L155.3 140.337C155.28 140.37 155.257 140.406 155.237 140.439L155.191 140.513C155.094 140.667 154.998 140.82 154.9 140.974C154.831 141.082 154.761 141.191 154.691 141.298C154.589 141.454 154.487 141.607 154.383 141.763L154.333 141.837C154.281 141.915 154.228 141.993 154.176 142.07C154.065 142.232 153.952 142.393 153.837 142.554L153.77 142.648C153.728 142.709 153.685 142.769 153.643 142.828C153.505 143.019 153.365 143.209 153.224 143.398L153.107 143.556C153.104 143.559 153.096 143.57 153.093 143.574C152.744 144.033 152.38 144.498 152.011 144.946C152.009 144.95 151.998 144.963 151.996 144.965C151.633 145.407 151.244 145.857 150.848 146.298L150.822 146.328C150.455 146.737 150.076 147.143 149.696 147.533L149.678 147.552C149.311 147.928 148.92 148.315 148.515 148.7L148.472 148.743C148.47 148.744 148.457 148.757 148.454 148.759C148.094 149.1 147.718 149.443 147.305 149.807L147.198 149.902C146.835 150.219 146.446 150.548 146.041 150.878L145.896 150.996C145.517 151.304 145.113 151.619 144.696 151.93L144.537 152.05C144.146 152.341 143.733 152.637 143.311 152.928L143.272 152.956C143.252 152.97 143.231 152.985 143.211 152.998C143.194 153.009 143.18 153.02 143.163 153.03L143.139 153.046C142.713 153.337 142.265 153.632 141.805 153.922L141.643 154.026C141.2 154.304 140.735 154.582 140.261 154.852L140.224 154.874C140.205 154.885 140.187 154.896 140.167 154.907L140.072 154.959C139.891 155.063 139.709 155.163 139.526 155.263L139.426 155.319C139.367 155.352 139.309 155.383 139.25 155.415C138.994 155.552 138.739 155.687 138.48 155.819L138.418 155.852C138.139 155.994 137.859 156.133 137.576 156.269C137.52 156.296 137.463 156.322 137.405 156.35L137.305 156.396C137.113 156.487 136.918 156.58 136.724 156.667L136.633 156.709C136.6 156.724 136.567 156.739 136.533 156.754L136.461 156.785C136.207 156.898 135.952 157.009 135.694 157.119L135.622 157.148C135.55 157.178 135.478 157.209 135.405 157.239C135.031 157.394 134.717 157.52 134.417 157.635C134.094 157.759 133.761 157.882 133.385 158.013C133.298 158.044 133.211 158.074 133.122 158.104L133.093 158.115C132.83 158.206 132.565 158.293 132.3 158.38L132.222 158.406C132.187 158.417 132.154 158.43 132.118 158.441L132.043 158.463C131.655 158.585 131.248 158.706 130.83 158.822L130.578 158.891C130.117 159.017 129.705 159.122 129.324 159.213L129.244 159.232C128.859 159.322 128.459 159.409 128.022 159.498L127.793 159.544C127.391 159.624 126.97 159.698 126.546 159.767L126.294 159.806C125.815 159.88 125.393 159.939 125 159.985L124.965 159.989C124.563 160.037 124.146 160.078 123.68 160.117L123.437 160.137C123.018 160.17 122.591 160.194 122.165 160.213L121.915 160.222C121.409 160.237 120.989 160.244 120.587 160.244ZM116.326 159.148C117.707 159.322 119.139 159.411 120.587 159.411C120.978 159.411 121.389 159.404 121.883 159.385L122.128 159.376C122.543 159.357 122.961 159.333 123.37 159.302L123.607 159.282C124.065 159.243 124.472 159.202 124.855 159.157C124.857 159.157 124.874 159.156 124.876 159.156L124.898 159.154C125.281 159.107 125.694 159.05 126.165 158.978L126.411 158.939C126.828 158.872 127.239 158.798 127.631 158.72L127.855 158.674C128.283 158.587 128.676 158.502 129.05 158.415L129.13 158.396C129.5 158.307 129.902 158.206 130.355 158.082L130.602 158.015C131.011 157.9 131.409 157.782 131.789 157.663L131.861 157.641C131.891 157.632 131.92 157.622 131.948 157.611L132.039 157.582C132.298 157.498 132.557 157.411 132.815 157.322L132.846 157.311C132.931 157.282 133.017 157.254 133.102 157.222C133.472 157.093 133.796 156.972 134.096 156.857C134.405 156.739 134.713 156.615 135.081 156.463L135.363 156.344C135.615 156.239 135.865 156.13 136.115 156.019L136.2 155.982C136.228 155.969 136.255 155.957 136.285 155.944L136.376 155.902C136.565 155.815 136.755 155.726 136.944 155.637L137.048 155.589C137.102 155.563 137.155 155.539 137.209 155.513C137.487 155.38 137.761 155.244 138.035 155.104L138.096 155.07C138.348 154.941 138.6 154.809 138.85 154.674C138.905 154.644 138.963 154.613 139.018 154.582L139.122 154.524C139.302 154.426 139.48 154.328 139.657 154.228L139.785 154.156C139.804 154.144 139.822 154.133 139.843 154.122C140.305 153.856 140.761 153.583 141.196 153.313L141.355 153.213C141.805 152.93 142.246 152.641 142.663 152.354L142.831 152.237C143.246 151.95 143.65 151.661 144.035 151.376L144.191 151.257C144.598 150.952 144.994 150.643 145.368 150.341L145.507 150.226C145.905 149.902 146.287 149.58 146.643 149.269L146.748 149.176C147.154 148.819 147.522 148.483 147.874 148.148C147.876 148.146 147.887 148.137 147.891 148.133L147.933 148.091C148.331 147.713 148.715 147.333 149.074 146.965L149.096 146.943C149.465 146.563 149.837 146.167 150.196 145.765C150.2 145.761 150.209 145.75 150.213 145.746C150.609 145.304 150.991 144.863 151.354 144.42C151.724 143.97 152.083 143.517 152.428 143.059C152.43 143.056 152.437 143.048 152.439 143.044L152.55 142.893C152.689 142.707 152.826 142.522 152.959 142.335C153 142.278 153.041 142.22 153.081 142.163L153.15 142.065C153.261 141.907 153.372 141.75 153.481 141.591C153.533 141.515 153.583 141.439 153.635 141.365L153.685 141.291C153.787 141.139 153.887 140.989 153.987 140.835C154.055 140.73 154.124 140.624 154.191 140.519C154.287 140.369 154.381 140.219 154.474 140.067L154.655 139.77C154.813 139.509 154.968 139.246 155.122 138.982L155.193 138.861C155.354 138.578 155.518 138.278 155.696 137.948L155.828 137.698C155.954 137.459 156.076 137.219 156.196 136.978L156.322 136.724C156.487 136.387 156.631 136.078 156.767 135.782C156.768 135.778 156.774 135.765 156.776 135.761L156.82 135.661C156.944 135.385 157.065 135.107 157.181 134.83C157.22 134.735 157.259 134.641 157.298 134.544C157.4 134.294 157.5 134.044 157.596 133.793L157.631 133.7C157.648 133.656 157.667 133.609 157.683 133.565C157.804 133.244 157.92 132.919 158.03 132.598L158.102 132.382C158.189 132.122 158.272 131.861 158.354 131.598C158.383 131.5 158.415 131.4 158.444 131.302C158.528 131.022 158.607 130.743 158.685 130.461L158.73 130.3C158.815 129.983 158.896 129.656 158.98 129.3L159.039 129.033C159.096 128.776 159.152 128.517 159.205 128.256L159.218 128.187C159.233 128.111 159.248 128.037 159.263 127.961C159.337 127.58 159.396 127.244 159.444 126.937C159.607 125.919 159.72 124.893 159.78 123.883L155.539 118.102C155.474 118.819 155.383 119.539 155.268 120.254C155.218 120.569 155.157 120.911 155.083 121.302C155.068 121.382 155.052 121.463 155.035 121.544L155.024 121.604C154.97 121.87 154.913 122.135 154.854 122.4L154.833 122.493C154.82 122.554 154.805 122.613 154.793 122.674C154.707 123.037 154.624 123.372 154.537 123.7L154.491 123.865C154.413 124.154 154.33 124.441 154.244 124.728C154.215 124.83 154.183 124.93 154.152 125.032C154.068 125.3 153.983 125.567 153.894 125.833L153.82 126.056C153.707 126.383 153.589 126.717 153.465 127.046C153.446 127.094 153.428 127.143 153.409 127.191L153.374 127.28C153.276 127.537 153.174 127.794 153.068 128.05C153.03 128.148 152.989 128.244 152.948 128.341C152.828 128.626 152.705 128.909 152.58 129.193L152.526 129.317C152.387 129.62 152.239 129.937 152.07 130.282L151.941 130.541C151.818 130.787 151.693 131.033 151.565 131.278L151.524 131.356C151.493 131.415 151.461 131.474 151.43 131.533C151.25 131.869 151.081 132.174 150.915 132.467L150.843 132.589C150.687 132.859 150.528 133.128 150.367 133.396C150.305 133.498 150.243 133.598 150.181 133.698C150.085 133.852 149.989 134.007 149.891 134.161C149.822 134.269 149.752 134.376 149.683 134.483C149.581 134.639 149.48 134.793 149.376 134.946L149.337 135.006C149.281 135.089 149.226 135.172 149.168 135.256C149.057 135.417 148.944 135.576 148.831 135.737L148.765 135.832C148.722 135.893 148.68 135.954 148.635 136.015C148.498 136.206 148.357 136.394 148.217 136.583L148.091 136.754C147.739 137.22 147.374 137.683 147.004 138.132C147.002 138.133 146.991 138.146 146.989 138.148C146.622 138.593 146.233 139.044 145.839 139.483L145.82 139.504C145.446 139.92 145.067 140.326 144.687 140.717C144.687 140.717 144.67 140.735 144.668 140.735C144.304 141.109 143.913 141.496 143.505 141.883L143.446 141.941C143.085 142.283 142.709 142.626 142.298 142.989L142.191 143.083C141.828 143.4 141.45 143.72 141.033 144.059L140.891 144.176C140.509 144.483 140.105 144.798 139.689 145.111L139.53 145.232C139.141 145.52 138.728 145.817 138.304 146.111L138.133 146.23C137.702 146.524 137.254 146.82 136.798 147.106L136.637 147.207C136.194 147.485 135.73 147.763 135.255 148.035L135.068 148.143C134.887 148.244 134.705 148.346 134.522 148.446L134.426 148.5C134.365 148.533 134.305 148.567 134.244 148.6C133.989 148.737 133.733 148.872 133.474 149.004L133.411 149.037C133.131 149.18 132.852 149.319 132.568 149.454C132.515 149.48 132.463 149.504 132.409 149.53L132.304 149.58C132.107 149.672 131.913 149.765 131.717 149.854C131.661 149.88 131.604 149.904 131.546 149.93L131.455 149.97C131.2 150.085 130.943 150.196 130.685 150.306L130.665 150.315C130.576 150.352 130.489 150.389 130.4 150.426C130.031 150.578 129.705 150.709 129.405 150.824C129.091 150.944 128.768 151.063 128.378 151.2C128.287 151.232 128.196 151.263 128.105 151.294L128.093 151.296C127.83 151.387 127.563 151.476 127.298 151.561L127.046 151.643C126.655 151.765 126.246 151.887 125.831 152.002L125.581 152.07C125.122 152.196 124.713 152.302 124.326 152.393L124.248 152.409C123.865 152.5 123.463 152.587 123.024 152.676L122.798 152.722C122.387 152.802 121.968 152.878 121.548 152.944L121.298 152.983C120.817 153.057 120.393 153.117 120.002 153.163L119.967 153.167C119.565 153.215 119.148 153.256 118.681 153.294L118.439 153.315C118.02 153.348 117.593 153.372 117.167 153.391L116.917 153.4C116.411 153.419 115.991 153.426 115.591 153.426C114.378 153.426 113.174 153.365 112.002 153.244L116.326 159.148Z" fill="#F9FAFB"/>
<path d="M116.865 88.5352L118.004 104.598C112.258 106.328 107.321 110.661 105.006 116.078C104.491 117.28 104.108 118.537 103.873 119.83C103.85 119.952 103.83 120.074 103.81 120.194C102.587 127.854 107.004 134.294 114.078 136.102L107.202 151.974C93.1282 148.311 84.356 135.47 86.793 120.194C86.8115 120.072 86.8319 119.95 86.8541 119.83C88.9393 107.619 97.6801 97.0093 108.932 91.4685C111.463 90.2185 114.124 89.2297 116.865 88.5352Z" fill="#D0D5DD"/>
<path d="M107.202 152.389C107.167 152.389 107.132 152.385 107.097 152.376C92.4783 148.57 83.9598 135.309 86.3801 120.128C86.4005 120.004 86.4209 119.882 86.4412 119.757C88.4746 107.85 97.0209 96.8667 108.745 91.0926C111.33 89.8186 114.028 88.8223 116.762 88.1315C116.882 88.1019 117.008 88.126 117.108 88.1982C117.208 88.2704 117.271 88.3834 117.28 88.5056L118.419 104.569C118.432 104.763 118.31 104.941 118.123 104.996C112.51 106.685 107.63 110.994 105.388 116.241C104.878 117.432 104.506 118.665 104.28 119.904C104.258 120.022 104.238 120.141 104.219 120.261C103.056 127.556 107.152 133.904 114.18 135.698C114.299 135.728 114.397 135.809 114.451 135.919C114.504 136.028 114.508 136.156 114.458 136.269L107.582 152.141C107.517 152.294 107.365 152.389 107.202 152.389ZM116.484 89.0649C113.973 89.7352 111.495 90.6686 109.113 91.8408C97.6246 97.4982 89.2524 108.25 87.2635 119.898C87.2431 120.019 87.2227 120.139 87.2042 120.259C84.8727 134.882 92.9857 147.667 106.963 151.478L113.504 136.376C106.33 134.311 102.189 127.7 103.397 120.128C103.417 120.004 103.438 119.878 103.462 119.754C103.699 118.454 104.089 117.161 104.623 115.913C106.917 110.544 111.856 106.12 117.565 104.298L116.484 89.0649Z" fill="#F9FAFB"/>
<path d="M135.427 109.489L140.425 116.302C138.183 113.244 134.633 111.167 130.323 110.696C129.71 110.63 129.081 110.594 128.438 110.594C128.001 110.594 127.56 110.609 127.127 110.643L122.129 103.83C122.562 103.798 123.003 103.782 123.44 103.782C124.083 103.782 124.71 103.815 125.325 103.883C129.634 104.354 133.184 106.43 135.427 109.489Z" fill="#D0D5DD"/>
<path d="M140.426 116.719C140.298 116.719 140.17 116.659 140.089 116.548L140.087 116.546C137.842 113.487 134.359 111.557 130.278 111.111C129.263 111 128.185 110.983 127.157 111.059C127.015 111.069 126.876 111.006 126.79 110.891L121.792 104.078C121.703 103.956 121.687 103.794 121.75 103.657C121.813 103.52 121.946 103.428 122.098 103.417C123.176 103.339 124.303 103.356 125.368 103.472C129.685 103.943 133.376 105.993 135.761 109.244L140.759 116.057C140.894 116.243 140.855 116.504 140.67 116.641C140.598 116.693 140.511 116.719 140.426 116.719ZM128.439 110.178C129.089 110.178 129.739 110.213 130.368 110.282C132.95 110.563 135.307 111.409 137.296 112.741L135.09 109.733C132.846 106.672 129.361 104.741 125.279 104.296C124.513 104.213 123.713 104.182 122.922 104.206L127.328 110.211C127.696 110.189 128.068 110.178 128.439 110.178Z" fill="#F9FAFB"/>
<mask id="mask2_1572_12967" style="mask-type:luminance" maskUnits="userSpaceOnUse" x="122" y="103" width="19" height="14">
<mask id="mask3_1572_12967" style="mask-type:luminance" maskUnits="userSpaceOnUse" x="122" y="103" width="19" height="14">
<path d="M135.427 109.489L140.425 116.302C138.183 113.244 134.633 111.167 130.323 110.696C129.71 110.63 129.081 110.594 128.438 110.594C128.001 110.594 127.56 110.609 127.127 110.643L122.129 103.83C122.562 103.798 123.003 103.782 123.44 103.782C124.083 103.782 124.71 103.815 125.325 103.883C129.634 104.354 133.184 106.43 135.427 109.489Z" fill="white"/>
</mask>
<g mask="url(#mask3_1572_12967)">
<path d="M140.426 116.719C140.298 116.719 140.17 116.659 140.089 116.548L140.087 116.546C137.842 113.487 134.359 111.557 130.278 111.111C129.263 111 128.185 110.983 127.157 111.059C127.015 111.069 126.876 111.006 126.79 110.891L121.792 104.078C121.703 103.956 121.687 103.794 121.75 103.657C121.813 103.52 121.946 103.428 122.098 103.417C123.176 103.339 124.303 103.356 125.368 103.472C129.685 103.943 133.376 105.993 135.761 109.244L140.759 116.057C140.894 116.243 140.855 116.504 140.67 116.641C140.598 116.693 140.511 116.719 140.426 116.719ZM128.439 110.178C129.089 110.178 129.739 110.213 130.368 110.282C132.95 110.563 135.307 111.409 137.296 112.741L135.09 109.733C132.846 106.672 129.361 104.741 125.279 104.296C124.513 104.213 123.713 104.182 122.922 104.206L127.328 110.211C127.696 110.189 128.068 110.178 128.439 110.178Z" fill="white"/>
</g>
</mask>
<g mask="url(#mask2_1572_12967)">
<path d="M135.427 109.489L140.425 116.302C138.183 113.244 134.633 111.167 130.323 110.696C129.71 110.63 129.081 110.594 128.438 110.594C128.001 110.594 127.56 110.609 127.127 110.643L122.129 103.83C122.562 103.798 123.003 103.782 123.44 103.782C124.083 103.782 124.71 103.815 125.325 103.883C129.634 104.354 133.184 106.43 135.427 109.489Z" fill="#D0D5DD"/>
<path d="M140.426 116.719C140.298 116.719 140.17 116.659 140.089 116.548L140.087 116.546C137.842 113.487 134.359 111.557 130.278 111.111C129.263 111 128.185 110.983 127.157 111.059C127.015 111.069 126.876 111.006 126.79 110.891L121.792 104.078C121.703 103.956 121.687 103.794 121.75 103.657C121.813 103.52 121.946 103.428 122.098 103.417C123.176 103.339 124.303 103.356 125.368 103.472C129.685 103.943 133.376 105.993 135.761 109.244L140.759 116.057C140.894 116.243 140.855 116.504 140.67 116.641C140.598 116.693 140.511 116.719 140.426 116.719ZM128.439 110.178C129.089 110.178 129.739 110.213 130.368 110.282C132.95 110.563 135.307 111.409 137.296 112.741L135.09 109.733C132.846 106.672 129.361 104.741 125.279 104.296C124.513 104.213 123.713 104.182 122.922 104.206L127.328 110.211C127.696 110.189 128.068 110.178 128.439 110.178Z" fill="#F9FAFB"/>
</g>
<path d="M126.06 87.3704C126.697 87.3704 127.328 87.3871 127.952 87.4204C143.221 88.2371 154.187 98.9297 155.187 113.045L138.019 116.893C137.663 109.996 132.565 104.672 125.326 103.883C124.713 103.817 124.084 103.782 123.441 103.782C123.004 103.782 122.563 103.796 122.13 103.83L120.987 87.726C122.661 87.4908 124.356 87.3704 126.06 87.3704Z" fill="#98A2B3"/>
<path d="M138.019 117.309C137.928 117.309 137.839 117.28 137.767 117.224C137.669 117.15 137.609 117.037 137.602 116.913C137.252 110.132 132.3 105.061 125.282 104.296C124.267 104.185 123.189 104.169 122.161 104.244C122.05 104.252 121.941 104.217 121.857 104.144C121.774 104.072 121.722 103.969 121.715 103.859L120.572 87.7556C120.557 87.5371 120.713 87.3445 120.93 87.313C123.274 86.9852 125.665 86.8815 127.974 87.0056C143.213 87.8223 154.576 98.5186 155.602 113.017C155.617 113.222 155.478 113.407 155.278 113.452L138.109 117.3C138.08 117.306 138.048 117.309 138.019 117.309ZM123.443 103.365C124.093 103.365 124.743 103.4 125.372 103.469C129.009 103.865 132.183 105.367 134.552 107.807C136.8 110.124 138.124 113.08 138.4 116.38L154.743 112.717C153.585 98.8315 142.609 88.6223 127.928 87.8352C125.798 87.7204 123.596 87.8056 121.43 88.0852L122.515 103.387C122.824 103.372 123.133 103.365 123.443 103.365Z" fill="#F9FAFB"/>
<path d="M158.702 41.7223C156.984 39.763 154.476 38.7834 151.812 38.7834C149.149 38.7834 146.328 39.763 143.984 41.7223C141.638 43.6834 140.212 46.2538 139.8 48.8223C139.389 51.3927 139.997 53.9612 141.715 55.9204C143.436 57.8815 145.941 58.8593 148.604 58.8593C151.269 58.8593 154.091 57.8778 156.438 55.9167C158.782 53.9575 160.208 51.3889 160.617 48.8204C161.028 46.2519 160.423 43.6834 158.702 41.7223Z" fill="#F9FAFB"/>
<path d="M148.543 46.939C148.95 46.939 149.335 47.089 149.602 47.389C150.128 47.989 149.972 48.9612 149.256 49.5593C148.895 49.8593 148.461 50.0093 148.054 50.0093C147.646 50.0093 147.263 49.8593 147 49.5593C146.474 48.9593 146.63 47.9871 147.346 47.389C147.704 47.089 148.134 46.939 148.543 46.939Z" fill="#F9FAFB"/>
<path d="M145.845 43.4167C146.64 43.4167 147.386 43.7093 147.899 44.2927C148.923 45.4593 148.621 47.3519 147.225 48.5186C146.525 49.1038 145.684 49.3964 144.89 49.3964C144.097 49.3964 143.351 49.1038 142.838 48.5205C141.814 47.3538 142.116 45.4593 143.512 44.2908C144.212 43.7075 145.051 43.4167 145.845 43.4167Z" fill="#F9FAFB"/>
<path d="M162.748 38.3389C167.324 43.5519 166.565 51.6834 161.313 57.476L160.978 57.0945C160.567 56.6278 159.969 56.3945 159.334 56.3945C158.698 56.3945 158.026 56.6278 157.467 57.0945C156.35 58.0315 156.108 59.5445 156.926 60.4815L157.261 60.863C154.293 62.7186 150.995 63.6482 147.845 63.6482C143.911 63.6482 140.208 62.2001 137.667 59.3038C132.586 53.5112 134.082 44.126 141.011 38.3352C144.473 35.4408 148.636 33.9945 152.569 33.9945C156.504 33.9945 160.208 35.4427 162.748 38.3389ZM156.437 55.9167C158.782 53.9575 160.208 51.389 160.617 48.8204C161.026 46.2519 160.421 43.6834 158.7 41.7223C156.982 39.763 154.474 38.7834 151.81 38.7834C149.145 38.7834 146.326 39.763 143.982 41.7223C141.636 43.6834 140.21 46.2538 139.798 48.8223C139.387 51.3927 139.995 53.9612 141.713 55.9204C143.434 57.8815 145.939 58.8593 148.602 58.8593C151.269 58.8612 154.091 57.8797 156.437 55.9167Z" fill="#D0D5DD"/>
<path d="M159.335 56.3964C159.97 56.3964 160.569 56.6297 160.98 57.0964L161.315 57.4778L168.178 65.3038C168.996 66.2371 168.756 67.7538 167.639 68.6871C167.082 69.1538 166.408 69.3871 165.774 69.3871C165.139 69.3871 164.541 69.1538 164.132 68.6871L157.265 60.8649L156.93 60.4834C156.111 59.5464 156.352 58.0334 157.47 57.0964C158.028 56.6297 158.7 56.3964 159.335 56.3964Z" fill="#D0D5DD"/>
</svg>
