<svg width="201" height="200" viewBox="0 0 201 200" fill="none" xmlns="http://www.w3.org/2000/svg">
<path d="M161.624 88.6407C163.748 88.6407 165.47 86.9187 165.47 84.7944C165.47 82.6702 163.748 80.9481 161.624 80.9481C159.499 80.9481 157.777 82.6702 157.777 84.7944C157.777 86.9187 159.499 88.6407 161.624 88.6407Z" fill="#F9FAFB"/>
<path d="M100.5 169.387C138.259 169.387 168.869 157.379 168.869 142.567C168.869 127.754 138.259 115.746 100.5 115.746C62.7415 115.746 32.1318 127.754 32.1318 142.567C32.1318 157.379 62.7415 169.387 100.5 169.387Z" fill="#F9FAFB"/>
<path d="M98.3059 45.9852L95.4651 63.7926H77.0059L98.3059 45.9852Z" fill="#D0D5DD"/>
<path d="M95.4654 64.2093H77.0061C76.8302 64.2093 76.6746 64.1 76.6135 63.9352C76.5543 63.7704 76.6043 63.5852 76.7376 63.4741L98.0376 45.6648C98.1709 45.5537 98.3598 45.537 98.5098 45.6222C98.6617 45.7074 98.7431 45.8778 98.7154 46.05L95.8746 63.8593C95.845 64.0611 95.6709 64.2093 95.4654 64.2093ZM78.1543 63.3759H95.1098L97.7191 47.0185L78.1543 63.3759Z" fill="#F9FAFB"/>
<path d="M100.008 79.4611C99.8805 79.4611 99.7528 79.4018 99.6713 79.2907L98.5472 77.7574C98.4213 77.5852 98.4454 77.3444 98.6046 77.2C98.7639 77.0574 99.0065 77.0574 99.1639 77.2037C99.1713 77.2111 99.1805 77.2185 99.1879 77.2278C99.1954 77.2352 99.2028 77.2444 99.2083 77.2518C99.2268 77.2741 99.2472 77.3037 99.2676 77.3315L100.344 78.7981C100.479 78.9833 100.44 79.2444 100.255 79.3796C100.181 79.4352 100.095 79.4611 100.008 79.4611Z" fill="#F9FAFB"/>
<mask id="mask0_1572_11786" style="mask-type:luminance" maskUnits="userSpaceOnUse" x="98" y="77" width="3" height="3">
<path d="M100.008 79.4611C99.8805 79.4611 99.7528 79.4018 99.6713 79.2907L98.5472 77.7574C98.4213 77.5852 98.4454 77.3444 98.6046 77.2C98.7639 77.0574 99.0065 77.0574 99.1639 77.2037C99.1713 77.2111 99.1805 77.2185 99.1879 77.2278C99.1954 77.2352 99.2028 77.2444 99.2083 77.2518C99.2268 77.2741 99.2472 77.3037 99.2676 77.3315L100.344 78.7981C100.479 78.9833 100.44 79.2444 100.255 79.3796C100.181 79.4352 100.095 79.4611 100.008 79.4611Z" fill="white"/>
</mask>
<g mask="url(#mask0_1572_11786)">
<path d="M99.7729 78.6204L104.443 84.987C104.166 84.6074 103.869 84.2389 103.554 83.8796C100.101 79.9444 95.0655 77.9759 89.7174 77.9759C87.397 77.9759 85.0192 78.3463 82.684 79.087L78.0137 72.7204C80.3489 71.9796 82.7266 71.6093 85.047 71.6093C90.3952 71.6093 95.4303 73.5778 98.884 77.513C99.1989 77.8722 99.4952 78.2407 99.7729 78.6204Z" fill="#667185"/>
<path d="M104.444 85.4037C104.316 85.4037 104.188 85.3444 104.107 85.2333C103.836 84.8629 103.544 84.5 103.24 84.1537C99.9789 80.4389 95.1771 78.3926 89.716 78.3926C87.4141 78.3926 85.0919 78.7592 82.8086 79.4833C82.6382 79.537 82.453 79.4759 82.3456 79.3333L77.6752 72.9666C77.5956 72.8592 77.5734 72.7185 77.616 72.5907C77.6567 72.4629 77.7586 72.3629 77.8864 72.3222C80.2512 71.5722 82.6586 71.1926 85.0456 71.1926C90.7493 71.1926 95.7752 73.3389 99.1956 77.237C99.516 77.6018 99.8215 77.9852 100.109 78.374L104.775 84.737C104.777 84.7389 104.777 84.7407 104.779 84.7407C104.914 84.9259 104.875 85.187 104.69 85.324C104.616 85.3777 104.531 85.4037 104.444 85.4037ZM89.7178 77.5592C93.9938 77.5592 97.8882 78.7666 101.012 81.0129L99.4382 78.8666C99.1678 78.4963 98.8752 78.1333 98.5715 77.787C95.3104 74.0722 90.5086 72.0259 85.0475 72.0259C82.9327 72.0259 80.7993 72.3352 78.6975 72.9481L82.8438 78.6018C85.116 77.9092 87.4271 77.5592 89.7178 77.5592Z" fill="#F9FAFB"/>
</g>
<path d="M75.3062 108.032C75.1914 108.032 75.0784 107.985 74.9951 107.893L74.9303 107.819C74.7155 107.572 74.5099 107.317 74.3192 107.057L69.6488 100.691C69.5136 100.506 69.5525 100.244 69.7377 100.109C69.9229 99.9741 70.184 100.013 70.321 100.198L70.3247 100.204C70.5007 100.443 70.6895 100.678 70.8877 100.904L70.947 100.97C70.9562 100.982 70.9655 100.991 70.9729 101.002L75.6432 107.369C75.7747 107.548 75.7432 107.798 75.5692 107.939C75.4914 108.002 75.397 108.032 75.3062 108.032Z" fill="#F9FAFB"/>
<mask id="mask1_1572_11786" style="mask-type:luminance" maskUnits="userSpaceOnUse" x="69" y="100" width="7" height="9">
<path d="M75.3062 108.032C75.1914 108.032 75.0784 107.985 74.9951 107.893L74.9303 107.819C74.7155 107.572 74.5099 107.317 74.3192 107.057L69.6488 100.691C69.5136 100.506 69.5525 100.244 69.7377 100.109C69.9229 99.9741 70.184 100.013 70.321 100.198L70.3247 100.204C70.5007 100.443 70.6895 100.678 70.8877 100.904L70.947 100.97C70.9562 100.982 70.9655 100.991 70.9729 101.002L75.6432 107.369C75.7747 107.548 75.7432 107.798 75.5692 107.939C75.4914 108.002 75.397 108.032 75.3062 108.032Z" fill="white"/>
</mask>
<g mask="url(#mask1_1572_11786)">
<g opacity="0.6">
<path d="M70.9751 101.611L75.6455 107.978C75.5085 107.837 75.3733 107.693 75.2436 107.544C75.0344 107.307 74.8381 107.061 74.6547 106.811L69.9844 100.444C70.1677 100.694 70.364 100.941 70.5733 101.178C70.7029 101.326 70.8381 101.47 70.9751 101.611Z" fill="#667185"/>
<path d="M75.645 108.394C75.5357 108.394 75.4283 108.352 75.3469 108.269C75.2024 108.122 75.0617 107.97 74.9283 107.819C74.7135 107.574 74.508 107.319 74.3172 107.057L69.6469 100.691C69.5117 100.506 69.5506 100.244 69.7357 100.109C69.9209 99.9741 70.182 100.013 70.3191 100.198L70.3228 100.204C70.4987 100.443 70.6876 100.678 70.8857 100.904C71.0098 101.044 71.1394 101.185 71.2728 101.32C71.2876 101.335 71.2987 101.35 71.3117 101.365L75.982 107.732C76.1117 107.907 76.082 108.154 75.9154 108.296C75.8376 108.363 75.7413 108.394 75.645 108.394Z" fill="#F9FAFB"/>
</g>
</g>
<path d="M75.6449 108.394C75.5357 108.394 75.4283 108.352 75.3468 108.269C75.2264 108.146 75.1079 108.02 74.9931 107.891C74.9894 107.885 74.9838 107.881 74.9801 107.876C74.932 107.817 74.8764 107.739 74.8246 107.667L74.7671 107.587L70.2968 101.493C70.1653 101.313 70.1968 101.063 70.3708 100.922C70.5431 100.781 70.7949 100.802 70.9431 100.969C71.0505 101.087 71.1597 101.204 71.2708 101.319C71.2838 101.333 71.2968 101.348 71.3097 101.363L75.9801 107.73C76.1097 107.906 76.0801 108.152 75.9134 108.294C75.8357 108.363 75.7412 108.394 75.6449 108.394Z" fill="#F9FAFB"/>
<mask id="mask2_1572_11786" style="mask-type:luminance" maskUnits="userSpaceOnUse" x="70" y="100" width="7" height="9">
<path d="M75.6449 108.394C75.5357 108.394 75.4283 108.352 75.3468 108.269C75.2264 108.146 75.1079 108.02 74.9931 107.891C74.9894 107.885 74.9838 107.881 74.9801 107.876C74.932 107.817 74.8764 107.739 74.8246 107.667L74.7671 107.587L70.2968 101.493C70.1653 101.313 70.1968 101.063 70.3708 100.922C70.5431 100.781 70.7949 100.802 70.9431 100.969C71.0505 101.087 71.1597 101.204 71.2708 101.319C71.2838 101.333 71.2968 101.348 71.3097 101.363L75.9801 107.73C76.1097 107.906 76.0801 108.152 75.9134 108.294C75.8357 108.363 75.7412 108.394 75.6449 108.394Z" fill="white"/>
</mask>
<g mask="url(#mask2_1572_11786)">
<g opacity="0.6">
<path d="M70.9751 101.611L75.6455 107.978C75.5085 107.837 75.3733 107.693 75.2436 107.544C75.0344 107.307 74.8381 107.061 74.6547 106.811L69.9844 100.444C70.1677 100.694 70.364 100.941 70.5733 101.178C70.7029 101.326 70.8381 101.47 70.9751 101.611Z" fill="#667185"/>
<path d="M75.645 108.394C75.5357 108.394 75.4283 108.352 75.3469 108.269C75.2024 108.122 75.0617 107.97 74.9283 107.819C74.7135 107.574 74.508 107.319 74.3172 107.057L69.6469 100.691C69.5117 100.506 69.5506 100.244 69.7357 100.109C69.9209 99.9741 70.182 100.013 70.3191 100.198L70.3228 100.204C70.4987 100.443 70.6876 100.678 70.8857 100.904C71.0098 101.044 71.1394 101.185 71.2728 101.32C71.2876 101.335 71.2987 101.35 71.3117 101.365L75.982 107.732C76.1117 107.907 76.082 108.154 75.9154 108.296C75.8376 108.363 75.7413 108.394 75.645 108.394Z" fill="#F9FAFB"/>
</g>
</g>
<path d="M95.2083 93.7889C95.0971 94.1408 94.9694 94.4945 94.8286 94.8426C94.5268 95.5908 94.1601 96.326 93.7286 97.0389C93.5212 97.3815 93.3008 97.7204 93.062 98.0537C92.2545 99.1926 91.2731 100.263 90.1249 101.22C87.0008 103.833 83.2453 105.137 79.6971 105.137C76.1508 105.137 72.8119 103.832 70.5231 101.22C65.9397 95.9982 67.2897 87.5352 73.536 82.3167C76.6601 79.7037 80.4157 78.4 83.9638 78.4C87.5101 78.4 90.849 79.7056 93.1379 82.3167C93.2045 82.3926 93.2675 82.4667 93.3268 82.5426C93.6249 82.9019 93.899 83.2778 94.1434 83.6611C94.586 84.3574 94.936 85.0889 95.2064 85.8556C95.3453 86.2445 95.4601 86.6426 95.5508 87.0463C96.0527 89.2056 95.9249 91.5315 95.2083 93.7889Z" fill="#E4E7EC"/>
<path d="M95.5519 87.0463H83.3371C82.0482 87.0463 81.1612 86.0408 81.3612 84.7963C81.5593 83.5519 82.7649 82.5463 84.0556 82.5463H93.3297C93.6278 82.9056 93.9019 83.2815 94.1463 83.6648C94.5889 84.3611 94.9389 85.0926 95.2093 85.8593C95.3463 86.2445 95.4612 86.6426 95.5519 87.0463Z" fill="#98A2B3"/>
<path d="M95.2079 93.7889C95.0968 94.1407 94.969 94.4945 94.8283 94.8426C94.5264 95.5908 94.1598 96.3259 93.7283 97.0389C93.5209 97.3815 93.3005 97.7204 93.0616 98.0537H81.4542C80.2301 98.0537 79.3968 97.0982 79.5838 95.9204C79.7727 94.7426 80.9135 93.787 82.1338 93.787H95.2079V93.7889Z" fill="#98A2B3"/>
<path d="M98.6767 45.676H150.205L149.417 50.613L135.877 135.513H70.6879H65.5693L69.6638 109.835C72.3601 111.232 75.4379 111.93 78.6249 111.93C82.9082 111.93 87.3916 110.669 91.4267 108.144H127.556C128.184 108.144 128.767 107.656 128.866 107.05C128.962 106.448 128.532 105.959 127.906 105.959H94.4212C97.4804 103.382 99.749 100.285 101.179 97.0149H129.332C129.96 97.0149 130.543 96.526 130.64 95.9241C130.736 95.3204 130.306 94.8297 129.68 94.8297H102.005C102.955 91.85 103.217 88.7889 102.766 85.8852H131.106C131.734 85.8852 132.317 85.3963 132.414 84.7945C132.51 84.1908 132.08 83.7 131.455 83.7H102.279C101.619 81.4537 100.495 79.35 98.886 77.5112C95.4323 73.576 90.3971 71.6074 85.049 71.6074C81.8638 71.6074 78.5693 72.3056 75.4286 73.7L77.0082 63.7908H95.4675L98.3082 45.9852L98.6767 45.676ZM125.782 119.272C126.41 119.272 126.993 118.783 127.092 118.178C127.188 117.576 126.758 117.087 126.132 117.087H82.1786C81.5545 117.087 80.9693 117.576 80.873 118.178C80.7767 118.782 81.2064 119.272 81.8304 119.272H125.782ZM132.882 74.7574C133.51 74.7574 134.093 74.2686 134.19 73.6667C134.286 73.063 133.856 72.5723 133.23 72.5723H103.436C102.81 72.5723 102.227 73.0611 102.13 73.6667C102.034 74.2686 102.46 74.7574 103.088 74.7574H132.882Z" fill="#F7F9FC"/>
<path d="M135.877 135.928H65.5694C65.4472 135.928 65.3324 135.874 65.2528 135.781C65.1731 135.689 65.1398 135.567 65.1583 135.446L69.2546 109.769C69.275 109.637 69.3583 109.522 69.4787 109.463C69.5972 109.402 69.7398 109.404 69.8583 109.465C72.4472 110.806 75.4787 111.513 78.6268 111.513C82.9657 111.513 87.3157 110.226 91.2065 107.791C91.2731 107.75 91.3491 107.728 91.4268 107.728H127.556C127.979 107.728 128.39 107.387 128.453 106.985C128.479 106.822 128.442 106.67 128.347 106.559C128.247 106.441 128.09 106.376 127.905 106.376H94.4213C94.2454 106.376 94.0898 106.267 94.0305 106.102C93.9713 105.937 94.0194 105.754 94.1528 105.641C97.0528 103.196 99.3509 100.156 100.797 96.8482C100.864 96.6963 101.014 96.5982 101.179 96.5982H129.332C129.755 96.5982 130.166 96.2593 130.229 95.8574C130.255 95.6926 130.218 95.5408 130.123 95.4296C130.023 95.3111 129.866 95.2463 129.681 95.2463H102.005C101.871 95.2463 101.747 95.1833 101.668 95.0759C101.59 94.9685 101.568 94.8296 101.606 94.7037C102.534 91.7945 102.792 88.7667 102.353 85.95C102.334 85.8297 102.369 85.7074 102.447 85.6148C102.525 85.5222 102.642 85.4685 102.764 85.4685H131.105C131.527 85.4685 131.938 85.1297 132.001 84.7278C132.027 84.563 131.99 84.4111 131.895 84.3C131.795 84.1815 131.638 84.1167 131.453 84.1167H102.279C102.093 84.1167 101.931 83.9945 101.879 83.8167C101.219 81.5667 100.106 79.5371 98.5713 77.7852C95.3102 74.0704 90.5083 72.0241 85.0472 72.0241C81.8916 72.0241 78.6231 72.7352 75.5954 74.0815C75.4565 74.1426 75.2935 74.1241 75.1713 74.0315C75.0491 73.9389 74.9898 73.7871 75.0139 73.6352L76.5935 63.7259C76.625 63.5241 76.8009 63.3741 77.0046 63.3741H95.1083L97.8916 45.9185C97.9065 45.8204 97.9583 45.7296 98.0342 45.6648L98.4046 45.3519C98.4805 45.2889 98.575 45.2537 98.6731 45.2537H150.205C150.327 45.2537 150.442 45.3074 150.521 45.4C150.601 45.4926 150.634 45.6148 150.616 45.7352L136.288 135.572C136.256 135.78 136.082 135.928 135.877 135.928ZM66.0565 135.094H135.521L149.716 46.0908H98.8287L98.6935 46.2056L95.8787 63.8593C95.8472 64.0611 95.6713 64.2111 95.4676 64.2111H77.3639L75.9583 73.0241C78.8935 71.8241 82.0194 71.1926 85.0491 71.1926C90.7528 71.1926 95.7787 73.3389 99.199 77.2371C100.745 79.0037 101.884 81.0352 102.588 83.2834H131.456C131.882 83.2834 132.275 83.4574 132.532 83.7593C132.788 84.0593 132.893 84.45 132.827 84.8593C132.697 85.6685 131.942 86.3019 131.106 86.3019H103.245C103.582 88.9296 103.349 91.713 102.566 94.413H129.681C130.106 94.413 130.499 94.5871 130.756 94.8889C131.012 95.1889 131.118 95.5797 131.051 95.9889C130.921 96.7982 130.166 97.4315 129.331 97.4315H101.449C100.092 100.435 98.0583 103.215 95.525 105.543H127.905C128.331 105.543 128.723 105.717 128.981 106.019C129.236 106.319 129.34 106.707 129.275 107.117C129.145 107.926 128.39 108.561 127.555 108.561H91.5454C87.5472 111.039 83.0824 112.346 78.625 112.346C75.5491 112.346 72.5768 111.696 69.9861 110.459L66.0565 135.094ZM125.782 119.689H81.8305C81.4065 119.689 81.0139 119.517 80.7565 119.213C80.5009 118.913 80.3954 118.522 80.462 118.111C80.5916 117.302 81.3453 116.669 82.1787 116.669H126.131C126.556 116.669 126.949 116.843 127.206 117.144C127.462 117.444 127.566 117.833 127.501 118.243C127.373 119.054 126.618 119.689 125.782 119.689ZM82.1787 117.504C81.7583 117.504 81.3491 117.843 81.2842 118.244C81.2583 118.409 81.2953 118.563 81.3898 118.674C81.4898 118.793 81.6472 118.857 81.8287 118.857H125.781C126.203 118.857 126.614 118.517 126.677 118.115C126.703 117.952 126.666 117.8 126.571 117.689C126.471 117.57 126.314 117.506 126.129 117.506H82.1787V117.504ZM132.882 75.1741H103.088C102.662 75.1741 102.271 75.0019 102.014 74.7C101.758 74.4 101.655 74.0111 101.719 73.6019C101.849 72.7908 102.603 72.1574 103.436 72.1574H133.231C133.656 72.1574 134.049 72.3315 134.306 72.6334C134.562 72.9334 134.668 73.3241 134.601 73.7334C134.473 74.5408 133.718 75.1741 132.882 75.1741ZM103.436 72.9889C103.016 72.9889 102.606 73.3296 102.542 73.7315C102.516 73.8963 102.553 74.0482 102.647 74.1574C102.747 74.2741 102.903 74.3389 103.088 74.3389H132.882C133.305 74.3389 133.716 74 133.779 73.5982C133.805 73.4334 133.768 73.2815 133.673 73.1704C133.573 73.0519 133.416 72.9871 133.231 72.9871H103.436V72.9889Z" fill="#F9FAFB"/>
<g opacity="0.5">
<g opacity="0.6">
<path d="M74.1138 81.9296L73.6712 84.7093C73.6027 84.7611 73.5342 84.813 73.4675 84.8704C71.962 86.1259 71.6379 88.1667 72.7416 89.4241C72.7898 89.4796 72.8416 89.5333 72.8953 89.5833L70.9768 101.609C70.8398 101.469 70.7046 101.324 70.5749 101.176C68.2972 98.5778 67.4935 95.1722 68.0379 91.7685C68.5805 88.363 70.4694 84.9593 73.5768 82.363C73.7509 82.2148 73.9323 82.0704 74.1138 81.9296Z" fill="#D0D5DD"/>
</g>
</g>
<path d="M129.681 94.8297C130.308 94.8297 130.736 95.3185 130.64 95.9241C130.544 96.5259 129.958 97.0148 129.332 97.0148H101.179C101.495 96.2945 101.771 95.5648 102.003 94.8297H129.681Z" fill="#D0D5DD"/>
<path d="M129.332 97.4315H101.178C101.038 97.4315 100.906 97.3611 100.83 97.2426C100.754 97.1241 100.741 96.976 100.797 96.8482C101.11 96.1334 101.382 95.413 101.606 94.7056C101.66 94.5315 101.821 94.4149 102.004 94.4149H129.68C130.106 94.4149 130.499 94.5889 130.756 94.8908C131.012 95.1908 131.117 95.5815 131.051 95.9908C130.923 96.7982 130.167 97.4315 129.332 97.4315ZM101.808 96.5982H129.332C129.754 96.5982 130.165 96.2593 130.228 95.8574C130.254 95.6926 130.217 95.5408 130.123 95.4297C130.023 95.3112 129.865 95.2463 129.68 95.2463H102.306C102.158 95.6945 101.991 96.1463 101.808 96.5982Z" fill="#D0D5DD"/>
<path d="M127.905 105.957C128.533 105.957 128.961 106.446 128.865 107.048C128.768 107.652 128.183 108.143 127.555 108.143H91.4238C92.4257 107.517 93.3998 106.811 94.3349 106.03C94.3627 106.006 94.3924 105.981 94.4201 105.959H127.905V105.957Z" fill="#D0D5DD"/>
<path d="M127.556 108.559H91.4242C91.239 108.559 91.0742 108.437 91.0242 108.257C90.9724 108.08 91.0464 107.887 91.2038 107.789C92.1983 107.167 93.1613 106.467 94.0687 105.709L94.1464 105.644C94.2224 105.581 94.3224 105.543 94.4205 105.543H127.906C128.332 105.543 128.724 105.717 128.982 106.019C129.237 106.319 129.341 106.707 129.276 107.117C129.146 107.924 128.393 108.559 127.556 108.559ZM92.8057 107.726H127.556C127.978 107.726 128.389 107.385 128.452 106.983C128.478 106.82 128.441 106.669 128.346 106.557C128.246 106.439 128.089 106.374 127.904 106.374H94.5705C94.0039 106.848 93.4131 107.3 92.8057 107.726Z" fill="#D0D5DD"/>
<path d="M154.41 51.4092L153.751 55.55L153.623 56.3481L140.21 140.446H69.1897L65.5693 135.511H135.877L149.417 50.6148L150.206 45.6759L154.41 51.4092Z" fill="#E4E7EC"/>
<path d="M140.21 140.863H69.1915C69.0582 140.863 68.9341 140.8 68.8564 140.693L65.2341 135.757C65.1415 135.631 65.1267 135.463 65.199 135.322C65.2693 135.181 65.4138 135.094 65.5712 135.094H135.523L149.008 50.5482L149.797 45.6093C149.823 45.4426 149.947 45.3093 150.11 45.2704C150.275 45.2315 150.445 45.2926 150.543 45.4296L154.747 51.163C154.814 51.2519 154.84 51.3648 154.823 51.4741L154.036 56.413L140.621 140.513C140.588 140.715 140.414 140.863 140.21 140.863ZM69.4008 140.03H139.853L153.212 56.2815L153.971 51.5148L150.46 46.7259L149.829 50.6796L136.288 135.576C136.256 135.778 136.08 135.928 135.877 135.928H66.3915L69.4008 140.03Z" fill="#F9FAFB"/>
<path d="M144.542 145.385L149.212 151.752H78.9008L74.2305 145.385H144.542Z" fill="#D0D5DD"/>
<path d="M149.212 152.169H78.9008C78.7675 152.169 78.6434 152.106 78.5656 151.998L73.8953 145.631C73.8027 145.506 73.7879 145.337 73.8601 145.196C73.9305 145.056 74.0749 144.969 74.2323 144.969H144.543C144.677 144.969 144.801 145.031 144.879 145.139L149.549 151.506C149.642 151.632 149.656 151.8 149.584 151.941C149.512 152.08 149.369 152.169 149.212 152.169ZM79.1119 151.335H148.39L144.33 145.802H75.0527L79.1119 151.335Z" fill="#F9FAFB"/>
<path d="M158.869 55.55L144.542 145.385H74.2305L75.0175 140.446H140.21L153.749 55.55H158.869Z" fill="#F7F9FC"/>
<path d="M144.542 145.802H74.2306C74.1083 145.802 73.9935 145.748 73.9139 145.656C73.8343 145.563 73.8009 145.441 73.8194 145.32L74.6065 140.383C74.638 140.182 74.8139 140.032 75.0176 140.032H139.855L153.338 55.4852C153.369 55.2834 153.545 55.1334 153.749 55.1334H158.869C158.992 55.1334 159.106 55.1871 159.186 55.2797C159.266 55.3723 159.299 55.4945 159.281 55.6148L144.953 145.45C144.921 145.652 144.747 145.802 144.542 145.802ZM74.7194 144.969H144.186L158.381 55.9667H154.105L140.621 140.513C140.59 140.715 140.414 140.865 140.21 140.865H75.3731L74.7194 144.969Z" fill="#F9FAFB"/>
<path d="M158.869 55.55L163.539 61.9167L149.211 151.752L144.541 145.385L158.869 55.55Z" fill="#E4E7EC"/>
<path d="M149.211 152.169C149.08 152.169 148.956 152.107 148.876 151.998L144.206 145.631C144.139 145.543 144.113 145.43 144.13 145.319L158.458 55.4833C158.484 55.3167 158.608 55.1833 158.771 55.1445C158.935 55.1056 159.106 55.1667 159.204 55.3037L163.874 61.6704C163.941 61.7593 163.967 61.8722 163.95 61.9833L149.623 151.819C149.597 151.985 149.473 152.119 149.31 152.157C149.276 152.165 149.243 152.169 149.211 152.169ZM144.98 145.278L148.956 150.7L163.098 62.0222L159.123 56.6L144.98 145.278Z" fill="#F9FAFB"/>
<path d="M67.1512 108.241L42.8882 128.524C42.8308 128.572 42.7715 128.615 42.7123 128.659C42.6845 128.68 42.6586 128.7 42.6308 128.72C42.5826 128.754 42.5326 128.783 42.4845 128.815C42.4493 128.837 42.4141 128.861 42.3789 128.881C42.353 128.896 42.3252 128.909 42.2993 128.924C42.2345 128.959 42.1678 128.994 42.1012 129.024C42.0771 129.035 42.053 129.044 42.0289 129.054C41.9401 129.093 41.8512 129.126 41.7623 129.156C41.7215 129.17 41.6789 129.183 41.6364 129.196C41.603 129.206 41.5678 129.217 41.5345 129.224C41.4808 129.237 41.4271 129.25 41.3734 129.261C41.3401 129.269 41.3067 129.274 41.2752 129.28C41.216 129.289 41.1586 129.296 41.0993 129.304C41.0715 129.307 41.0438 129.311 41.016 129.313C40.9308 129.32 40.8438 129.324 40.7586 129.324C40.0326 129.324 39.3512 129.057 38.8826 128.524L38.0178 127.539C37.9752 127.491 37.9363 127.441 37.8975 127.389L42.5678 133.756C42.6049 133.807 42.6456 133.857 42.6882 133.906L43.553 134.891C44.0215 135.424 44.703 135.691 45.4289 135.691C45.5141 135.691 45.5993 135.687 45.6863 135.68C45.7141 135.678 45.7419 135.672 45.7697 135.67C45.8289 135.663 45.8863 135.656 45.9456 135.646C45.9789 135.641 46.0123 135.633 46.0438 135.628C46.0975 135.617 46.1512 135.606 46.2049 135.591C46.2401 135.581 46.2734 135.572 46.3067 135.563C46.3308 135.556 46.3567 135.55 46.3808 135.543C46.3975 135.537 46.4141 135.53 46.4326 135.522C46.5234 135.493 46.6123 135.457 46.6993 135.42C46.716 135.413 46.7345 135.407 46.753 135.4C46.7604 135.396 46.766 135.393 46.7734 135.391C46.8401 135.359 46.9049 135.326 46.9715 135.291C46.9956 135.278 47.0197 135.269 47.0438 135.254C47.0475 135.252 47.0493 135.25 47.0512 135.248C47.0863 135.228 47.1215 135.204 47.1567 135.181C47.2012 135.154 47.2475 135.128 47.2919 135.096C47.2956 135.094 47.2993 135.091 47.303 135.087C47.3308 135.069 47.3567 135.046 47.3845 135.026C47.4289 134.993 47.4752 134.961 47.5178 134.926C47.5326 134.915 47.5456 134.904 47.5604 134.891L71.8234 114.607L67.1512 108.241Z" fill="#667185"/>
<path d="M45.4266 136.107C44.5488 136.107 43.771 135.772 43.2377 135.165L42.3729 134.18C42.3229 134.122 42.2748 134.063 42.2303 134.002L37.5618 127.639C37.5618 127.637 37.5599 127.637 37.5599 127.635C37.4248 127.45 37.4636 127.189 37.6488 127.054C37.834 126.919 38.0951 126.957 38.2303 127.143L38.2322 127.146C38.2618 127.187 38.2933 127.226 38.3266 127.265L39.1914 128.25C39.5636 128.674 40.1192 128.907 40.7544 128.907C40.8285 128.907 40.9007 128.904 40.9748 128.896L41.0488 128.887C41.0988 128.881 41.1488 128.876 41.2007 128.867C41.221 128.863 41.2433 128.859 41.2636 128.854L41.2877 128.848C41.334 128.839 41.3822 128.828 41.4285 128.817C41.4581 128.809 41.4896 128.8 41.5192 128.793C41.5562 128.781 41.5914 128.77 41.6285 128.757C41.7062 128.731 41.784 128.702 41.8618 128.669L41.9248 128.643C41.984 128.615 42.0414 128.585 42.0988 128.554L42.1692 128.517C42.184 128.507 42.2007 128.498 42.2155 128.487L42.2933 128.437C42.3266 128.417 42.3581 128.396 42.3914 128.374C42.4025 128.367 42.4136 128.357 42.4248 128.348L42.4785 128.307C42.5248 128.272 42.5729 128.239 42.6173 128.2L66.8803 107.917C66.9692 107.843 67.0822 107.809 67.197 107.822C67.3118 107.835 67.4136 107.896 67.4822 107.989L72.1525 114.356C72.2822 114.533 72.2525 114.781 72.084 114.922L47.7766 135.25C47.7377 135.281 47.6988 135.311 47.6581 135.339L47.6044 135.378C47.5822 135.394 47.5599 135.411 47.5377 135.428C47.4877 135.463 47.4488 135.487 47.4099 135.511L47.3414 135.554C47.3155 135.57 47.2896 135.587 47.2636 135.602C47.2562 135.607 47.2488 135.611 47.2414 135.615C47.2248 135.624 47.2025 135.635 47.1822 135.644L47.1655 135.652C47.0914 135.691 47.0192 135.73 46.9433 135.765C46.9451 135.765 46.9322 135.77 46.921 135.776C46.9025 135.783 46.8822 135.793 46.8618 135.8C46.7618 135.843 46.6618 135.881 46.5618 135.915C46.5451 135.922 46.5229 135.93 46.5025 135.937C46.484 135.943 46.4618 135.948 46.4414 135.954L46.421 135.959C46.3822 135.97 46.3433 135.981 46.3044 135.991C46.2433 136.006 46.184 136.02 46.1229 136.031L46.1025 136.035C46.071 136.041 46.0414 136.048 46.0099 136.054C45.9433 136.065 45.8766 136.074 45.8118 136.081L45.7877 136.085C45.7636 136.089 45.7414 136.091 45.7173 136.093C45.6136 136.104 45.5192 136.107 45.4266 136.107ZM40.0896 129.674L42.9044 133.511C42.934 133.552 42.9673 133.593 43.0007 133.631L43.8655 134.617C44.2803 135.091 44.9322 135.326 45.6488 135.265L45.721 135.256C45.771 135.25 45.8229 135.244 45.8729 135.235C45.8933 135.231 45.9155 135.228 45.9359 135.222L45.9581 135.219C46.0062 135.209 46.0525 135.198 46.0988 135.187C46.1285 135.18 46.1581 135.17 46.1896 135.163L46.2525 135.146C46.2636 135.141 46.2822 135.133 46.2988 135.128C46.3766 135.102 46.4562 135.072 46.534 135.037C46.5488 135.03 46.5655 135.024 46.5822 135.019L46.5951 135.013C46.6562 134.985 46.7136 134.954 46.7729 134.922C46.7877 134.913 46.8044 134.906 46.8192 134.898L46.8322 134.891C46.8359 134.887 46.8414 134.885 46.8451 134.883C46.8581 134.876 46.8748 134.865 46.8914 134.856L46.9785 134.802C47.0044 134.787 47.0303 134.77 47.0544 134.754C47.0766 134.737 47.0877 134.73 47.0988 134.72L47.1692 134.667C47.197 134.646 47.2248 134.626 47.2525 134.604L47.2896 134.574L71.2544 114.541L67.0785 108.846L43.1544 128.844C43.0951 128.893 43.0359 128.939 42.9748 128.983L42.934 129.015C42.9118 129.031 42.8914 129.048 42.8692 129.063C42.8248 129.093 42.7803 129.12 42.7359 129.148L42.671 129.189C42.6433 129.207 42.6155 129.224 42.5877 129.241C42.5655 129.254 42.5433 129.265 42.521 129.276L42.497 129.289C42.4248 129.328 42.3507 129.367 42.2766 129.402C42.2562 129.411 42.2359 129.42 42.2136 129.428L42.1933 129.437C42.0951 129.48 41.9951 129.519 41.8933 129.552C41.847 129.569 41.7988 129.583 41.7525 129.596C41.7136 129.607 41.6748 129.619 41.6359 129.628C41.5766 129.643 41.5155 129.657 41.4544 129.669L41.434 129.672C41.4044 129.678 41.3729 129.685 41.3433 129.689C41.2766 129.7 41.2118 129.709 41.1451 129.717L41.1192 129.72C41.097 129.724 41.0729 129.726 41.0488 129.728C40.9451 129.737 40.8488 129.741 40.7562 129.741C40.5266 129.741 40.3025 129.719 40.0896 129.674Z" fill="#F9FAFB"/>
<path d="M102.766 85.8852C102.651 85.1464 102.488 84.4149 102.277 83.7001C101.619 81.4519 100.494 79.3501 98.8843 77.5112C95.4305 73.576 90.3954 71.6093 85.0472 71.6093C81.8602 71.6093 78.5657 72.3056 75.4268 73.7038C73.2898 74.6538 71.2268 75.9241 69.3194 77.5186C60.8954 84.5593 58.3824 95.5223 62.8991 103.393L38.6324 123.68C37.3583 124.743 37.0843 126.47 38.0176 127.539L38.8824 128.524C39.3491 129.057 40.0343 129.326 40.7565 129.326C41.4824 129.326 42.2509 129.057 42.8861 128.524L67.1509 108.243C67.9435 108.845 68.7843 109.378 69.6639 109.833C72.3602 111.228 75.438 111.928 78.625 111.928C82.9102 111.928 87.3935 110.669 91.425 108.143C92.4287 107.517 93.4009 106.811 94.4231 105.957C97.4805 103.378 99.7509 100.283 101.181 97.0112C101.494 96.2945 101.771 95.5612 102.003 94.826C102.953 91.8519 103.218 88.7871 102.766 85.8852ZM90.125 101.222C87.0009 103.835 83.2454 105.139 79.6972 105.139C76.1509 105.139 72.812 103.833 70.5231 101.222C65.9398 96.0001 67.2898 87.5371 73.5361 82.3186C76.6602 79.7056 80.4157 78.4019 83.9639 78.4019C87.5102 78.4019 90.8491 79.7075 93.138 82.3186C93.2046 82.3945 93.2676 82.4686 93.3268 82.5445C93.625 82.9038 93.8991 83.2797 94.1435 83.663C94.5861 84.3593 94.9361 85.0908 95.2065 85.8575C95.3454 86.2464 95.4602 86.6445 95.5509 87.0482C96.0509 89.2093 95.925 91.5352 95.2065 93.7908C95.0954 94.1426 94.9676 94.4963 94.8268 94.8445C94.525 95.5926 94.1583 96.3278 93.7268 97.0408C93.5194 97.3834 93.2991 97.7223 93.0602 98.0556C92.2565 99.1945 91.2731 100.265 90.125 101.222Z" fill="#98A2B3"/>
<path d="M40.756 129.743C39.8783 129.743 39.1005 129.407 38.569 128.798L37.7042 127.813C37.2264 127.265 36.9968 126.544 37.056 125.785C37.1283 124.878 37.6042 123.993 38.3653 123.359L62.3671 103.294C60.2542 99.4241 59.7153 94.7352 60.8523 90.0463C62.0283 85.2 64.9412 80.6371 69.0542 77.1982C70.9505 75.613 73.0394 74.3093 75.2597 73.3223C78.3894 71.9297 81.7746 71.1926 85.0505 71.1926C90.7542 71.1926 95.7801 73.3389 99.2005 77.2371C100.819 79.0852 101.989 81.2204 102.68 83.5834C102.893 84.3074 103.062 85.0593 103.18 85.8204C103.639 88.763 103.369 91.9223 102.402 94.9537C102.171 95.6889 101.889 96.4371 101.565 97.1778C100.069 100.602 97.6912 103.746 94.6931 106.276C93.6783 107.124 92.682 107.85 91.6468 108.494C87.6283 111.011 83.1264 112.343 78.6264 112.343C75.3468 112.343 72.182 111.602 69.4746 110.202C68.6783 109.791 67.9042 109.309 67.1672 108.772L43.1523 128.844C42.4616 129.422 41.6116 129.743 40.756 129.743ZM85.0486 72.026C81.8894 72.026 78.6209 72.7371 75.5968 74.0834C73.4468 75.0389 71.4246 76.3019 69.5875 77.8371C61.4134 84.6686 58.7523 95.3297 63.2616 103.183C63.3616 103.359 63.3227 103.582 63.1671 103.711L38.8986 123.998C38.3097 124.491 37.9394 125.165 37.8857 125.85C37.8431 126.385 38.0005 126.887 38.3301 127.263L39.1949 128.248C39.5671 128.674 40.1209 128.907 40.756 128.907C41.4153 128.907 42.0783 128.657 42.619 128.204L66.8838 107.922C67.0338 107.798 67.2486 107.793 67.4042 107.911C68.1801 108.502 69.0042 109.024 69.856 109.463C72.4449 110.802 75.4783 111.511 78.6264 111.511C82.969 111.511 87.319 110.224 91.2042 107.791C92.206 107.165 93.1727 106.461 94.156 105.639C97.056 103.194 99.3523 100.154 100.799 96.8463C101.112 96.1315 101.382 95.4111 101.606 94.7037C102.534 91.7926 102.793 88.7667 102.354 85.95C102.241 85.226 102.082 84.5093 101.878 83.8204C101.223 81.5741 100.11 79.5445 98.5709 77.7871C95.3116 74.0723 90.5079 72.026 85.0486 72.026ZM79.6968 105.556C75.8727 105.556 72.5023 104.115 70.2079 101.496C68.1597 99.163 67.1727 96.0741 67.4264 92.7963C67.7375 88.776 69.8671 84.8389 73.2672 81.9982C76.3634 79.4093 80.1616 77.9834 83.9634 77.9834C87.7875 77.9834 91.1579 79.4241 93.4523 82.0426C93.5227 82.1223 93.5894 82.2019 93.6542 82.2834C93.9542 82.6445 94.2394 83.0352 94.4968 83.4371C94.9431 84.1371 95.3153 84.9037 95.6023 85.7148C95.7449 86.1148 95.8653 86.5315 95.9597 86.9537C96.4727 89.1667 96.3505 91.5741 95.606 93.9148C95.4894 94.2815 95.3579 94.6463 95.2153 95C94.906 95.7685 94.5264 96.526 94.0857 97.2556C93.8616 97.6241 93.6394 97.9648 93.4023 98.2982C92.5579 99.4889 91.5449 100.58 90.3931 101.543C87.2968 104.13 83.4986 105.556 79.6968 105.556ZM83.9634 78.8167C80.3579 78.8167 76.7486 80.1741 73.8023 82.6371C70.5727 85.3352 68.5505 89.063 68.2579 92.8611C68.0209 95.913 68.9375 98.7834 70.8357 100.946C72.969 103.382 76.1171 104.722 79.6968 104.722C83.3023 104.722 86.9116 103.365 89.8579 100.902C90.956 99.9852 91.919 98.9463 92.7227 97.8148C92.9468 97.4982 93.1597 97.176 93.3727 96.8241C93.7894 96.1334 94.1486 95.4148 94.4431 94.6871C94.5783 94.3537 94.7023 94.0093 94.8116 93.663C95.5097 91.4648 95.6264 89.2093 95.1468 87.1389C95.0597 86.7482 94.9486 86.363 94.8172 85.9945C94.5505 85.2408 94.206 84.5315 93.7949 83.8852C93.5579 83.513 93.2931 83.15 93.0097 82.8093C92.9486 82.7334 92.8894 82.663 92.8283 82.5926C90.6912 80.1574 87.5431 78.8167 83.9634 78.8167Z" fill="#F9FAFB"/>
<path d="M80.2041 89.0074C80.1671 88.9019 80.1208 88.8019 80.0578 88.7074C80.0189 88.6426 79.9727 88.5815 79.9208 88.5222C79.6078 88.1667 79.1523 87.9871 78.6671 87.9871C78.6282 87.9871 78.5893 87.9889 78.5486 87.9908C78.0986 88.0167 77.6338 88.1945 77.2412 88.5222C76.7449 88.9371 76.4745 89.5019 76.4597 90.0426C76.4486 90.4315 76.5689 90.8074 76.8301 91.1056C77.143 91.4611 77.5986 91.6408 78.0838 91.6408C78.569 91.6408 79.0819 91.463 79.5078 91.1056C79.7097 90.9352 79.8764 90.7426 80.0023 90.5334C80.0615 90.4371 80.1097 90.3371 80.1523 90.2334C80.319 89.826 80.3393 89.3908 80.2041 89.0074Z" fill="#F7F9FC"/>
<path d="M78.6871 85.7241C78.6223 85.5389 78.5353 85.363 78.4297 85.1963C78.3575 85.0834 78.2797 84.9759 78.189 84.8722C77.6371 84.2426 76.8316 83.9278 75.9778 83.9278C75.1982 83.9278 74.3797 84.1889 73.6704 84.7111C73.6019 84.763 73.5334 84.8148 73.4667 84.8704C71.9612 86.1259 71.6371 88.1667 72.7408 89.4241C72.7908 89.4796 72.8408 89.5333 72.8945 89.5833C73.4353 90.1056 74.1723 90.3648 74.9519 90.3648C75.4519 90.3648 75.9704 90.2574 76.4649 90.0426C76.8149 89.8908 77.1519 89.6834 77.4649 89.4241C77.8204 89.1241 78.113 88.7834 78.3334 88.4167C78.4167 88.2778 78.4908 88.1352 78.5519 87.9908C78.5667 87.9556 78.5816 87.9222 78.5945 87.8871C78.8871 87.1667 78.9223 86.4 78.6871 85.7241Z" fill="#F7F9FC"/>
<path d="M140.21 140.446H69.1897L65.5693 135.511H135.877L140.21 140.446Z" fill="#D0D5DD"/>
<path d="M140.21 140.863H69.1915C69.0582 140.863 68.9341 140.8 68.8564 140.693L65.2341 135.757C65.1415 135.631 65.1267 135.463 65.199 135.322C65.2693 135.181 65.4138 135.094 65.5712 135.094H135.879C135.999 135.094 136.112 135.146 136.192 135.237L140.525 140.172C140.632 140.294 140.658 140.47 140.592 140.619C140.521 140.769 140.373 140.863 140.21 140.863ZM69.4008 140.03H139.288L135.686 135.928H66.3897L69.4008 140.03Z" fill="#F9FAFB"/>
<path d="M131.454 83.7C132.082 83.7 132.51 84.1889 132.414 84.7945C132.317 85.3963 131.732 85.8852 131.106 85.8852H102.765C102.651 85.1463 102.488 84.413 102.278 83.7H131.454Z" fill="#D0D5DD"/>
<path d="M131.106 86.3018H102.765C102.56 86.3018 102.386 86.1518 102.354 85.9481C102.243 85.2278 102.084 84.5111 101.878 83.8167C101.841 83.6907 101.865 83.5537 101.945 83.45C102.023 83.3444 102.147 83.2833 102.278 83.2833H131.456C131.882 83.2833 132.275 83.4574 132.532 83.7592C132.788 84.0592 132.893 84.45 132.826 84.8592C132.697 85.6685 131.941 86.3018 131.106 86.3018ZM103.119 85.4685H131.106C131.528 85.4685 131.939 85.1296 132.002 84.7278C132.028 84.563 131.991 84.4111 131.897 84.3C131.797 84.1815 131.639 84.1167 131.454 84.1167H102.825C102.941 84.563 103.039 85.0148 103.119 85.4685Z" fill="#D0D5DD"/>
<path d="M133.23 72.5722C133.858 72.5722 134.285 73.0611 134.189 73.6666C134.093 74.2685 133.508 74.7574 132.882 74.7574H103.087C102.461 74.7574 102.033 74.2685 102.13 73.6666C102.226 73.0629 102.809 72.5722 103.435 72.5722H133.23Z" fill="#D0D5DD"/>
<path d="M132.882 75.1741H103.088C102.662 75.1741 102.271 75.0019 102.013 74.7C101.758 74.4 101.654 74.0111 101.719 73.6019C101.849 72.7926 102.602 72.1574 103.436 72.1574H133.23C133.656 72.1574 134.049 72.3315 134.306 72.6333C134.562 72.9333 134.667 73.3241 134.6 73.7333C134.473 74.5407 133.717 75.1741 132.882 75.1741ZM103.436 72.9889C103.015 72.9889 102.606 73.3296 102.541 73.7315C102.515 73.8963 102.552 74.0481 102.647 74.1593C102.747 74.2759 102.902 74.3407 103.088 74.3407H132.882C133.304 74.3407 133.715 74.0019 133.778 73.6C133.804 73.4352 133.767 73.2833 133.673 73.1722C133.573 73.0537 133.415 72.9889 133.23 72.9889H103.436Z" fill="#D0D5DD"/>
<path d="M126.13 117.087C126.758 117.087 127.186 117.576 127.09 118.178C126.993 118.782 126.408 119.272 125.78 119.272H81.8303C81.2062 119.272 80.7766 118.783 80.8729 118.178C80.9692 117.576 81.5543 117.087 82.1784 117.087H126.13Z" fill="#D0D5DD"/>
<path d="M125.782 119.689H81.8305C81.4064 119.689 81.0157 119.517 80.7583 119.215C80.5027 118.915 80.3972 118.524 80.4639 118.113C80.5935 117.304 81.3472 116.67 82.1805 116.67H126.131C126.556 116.67 126.949 116.844 127.206 117.146C127.462 117.446 127.566 117.835 127.501 118.244C127.373 119.054 126.618 119.689 125.782 119.689ZM82.1787 117.504C81.7583 117.504 81.349 117.843 81.2842 118.244C81.2583 118.409 81.2953 118.563 81.3898 118.674C81.4898 118.793 81.6453 118.857 81.8287 118.857H125.781C126.203 118.857 126.614 118.517 126.677 118.115C126.703 117.952 126.666 117.8 126.571 117.689C126.471 117.57 126.314 117.506 126.129 117.506H82.1787V117.504Z" fill="#D0D5DD"/>
<path d="M107.436 92.2518C107.402 92.0389 107.365 91.8259 107.324 91.6148C107.321 91.5944 107.317 91.5741 107.313 91.5537C107.306 91.5148 107.295 91.4759 107.287 91.4352C107.252 91.263 107.213 91.0907 107.173 90.9204C107.158 90.8574 107.143 90.7926 107.126 90.7296C107.071 90.5074 107.012 90.287 106.949 90.0685C106.861 89.7704 106.762 89.4759 106.658 89.1833C106.645 89.1463 106.636 89.1093 106.621 89.0722C106.608 89.0333 106.589 88.9963 106.576 88.9593C106.478 88.6926 106.374 88.4296 106.261 88.1685C106.252 88.1444 106.243 88.1222 106.232 88.0981C106.11 87.8185 105.976 87.5426 105.839 87.2685C105.823 87.237 105.81 87.2055 105.795 87.1741C105.773 87.1296 105.745 87.0852 105.723 87.0407C105.628 86.8611 105.53 86.6852 105.43 86.5074C105.387 86.4352 105.349 86.3611 105.304 86.2889C105.161 86.0481 105.013 85.8093 104.856 85.5741C104.856 85.5722 104.854 85.5722 104.854 85.5704C104.723 85.3741 104.587 85.1796 104.447 84.987L99.7763 78.6204C99.9189 78.813 100.054 79.0093 100.187 79.2074C100.345 79.4426 100.493 79.6815 100.636 79.9222C100.678 79.9944 100.719 80.0685 100.761 80.1407C100.861 80.3167 100.96 80.4944 101.054 80.6722C101.095 80.7481 101.134 80.8241 101.173 80.9C101.312 81.1741 101.443 81.45 101.565 81.7296C101.574 81.7518 101.584 81.7759 101.593 81.8C101.706 82.0611 101.81 82.3241 101.908 82.5907C101.936 82.6648 101.963 82.7407 101.989 82.8148C102.093 83.1074 102.191 83.4018 102.278 83.7C102.343 83.9185 102.4 84.1389 102.456 84.3611C102.473 84.4259 102.487 84.4889 102.502 84.5537C102.543 84.7241 102.58 84.8944 102.615 85.0667C102.628 85.1278 102.641 85.187 102.652 85.2481C102.693 85.4593 102.732 85.6722 102.763 85.8852C103.215 88.787 102.95 91.85 102.002 94.8296C101.771 95.5648 101.493 96.2944 101.178 97.0148C101.113 97.163 101.045 97.3093 100.978 97.4555C100.924 97.5704 100.871 97.6852 100.815 97.8C100.769 97.8944 100.723 97.9907 100.676 98.0852C100.619 98.2 100.56 98.313 100.5 98.4278C100.452 98.5222 100.402 98.6148 100.352 98.7074C100.291 98.8222 100.228 98.9352 100.163 99.05C100.111 99.1426 100.06 99.2333 100.008 99.3259C99.9411 99.4389 99.8745 99.5537 99.8059 99.6667C99.7559 99.75 99.7078 99.8315 99.6559 99.9148C99.4782 100.202 99.2948 100.487 99.1041 100.769C99.0671 100.824 99.0282 100.88 98.9893 100.937C98.793 101.224 98.5893 101.507 98.3782 101.789C98.3522 101.822 98.3263 101.856 98.3022 101.887C98.1337 102.107 97.9615 102.326 97.7856 102.543C97.7374 102.602 97.6893 102.661 97.6393 102.722C97.4393 102.963 97.2337 103.204 97.0226 103.439C96.9893 103.476 96.9559 103.511 96.9226 103.548C96.7504 103.739 96.5745 103.926 96.3948 104.113C96.3356 104.176 96.2745 104.237 96.2133 104.298C96.0245 104.491 95.83 104.683 95.6337 104.87C95.6059 104.898 95.5782 104.926 95.5504 104.952C95.4319 105.063 95.3115 105.172 95.1911 105.283C95.1263 105.343 95.0615 105.404 94.9948 105.463C94.8059 105.631 94.6152 105.796 94.4208 105.961C94.1782 106.165 93.9374 106.357 93.6985 106.544C93.6819 106.557 93.6652 106.57 93.6485 106.583C93.4245 106.757 93.2022 106.924 92.98 107.087C92.943 107.115 92.9041 107.143 92.8671 107.17C92.6671 107.315 92.4671 107.456 92.2671 107.591C91.9874 107.781 91.7059 107.967 91.4245 108.144C91.1467 108.319 90.8671 108.485 90.5837 108.646C90.5097 108.689 90.4356 108.728 90.3615 108.77C90.1134 108.909 89.8652 109.044 89.6152 109.174C89.5208 109.222 89.4263 109.272 89.3319 109.32C89.0578 109.459 88.7819 109.591 88.5041 109.719C88.4541 109.741 88.4059 109.765 88.3559 109.787C88.2911 109.817 88.2245 109.844 88.1596 109.872C87.9782 109.952 87.7967 110.031 87.6134 110.106C87.5226 110.143 87.4319 110.178 87.3411 110.215C87.1819 110.278 87.0208 110.341 86.8615 110.402C86.7652 110.439 86.6671 110.474 86.5708 110.509C86.4134 110.567 86.2559 110.62 86.0985 110.674C86.0022 110.707 85.9059 110.739 85.8078 110.77C85.6782 110.813 85.5467 110.852 85.4171 110.893C85.2578 110.941 85.0967 110.989 84.9374 111.035C84.8134 111.07 84.6893 111.104 84.5634 111.137C84.4041 111.18 84.2467 111.22 84.0874 111.259C83.9615 111.291 83.8356 111.32 83.7115 111.348C83.5522 111.385 83.393 111.419 83.2337 111.452C83.1097 111.478 82.9837 111.504 82.8596 111.526C82.6985 111.556 82.5374 111.585 82.3763 111.611C82.2541 111.631 82.13 111.652 82.0078 111.67C81.843 111.694 81.6782 111.717 81.5152 111.739C81.3967 111.754 81.2763 111.77 81.1578 111.785C80.9856 111.806 80.8152 111.82 80.6448 111.835C80.5337 111.844 80.4208 111.857 80.3096 111.865C80.1208 111.88 79.9337 111.889 79.7467 111.898C79.6522 111.904 79.5596 111.909 79.4652 111.913C79.1837 111.924 78.9041 111.93 78.6245 111.93C75.4374 111.93 72.3615 111.231 69.6634 109.835C68.7819 109.38 67.9411 108.848 67.1504 108.243L71.8208 114.609C72.6115 115.215 73.4522 115.744 74.3337 116.202C77.03 117.598 80.1078 118.296 83.293 118.296C83.5726 118.296 83.8522 118.291 84.1337 118.28C84.2282 118.276 84.3208 118.269 84.4152 118.265C84.6022 118.256 84.7911 118.246 84.9782 118.231C85.0893 118.222 85.2004 118.211 85.3115 118.202C85.4837 118.187 85.6541 118.17 85.8263 118.152C85.9448 118.139 86.0634 118.122 86.1819 118.107C86.3467 118.085 86.5115 118.065 86.6763 118.039C86.7985 118.02 86.9226 118 87.0448 117.98C87.2059 117.952 87.3671 117.924 87.5282 117.894C87.6522 117.87 87.7782 117.846 87.9022 117.82C88.0615 117.787 88.2208 117.754 88.38 117.717C88.5059 117.689 88.63 117.659 88.7541 117.628C88.9134 117.589 89.0726 117.548 89.2319 117.506C89.3559 117.472 89.48 117.439 89.6041 117.404C89.7652 117.357 89.9245 117.309 90.0856 117.261C90.1652 117.237 90.2467 117.215 90.3263 117.191C90.3763 117.174 90.4263 117.157 90.4763 117.141C90.5726 117.109 90.6689 117.076 90.7671 117.044C90.9245 116.991 91.0819 116.937 91.2393 116.88C91.3356 116.844 91.4337 116.809 91.53 116.772C91.6911 116.713 91.8504 116.65 92.0096 116.585C92.1004 116.548 92.1911 116.513 92.2819 116.476C92.4652 116.4 92.6467 116.322 92.8282 116.243C92.893 116.213 92.9597 116.187 93.0245 116.157C93.0356 116.152 93.0485 116.146 93.0597 116.143C93.0967 116.126 93.1337 116.106 93.1708 116.089C93.4485 115.961 93.7245 115.83 93.9985 115.691C94.093 115.643 94.1874 115.594 94.2819 115.544C94.5319 115.415 94.7819 115.28 95.0282 115.141C95.0819 115.111 95.1356 115.085 95.1874 115.054C95.2078 115.043 95.23 115.028 95.2504 115.017C95.5319 114.856 95.8134 114.689 96.0911 114.515C96.3745 114.337 96.6541 114.152 96.9337 113.961C96.9596 113.944 96.9837 113.928 97.0097 113.911C97.1837 113.791 97.3596 113.667 97.5337 113.541C97.5708 113.513 97.6097 113.485 97.6467 113.457C97.8689 113.294 98.0911 113.128 98.3134 112.954C98.33 112.941 98.3467 112.928 98.3634 112.915C98.4819 112.822 98.6022 112.728 98.7208 112.63C98.8411 112.531 98.9633 112.431 99.0837 112.33C99.2782 112.165 99.4689 112 99.6578 111.831C99.7245 111.772 99.7874 111.713 99.8522 111.654C99.9726 111.543 100.095 111.433 100.213 111.32C100.219 111.315 100.226 111.309 100.232 111.304C100.254 111.283 100.274 111.261 100.295 111.241C100.493 111.052 100.686 110.859 100.876 110.667C100.937 110.606 100.997 110.543 101.056 110.481C101.236 110.294 101.411 110.107 101.584 109.917C101.61 109.889 101.637 109.861 101.662 109.833C101.669 109.826 101.674 109.817 101.682 109.809C101.893 109.572 102.099 109.333 102.299 109.093C102.349 109.033 102.397 108.974 102.445 108.915C102.621 108.698 102.795 108.48 102.961 108.259C102.98 108.233 103.002 108.209 103.021 108.183C103.026 108.176 103.032 108.169 103.037 108.161C103.249 107.88 103.452 107.596 103.649 107.309C103.687 107.254 103.724 107.198 103.763 107.143C103.954 106.859 104.139 106.574 104.317 106.287C104.328 106.269 104.341 106.252 104.352 106.233C104.391 106.169 104.428 106.104 104.467 106.039C104.536 105.926 104.602 105.813 104.669 105.698C104.723 105.606 104.773 105.513 104.824 105.422C104.887 105.309 104.95 105.196 105.011 105.081C105.061 104.989 105.111 104.894 105.16 104.8C105.219 104.687 105.278 104.572 105.334 104.457C105.382 104.363 105.428 104.269 105.474 104.172C105.53 104.057 105.584 103.943 105.637 103.828C105.66 103.778 105.686 103.73 105.708 103.68C105.752 103.581 105.795 103.485 105.837 103.387C106.154 102.667 106.43 101.937 106.662 101.202C107.623 98.2185 107.887 95.1555 107.436 92.2518Z" fill="#D0D5DD"/>
<path d="M83.2935 118.713C80.012 118.713 76.849 117.972 74.1416 116.57C73.2324 116.1 72.3675 115.552 71.5657 114.939C71.5342 114.915 71.5064 114.887 71.4824 114.854L66.812 108.487C66.6898 108.32 66.7083 108.089 66.8564 107.943C67.0046 107.798 67.2361 107.783 67.4009 107.909C68.162 108.493 68.9861 109.015 69.8527 109.463C72.4416 110.804 75.4731 111.511 78.6212 111.511C78.8824 111.511 79.1601 111.506 79.4453 111.494C79.499 111.493 79.5509 111.489 79.6046 111.485L79.7212 111.478C79.9064 111.469 80.0898 111.459 80.2749 111.444C80.3472 111.439 80.4194 111.431 80.4898 111.426L80.6027 111.415C80.7749 111.4 80.9416 111.383 81.1064 111.365C81.1935 111.356 81.2805 111.343 81.3675 111.331L81.4583 111.32C81.6194 111.3 81.7805 111.278 81.9435 111.254C82.0509 111.237 82.1601 111.219 82.2675 111.2L82.3046 111.194C82.462 111.169 82.6212 111.141 82.7787 111.111C82.9009 111.087 83.0231 111.063 83.1472 111.037C83.3027 111.006 83.4601 110.97 83.6157 110.935C83.7398 110.907 83.862 110.878 83.9861 110.848C84.1416 110.809 84.299 110.77 84.4546 110.728C84.5768 110.694 84.699 110.663 84.8212 110.628C84.9787 110.583 85.1361 110.535 85.2935 110.487L85.3453 110.47C85.4564 110.437 85.5675 110.402 85.6768 110.367C85.7731 110.335 85.8675 110.304 85.962 110.272C86.1175 110.22 86.2712 110.167 86.4268 110.109C86.5212 110.074 86.6175 110.041 86.712 110.004C86.8694 109.944 87.0268 109.883 87.1842 109.82L87.2564 109.793C87.3212 109.767 87.3879 109.741 87.4527 109.715C87.6324 109.641 87.8101 109.563 87.9898 109.485L88.0749 109.448C88.1101 109.433 88.1472 109.417 88.1824 109.402L88.3268 109.333C88.5935 109.211 88.8675 109.08 89.1398 108.943C89.2324 108.896 89.3268 108.848 89.4194 108.8C89.6638 108.674 89.9101 108.541 90.1546 108.404L90.2453 108.354C90.2879 108.33 90.3305 108.307 90.3731 108.283C90.6768 108.109 90.9472 107.948 91.199 107.789C91.4564 107.628 91.7268 107.45 92.0287 107.244C92.225 107.109 92.4231 106.972 92.6194 106.83L92.7305 106.748C92.9712 106.572 93.1861 106.409 93.3879 106.252L93.4379 106.211C93.6879 106.015 93.9212 105.826 94.1472 105.637C94.3379 105.476 94.525 105.313 94.7101 105.148C94.749 105.113 94.7861 105.078 94.825 105.043L94.9509 104.928C95.0527 104.835 95.1564 104.741 95.2564 104.646L95.3398 104.567C95.5268 104.387 95.7138 104.204 95.912 104.002C95.9712 103.941 96.0305 103.88 96.0898 103.819C96.2657 103.635 96.4398 103.45 96.6083 103.263L96.7064 103.157C96.9027 102.939 97.1009 102.707 97.3138 102.452L97.4583 102.276C97.6416 102.052 97.8083 101.841 97.9657 101.631L98.0416 101.535C98.2342 101.28 98.4305 101.006 98.6416 100.698L98.7546 100.533C98.9472 100.25 99.1287 99.9667 99.2972 99.6944C99.3398 99.6241 99.3824 99.5537 99.4249 99.4833L99.4435 99.4518C99.5101 99.3407 99.5768 99.2296 99.6416 99.1167C99.6879 99.037 99.7324 98.9574 99.7768 98.8778L99.7953 98.8444C99.8583 98.7333 99.9194 98.6204 99.9805 98.5093C100.031 98.4185 100.079 98.3259 100.127 98.2333C100.184 98.1222 100.242 98.0093 100.299 97.8981C100.345 97.8056 100.392 97.713 100.436 97.6185C100.49 97.5056 100.543 97.3944 100.595 97.2815L100.612 97.2426C100.673 97.1111 100.734 96.9796 100.792 96.8481C101.105 96.1333 101.379 95.413 101.601 94.7037C102.529 91.7926 102.786 88.7667 102.347 85.95C102.318 85.7574 102.282 85.5537 102.238 85.3278L102.201 85.15C102.166 84.9815 102.131 84.8148 102.09 84.6481L102.043 84.4592C101.982 84.213 101.927 84.0074 101.869 83.8167C101.793 83.5592 101.705 83.2852 101.586 82.9518C101.56 82.8796 101.534 82.8055 101.506 82.7333C101.401 82.45 101.301 82.1981 101.199 81.963L101.171 81.8944C101.064 81.6481 100.94 81.3852 100.788 81.087C100.751 81.013 100.712 80.9389 100.673 80.8648C100.581 80.6907 100.486 80.5185 100.388 80.3463L100.349 80.2796C100.321 80.2315 100.293 80.1815 100.264 80.1333C100.108 79.8722 99.9657 79.6444 99.8268 79.437C99.6972 79.2426 99.562 79.05 99.4268 78.8648C99.2916 78.6796 99.3305 78.4185 99.5157 78.2833C99.7009 78.1481 99.962 78.187 100.097 78.3722L100.099 78.3741L104.768 84.7389C104.91 84.9333 105.051 85.1352 105.186 85.337C105.188 85.3407 105.19 85.3444 105.193 85.3481C105.34 85.5685 105.488 85.8055 105.649 86.0741C105.681 86.1259 105.708 86.1778 105.738 86.2278L105.777 86.2963C105.881 86.4778 105.981 86.6593 106.077 86.8426L106.103 86.8907C106.119 86.9204 106.136 86.95 106.151 86.9796C106.162 87 106.171 87.0222 106.181 87.0426L106.195 87.0759C106.353 87.387 106.484 87.6648 106.599 87.9278L106.629 87.9981C106.738 88.2537 106.843 88.5185 106.953 88.8111L106.968 88.85C106.979 88.8759 106.99 88.9018 106.999 88.9296C107.008 88.9537 107.016 88.9796 107.023 89.0055L107.036 89.0444C107.158 89.387 107.253 89.6759 107.332 89.95C107.392 90.1518 107.449 90.3667 107.516 90.6259C107.529 90.6759 107.54 90.7278 107.553 90.7778L107.564 90.8222C107.606 90.9981 107.645 91.1741 107.681 91.35L107.692 91.3963C107.697 91.4204 107.703 91.4444 107.708 91.4704L107.719 91.5352C107.766 91.7759 107.803 91.9889 107.834 92.1889C108.292 95.1333 108.025 98.2907 107.058 101.322C106.827 102.056 106.543 102.806 106.218 103.548C106.175 103.646 106.131 103.746 106.086 103.844C106.071 103.876 106.058 103.906 106.043 103.935L106.014 103.996C105.96 104.113 105.905 104.23 105.849 104.344C105.803 104.443 105.755 104.539 105.706 104.635C105.649 104.752 105.59 104.867 105.529 104.983C105.479 105.08 105.429 105.174 105.377 105.27C105.314 105.387 105.251 105.502 105.186 105.617L105.158 105.667C105.116 105.744 105.071 105.822 105.027 105.898C104.96 106.015 104.892 106.13 104.821 106.244L104.773 106.324C104.751 106.363 104.727 106.402 104.705 106.441L104.679 106.481C104.493 106.78 104.305 107.072 104.106 107.365L103.99 107.533C103.769 107.854 103.566 108.137 103.368 108.4L103.29 108.502C103.127 108.715 102.951 108.941 102.764 109.169L102.745 109.193C102.703 109.244 102.66 109.298 102.616 109.35C102.395 109.615 102.192 109.854 101.988 110.08L101.966 110.106C101.951 110.122 101.934 110.141 101.918 110.157L101.886 110.191C101.71 110.383 101.532 110.574 101.351 110.763C101.29 110.826 101.229 110.889 101.168 110.952C100.962 111.161 100.768 111.352 100.577 111.535L100.555 111.557C100.54 111.572 100.527 111.585 100.512 111.6C100.51 111.602 100.497 111.613 100.495 111.615C100.392 111.713 100.286 111.809 100.181 111.906L100.053 112.024C100.012 112.061 99.9712 112.1 99.9286 112.137C99.7379 112.307 99.5435 112.476 99.3453 112.643C99.2212 112.746 99.099 112.848 98.9768 112.946C98.8546 113.044 98.7342 113.141 98.6138 113.235L98.5638 113.276C98.3527 113.441 98.1305 113.609 97.8861 113.787L97.7712 113.872C97.5935 114 97.4157 114.128 97.2379 114.25C97.2212 114.261 97.2046 114.272 97.1879 114.283L97.1601 114.302C96.8509 114.513 96.5694 114.696 96.3027 114.865C96.0379 115.031 95.7583 115.198 95.449 115.376L95.3842 115.415C95.3527 115.433 95.3194 115.45 95.2879 115.467C95.2657 115.478 95.2435 115.489 95.2231 115.502C94.9694 115.644 94.7138 115.781 94.4638 115.911C94.3675 115.961 94.2712 116.011 94.1749 116.059C93.8916 116.202 93.6083 116.337 93.3342 116.463L93.2916 116.483C93.2675 116.494 93.2435 116.507 93.2194 116.517L93.1935 116.528C93.1435 116.55 93.1027 116.569 93.062 116.585L92.9842 116.619C92.799 116.7 92.6138 116.78 92.4287 116.856C92.3638 116.883 92.2972 116.909 92.2305 116.935L92.1527 116.967C91.9898 117.031 91.8268 117.094 91.6638 117.156C91.5657 117.193 91.4675 117.228 91.3694 117.265C91.2101 117.322 91.049 117.378 90.8898 117.433C90.7879 117.467 90.6916 117.5 90.5953 117.531L90.5324 117.552C90.5027 117.563 90.4712 117.572 90.4416 117.581C90.3935 117.596 90.3453 117.611 90.2953 117.624L90.1972 117.654C90.0342 117.704 89.8712 117.752 89.7083 117.798C89.5824 117.833 89.4564 117.869 89.3305 117.902C89.1675 117.944 89.0064 117.987 88.8435 118.026C88.7175 118.057 88.5898 118.087 88.462 118.117C88.299 118.154 88.1379 118.189 87.9749 118.222C87.8472 118.248 87.7212 118.274 87.5935 118.298C87.4305 118.33 87.2657 118.357 87.1009 118.385L87.0583 118.393C86.9472 118.411 86.8379 118.43 86.7268 118.446C86.5583 118.472 86.3916 118.494 86.2231 118.515L86.1324 118.526C86.0416 118.537 85.9509 118.55 85.862 118.559C85.6879 118.58 85.5138 118.594 85.3398 118.611L85.2287 118.622C85.1509 118.63 85.0749 118.637 84.9972 118.643C84.8046 118.657 84.6138 118.667 84.4231 118.676L84.3157 118.681C84.2564 118.685 84.1972 118.689 84.1379 118.691C83.8546 118.707 83.5657 118.713 83.2935 118.713ZM72.1212 114.313C72.8694 114.881 73.6787 115.391 74.5268 115.83C77.1157 117.17 80.1472 117.878 83.2953 117.878C83.5564 117.878 83.8342 117.872 84.1194 117.861C84.1731 117.859 84.2268 117.856 84.2805 117.852L84.3953 117.844C84.5805 117.835 84.7638 117.826 84.949 117.811C85.0212 117.806 85.0935 117.798 85.1657 117.793L85.2787 117.781C85.449 117.767 85.6157 117.75 85.7842 117.731C85.8694 117.722 85.9546 117.711 86.0416 117.7L86.1342 117.687C86.2953 117.667 86.4583 117.644 86.6194 117.62C86.725 117.604 86.8324 117.587 86.9379 117.569L86.9805 117.561C87.1398 117.535 87.2972 117.507 87.4546 117.478C87.5768 117.454 87.699 117.43 87.8231 117.404C87.9805 117.372 88.1361 117.337 88.2935 117.302C88.4157 117.274 88.5398 117.244 88.662 117.215C88.8194 117.176 88.9749 117.135 89.1324 117.094C89.2546 117.061 89.3768 117.03 89.4972 116.994C89.6546 116.95 89.812 116.902 89.9694 116.854L90.0805 116.82C90.1231 116.807 90.1638 116.796 90.2046 116.783L90.3527 116.733C90.4453 116.704 90.5398 116.672 90.6324 116.641C90.7916 116.587 90.9472 116.533 91.1009 116.478C91.1953 116.443 91.2916 116.409 91.3861 116.372C91.5435 116.313 91.7009 116.252 91.8583 116.189L91.9379 116.157C92.0009 116.133 92.062 116.107 92.1249 116.083C92.3046 116.009 92.4842 115.931 92.662 115.854L92.7472 115.817C92.7842 115.802 92.8194 115.785 92.8546 115.77L92.9361 115.733C92.9583 115.722 92.9787 115.713 93.0009 115.702C93.2657 115.58 93.5398 115.448 93.8157 115.311C93.9101 115.265 94.0027 115.217 94.0953 115.169C94.3379 115.043 94.5842 114.909 94.8305 114.772C94.8583 114.757 94.8861 114.743 94.9138 114.728C94.9379 114.715 94.962 114.702 94.9861 114.689L95.0472 114.652C95.349 114.48 95.6194 114.317 95.875 114.157C96.1324 113.996 96.4046 113.819 96.7046 113.613L96.7787 113.565C96.9509 113.446 97.1231 113.324 97.2953 113.2L97.4083 113.117C97.6453 112.943 97.8601 112.781 98.0638 112.62L98.1138 112.58C98.2287 112.489 98.3472 112.396 98.4657 112.3C98.5842 112.204 98.7046 112.106 98.8231 112.006C99.0138 111.844 99.2009 111.681 99.3861 111.517C99.4249 111.483 99.462 111.448 99.4972 111.415L99.6305 111.293C99.7305 111.2 99.8324 111.109 99.9305 111.015C99.9324 111.013 99.9416 111.004 99.9453 111.002L100.014 110.935C100.199 110.759 100.386 110.574 100.586 110.37C100.645 110.309 100.705 110.248 100.764 110.187C100.94 110.004 101.114 109.819 101.282 109.631L101.381 109.524C101.575 109.306 101.775 109.076 101.988 108.819C102.031 108.769 102.071 108.719 102.112 108.667L102.132 108.643C102.312 108.422 102.484 108.204 102.642 107.998L102.718 107.9C102.908 107.648 103.105 107.374 103.318 107.065L103.429 106.902C103.621 106.619 103.803 106.335 103.973 106.061L104.006 106.009C104.027 105.976 104.047 105.941 104.068 105.906L104.119 105.819C104.186 105.707 104.253 105.596 104.318 105.485C104.36 105.411 104.403 105.337 104.443 105.261L104.471 105.211C104.532 105.1 104.595 104.989 104.655 104.878C104.705 104.785 104.753 104.694 104.801 104.602C104.858 104.491 104.916 104.38 104.971 104.267C105.018 104.172 105.064 104.08 105.11 103.985C105.164 103.874 105.218 103.761 105.269 103.648L105.34 103.502C105.382 103.407 105.425 103.313 105.468 103.217C105.782 102.5 106.055 101.78 106.277 101.072C107.205 98.1611 107.462 95.1352 107.023 92.3185C106.993 92.1296 106.958 91.9278 106.914 91.6981L106.879 91.5222C106.843 91.3537 106.806 91.187 106.768 91.0204L106.756 90.9741C106.745 90.9278 106.734 90.8796 106.723 90.8333C106.66 90.5852 106.605 90.3796 106.549 90.1889C106.473 89.9278 106.382 89.6537 106.266 89.3259C106.258 89.3018 106.251 89.2815 106.243 89.2593C106.24 89.2463 106.234 89.2315 106.231 89.2185C106.225 89.2037 106.219 89.1907 106.214 89.1778C106.205 89.1555 106.195 89.1315 106.186 89.1093C106.082 88.8315 105.982 88.5778 105.879 88.3389L105.851 88.2704C105.743 88.0222 105.618 87.7574 105.468 87.4611C105.458 87.4426 105.447 87.4204 105.438 87.4L105.423 87.3667C105.414 87.3481 105.403 87.3278 105.392 87.3093C105.379 87.287 105.366 87.263 105.353 87.2389C105.26 87.063 105.166 86.8907 105.068 86.7185L105.027 86.6463C105.001 86.6 104.973 86.5518 104.945 86.5055C104.79 86.2444 104.647 86.0148 104.508 85.8092C104.506 85.8074 104.505 85.8037 104.503 85.8C104.375 85.6093 104.242 85.4204 104.108 85.237L102.514 83.063C102.577 83.25 102.631 83.4222 102.679 83.587C102.738 83.7889 102.797 84.0037 102.862 84.263L102.91 84.4592C102.951 84.6352 102.99 84.8093 103.027 84.9852L103.066 85.1704C103.112 85.4074 103.149 85.6204 103.181 85.8241C103.638 88.7685 103.369 91.9259 102.405 94.9574C102.173 95.6926 101.89 96.4426 101.564 97.1833C101.505 97.3204 101.44 97.4574 101.377 97.5944L101.36 97.6315C101.306 97.7481 101.251 97.8648 101.195 97.9815C101.149 98.0778 101.101 98.1741 101.053 98.2722C100.993 98.3889 100.934 98.5055 100.875 98.6204C100.825 98.7148 100.775 98.8111 100.725 98.9056C100.662 99.0222 100.597 99.137 100.532 99.2537L100.514 99.287C100.468 99.3704 100.421 99.4518 100.373 99.5352C100.306 99.6518 100.238 99.7667 100.168 99.8815L100.149 99.913C100.105 99.987 100.06 100.061 100.016 100.133C99.8416 100.417 99.6527 100.709 99.4527 101.004L99.3361 101.174C99.1175 101.493 98.9138 101.776 98.7138 102.041L98.6361 102.141C98.4712 102.357 98.299 102.576 98.1101 102.807L97.9601 102.989C97.7416 103.254 97.5361 103.491 97.3324 103.717L97.2305 103.826C97.0546 104.019 96.8768 104.209 96.6935 104.4C96.6324 104.463 96.5712 104.526 96.5101 104.589C96.3064 104.796 96.1138 104.987 95.9194 105.172L95.8342 105.256C95.7305 105.354 95.625 105.45 95.5175 105.548L95.3972 105.659C95.3546 105.698 95.3138 105.737 95.2712 105.774C95.0805 105.944 94.8861 106.113 94.6879 106.28C94.4527 106.476 94.2138 106.67 93.9546 106.872L93.9046 106.913C93.6953 107.076 93.4731 107.244 93.2268 107.424L93.112 107.509C92.9083 107.657 92.7046 107.798 92.5027 107.937C92.1935 108.148 91.912 108.331 91.6453 108.5C91.3824 108.665 91.1027 108.831 90.7916 109.011C90.7453 109.037 90.699 109.063 90.6509 109.089L90.5657 109.137C90.3138 109.278 90.0583 109.417 89.8064 109.546C89.7101 109.596 89.6138 109.646 89.5175 109.694C89.2342 109.837 88.9527 109.972 88.6768 110.098L88.612 110.128C88.5842 110.141 88.5546 110.156 88.5268 110.169C88.4861 110.187 88.4453 110.204 88.4046 110.222L88.3249 110.256C88.1398 110.337 87.9546 110.417 87.7694 110.493C87.7009 110.52 87.6324 110.548 87.562 110.576L87.4916 110.604C87.3287 110.669 87.1675 110.731 87.0027 110.793C86.9046 110.83 86.8064 110.865 86.7064 110.902C86.5472 110.959 86.3861 111.015 86.2268 111.069C86.1287 111.102 86.0305 111.135 85.9324 111.167C85.8175 111.204 85.7009 111.239 85.5861 111.274L85.5342 111.289C85.3712 111.339 85.2083 111.387 85.0453 111.433C84.9194 111.469 84.7916 111.504 84.6657 111.537C84.5046 111.58 84.3435 111.622 84.1805 111.661C84.0527 111.693 83.9249 111.722 83.7972 111.752C83.6361 111.789 83.4731 111.824 83.312 111.857C83.1861 111.883 83.0583 111.909 82.9305 111.933C82.7657 111.965 82.6027 111.993 82.4379 112.02L82.4009 112.026C82.2879 112.044 82.1749 112.063 82.062 112.081C81.8935 112.107 81.7268 112.13 81.5601 112.15L81.4712 112.161C81.3787 112.174 81.2879 112.185 81.1972 112.196C81.025 112.217 80.8527 112.231 80.6805 112.248L80.5657 112.259C80.4879 112.267 80.4101 112.274 80.3342 112.28C80.1435 112.294 79.9527 112.304 79.762 112.313L79.6527 112.319C79.5935 112.322 79.5342 112.326 79.4749 112.328C79.1787 112.339 78.8916 112.344 78.6194 112.344C75.3379 112.344 72.175 111.604 69.4675 110.202C69.262 110.096 69.0601 109.985 68.8601 109.872L72.1212 114.313Z" fill="#F9FAFB"/>
<path d="M161.624 120.05C163.146 120.05 164.379 118.816 164.379 117.294C164.379 115.773 163.146 114.539 161.624 114.539C160.102 114.539 158.868 115.773 158.868 117.294C158.868 118.816 160.102 120.05 161.624 120.05Z" fill="#F9FAFB"/>
<path d="M45.7468 109.883C47.2686 109.883 48.5023 108.65 48.5023 107.128C48.5023 105.606 47.2686 104.372 45.7468 104.372C44.2249 104.372 42.9912 105.606 42.9912 107.128C42.9912 108.65 44.2249 109.883 45.7468 109.883Z" fill="#F9FAFB"/>
<path d="M47.1256 112.111C47.6616 112.111 48.096 111.677 48.096 111.141C48.096 110.605 47.6616 110.17 47.1256 110.17C46.5897 110.17 46.1553 110.605 46.1553 111.141C46.1553 111.677 46.5897 112.111 47.1256 112.111Z" fill="#F9FAFB"/>
<path d="M60.7888 75.226C62.3106 75.226 63.5443 73.9923 63.5443 72.4704C63.5443 70.9485 62.3106 69.7148 60.7888 69.7148C59.2669 69.7148 58.0332 70.9485 58.0332 72.4704C58.0332 73.9923 59.2669 75.226 60.7888 75.226Z" fill="#F9FAFB"/>
<path d="M64.0094 70.6778C64.5454 70.6778 64.9798 70.2434 64.9798 69.7074C64.9798 69.1715 64.5454 68.7371 64.0094 68.7371C63.4735 68.7371 63.0391 69.1715 63.0391 69.7074C63.0391 70.2434 63.4735 70.6778 64.0094 70.6778Z" fill="#F9FAFB"/>
<path d="M168.7 60.7148C171.318 60.7148 173.44 58.5923 173.44 55.9741C173.44 53.3558 171.318 51.2333 168.7 51.2333C166.081 51.2333 163.959 53.3558 163.959 55.9741C163.959 58.5923 166.081 60.7148 168.7 60.7148Z" fill="#E4E7EC"/>
<path d="M163.96 53.6333C165.206 53.6333 166.217 52.6227 166.217 51.3759C166.217 50.1292 165.206 49.1185 163.96 49.1185C162.713 49.1185 161.702 50.1292 161.702 51.3759C161.702 52.6227 162.713 53.6333 163.96 53.6333Z" fill="#F9FAFB"/>
</svg>
