<svg width="44" height="44" viewBox="0 0 44 44" fill="none" xmlns="http://www.w3.org/2000/svg">
<rect x="0.65" y="0.65" width="42.7" height="42.7" rx="7.35" stroke="#E0E0E0" stroke-width="1.3"/>
<g clip-path="url(#clip0_1525_256)">
<path opacity="0.994" fill-rule="evenodd" clip-rule="evenodd" d="M13.7383 11.9805C19.2331 11.9805 24.7279 11.9805 30.2227 11.9805C31.1602 12.2148 31.7461 12.8008 31.9805 13.7383C31.9805 19.2331 31.9805 24.7279 31.9805 30.2227C31.7461 31.1602 31.1602 31.7461 30.2227 31.9805C24.7279 31.9805 19.2331 31.9805 13.7383 31.9805C12.8008 31.7461 12.2148 31.1602 11.9805 30.2227C11.9805 24.7279 11.9805 19.2331 11.9805 13.7383C12.2148 12.8008 12.8008 12.2148 13.7383 11.9805ZM15.2227 15.0664C16.5442 15.0209 17.8723 15.0144 19.207 15.0469C20.3356 16.6572 21.4489 18.2783 22.5469 19.9102C22.6098 19.9973 22.6814 20.0754 22.7617 20.1445C24.22 18.4518 25.6784 16.7591 27.1367 15.0664C27.5143 15.0143 27.8919 15.0143 28.2695 15.0664C26.595 17.0077 24.9284 18.9543 23.2695 20.9062C25.069 23.5847 26.8919 26.2475 28.7383 28.8945C27.4104 28.9401 26.0822 28.9466 24.7539 28.9141C23.5056 27.1141 22.2621 25.3107 21.0234 23.5039C19.4536 25.2964 17.8976 27.0997 16.3555 28.9141C15.9779 28.9401 15.6003 28.9401 15.2227 28.9141C16.9956 26.8678 18.7534 24.8105 20.4961 22.7422C18.7442 20.177 16.9864 17.6184 15.2227 15.0664Z" fill="white"/>
<path opacity="0.962" fill-rule="evenodd" clip-rule="evenodd" d="M16.7852 15.8867C17.4103 15.8802 18.0353 15.8867 18.6602 15.9062C21.5035 19.9588 24.342 24.0148 27.1758 28.0742C26.5512 28.1198 25.9262 28.1263 25.3008 28.0937C25.2682 28.0612 25.2357 28.0286 25.2031 27.9961C22.3875 23.9636 19.5816 19.9271 16.7852 15.8867Z" fill="white"/>
</g>
<defs>
<clipPath id="clip0_1525_256">
<rect width="20" height="20" fill="white" transform="translate(12 12)"/>
</clipPath>
</defs>
</svg>
